G04 #@! TF.GenerationSoftware,KiCad,Pcbnew,(5.1.9)-1*
G04 #@! TF.CreationDate,2021-03-09T14:09:52+01:00*
G04 #@! TF.ProjectId,OpenMacroPad,4f70656e-4d61-4637-926f-5061642e6b69,rev?*
G04 #@! TF.SameCoordinates,Original*
G04 #@! TF.FileFunction,Legend,Top*
G04 #@! TF.FilePolarity,Positive*
%FSLAX46Y46*%
G04 Gerber Fmt 4.6, Leading zero omitted, Abs format (unit mm)*
G04 Created by KiCad (PCBNEW (5.1.9)-1) date 2021-03-09 14:09:52*
%MOMM*%
%LPD*%
G01*
G04 APERTURE LIST*
%ADD10C,0.120000*%
%ADD11C,0.150000*%
%ADD12C,0.100000*%
G04 APERTURE END LIST*
D10*
X202819000Y-90805000D02*
X202819000Y-104775000D01*
X188849000Y-90805000D02*
X202819000Y-90805000D01*
X188849000Y-104775000D02*
X188849000Y-90805000D01*
X202819000Y-104775000D02*
X188849000Y-104775000D01*
X198714000Y-78700000D02*
G75*
G03*
X198714000Y-78700000I-3000000J0D01*
G01*
X197714000Y-72800000D02*
X201814000Y-72800000D01*
X201814000Y-84600000D02*
X197714000Y-84600000D01*
X193714000Y-84600000D02*
X189614000Y-84600000D01*
X193714000Y-72800000D02*
X189614000Y-72800000D01*
X189614000Y-72800000D02*
X189614000Y-84600000D01*
X188214000Y-74900000D02*
X187914000Y-74600000D01*
X187914000Y-74600000D02*
X188514000Y-74600000D01*
X188514000Y-74600000D02*
X188214000Y-74900000D01*
X201814000Y-72800000D02*
X201814000Y-75200000D01*
X201814000Y-77400000D02*
X201814000Y-80000000D01*
X201814000Y-82200000D02*
X201814000Y-84600000D01*
X195714000Y-78200000D02*
X195714000Y-79200000D01*
X195214000Y-78700000D02*
X196214000Y-78700000D01*
X202819000Y-128905000D02*
X202819000Y-142875000D01*
X188849000Y-128905000D02*
X202819000Y-128905000D01*
X188849000Y-142875000D02*
X188849000Y-128905000D01*
X202819000Y-142875000D02*
X188849000Y-142875000D01*
X183769000Y-142875000D02*
X169799000Y-142875000D01*
X169799000Y-142875000D02*
X169799000Y-128905000D01*
X169799000Y-128905000D02*
X183769000Y-128905000D01*
X183769000Y-128905000D02*
X183769000Y-142875000D01*
X164719000Y-128905000D02*
X164719000Y-142875000D01*
X150749000Y-128905000D02*
X164719000Y-128905000D01*
X150749000Y-142875000D02*
X150749000Y-128905000D01*
X164719000Y-142875000D02*
X150749000Y-142875000D01*
X202819000Y-123825000D02*
X188849000Y-123825000D01*
X188849000Y-123825000D02*
X188849000Y-109855000D01*
X188849000Y-109855000D02*
X202819000Y-109855000D01*
X202819000Y-109855000D02*
X202819000Y-123825000D01*
X183769000Y-109855000D02*
X183769000Y-123825000D01*
X169799000Y-109855000D02*
X183769000Y-109855000D01*
X169799000Y-123825000D02*
X169799000Y-109855000D01*
X183769000Y-123825000D02*
X169799000Y-123825000D01*
X164719000Y-123825000D02*
X150749000Y-123825000D01*
X150749000Y-123825000D02*
X150749000Y-109855000D01*
X150749000Y-109855000D02*
X164719000Y-109855000D01*
X164719000Y-109855000D02*
X164719000Y-123825000D01*
X183769000Y-104775000D02*
X169799000Y-104775000D01*
X169799000Y-104775000D02*
X169799000Y-90805000D01*
X169799000Y-90805000D02*
X183769000Y-90805000D01*
X183769000Y-90805000D02*
X183769000Y-104775000D01*
X164719000Y-90805000D02*
X164719000Y-104775000D01*
X150749000Y-90805000D02*
X164719000Y-90805000D01*
X150749000Y-104775000D02*
X150749000Y-90805000D01*
X164719000Y-104775000D02*
X150749000Y-104775000D01*
X169294000Y-90550000D02*
X169294000Y-87250000D01*
X166494000Y-90550000D02*
X169294000Y-90550000D01*
X204484500Y-98027258D02*
X204484500Y-97552742D01*
X203439500Y-98027258D02*
X203439500Y-97552742D01*
X185434500Y-98027258D02*
X185434500Y-97552742D01*
X184389500Y-98027258D02*
X184389500Y-97552742D01*
X166384500Y-98027258D02*
X166384500Y-97552742D01*
X165339500Y-98027258D02*
X165339500Y-97552742D01*
X187212500Y-84565258D02*
X187212500Y-84090742D01*
X186167500Y-84565258D02*
X186167500Y-84090742D01*
X187212500Y-73389258D02*
X187212500Y-72914742D01*
X186167500Y-73389258D02*
X186167500Y-72914742D01*
X196325258Y-87615500D02*
X195850742Y-87615500D01*
X196325258Y-88660500D02*
X195850742Y-88660500D01*
X166355500Y-72914742D02*
X166355500Y-73389258D01*
X167400500Y-72914742D02*
X167400500Y-73389258D01*
X166355500Y-84090742D02*
X166355500Y-84565258D01*
X167400500Y-84090742D02*
X167400500Y-84565258D01*
X152416742Y-71642500D02*
X152891258Y-71642500D01*
X152416742Y-70597500D02*
X152891258Y-70597500D01*
X155484000Y-105172000D02*
X159384000Y-105172000D01*
X155484000Y-107172000D02*
X159384000Y-107172000D01*
X155484000Y-105172000D02*
X155484000Y-107172000D01*
X193584000Y-143018000D02*
X197484000Y-143018000D01*
X193584000Y-145018000D02*
X197484000Y-145018000D01*
X193584000Y-143018000D02*
X193584000Y-145018000D01*
X174534000Y-143018000D02*
X178434000Y-143018000D01*
X174534000Y-145018000D02*
X178434000Y-145018000D01*
X174534000Y-143018000D02*
X174534000Y-145018000D01*
X155484000Y-143018000D02*
X159384000Y-143018000D01*
X155484000Y-145018000D02*
X159384000Y-145018000D01*
X155484000Y-143018000D02*
X155484000Y-145018000D01*
X193584000Y-124222000D02*
X197484000Y-124222000D01*
X193584000Y-126222000D02*
X197484000Y-126222000D01*
X193584000Y-124222000D02*
X193584000Y-126222000D01*
X174534000Y-124222000D02*
X178434000Y-124222000D01*
X174534000Y-126222000D02*
X178434000Y-126222000D01*
X174534000Y-124222000D02*
X174534000Y-126222000D01*
X155484000Y-124222000D02*
X159384000Y-124222000D01*
X155484000Y-126222000D02*
X159384000Y-126222000D01*
X155484000Y-124222000D02*
X155484000Y-126222000D01*
X193584000Y-105172000D02*
X197484000Y-105172000D01*
X193584000Y-107172000D02*
X197484000Y-107172000D01*
X193584000Y-105172000D02*
X193584000Y-107172000D01*
X174534000Y-105172000D02*
X178434000Y-105172000D01*
X174534000Y-107172000D02*
X178434000Y-107172000D01*
X174534000Y-105172000D02*
X174534000Y-107172000D01*
X188724000Y-84468580D02*
X188724000Y-84187420D01*
X187704000Y-84468580D02*
X187704000Y-84187420D01*
X188724000Y-73292580D02*
X188724000Y-73011420D01*
X187704000Y-73292580D02*
X187704000Y-73011420D01*
X164844000Y-73011420D02*
X164844000Y-73292580D01*
X165864000Y-73011420D02*
X165864000Y-73292580D01*
X164844000Y-84187420D02*
X164844000Y-84468580D01*
X165864000Y-84187420D02*
X165864000Y-84468580D01*
X186452742Y-89676500D02*
X186927258Y-89676500D01*
X186452742Y-88631500D02*
X186927258Y-88631500D01*
X171479230Y-73966303D02*
X171143697Y-73630770D01*
X170740303Y-74705230D02*
X170404770Y-74369697D01*
X169134770Y-75639697D02*
X169470303Y-75975230D01*
X169873697Y-74900770D02*
X170209230Y-75236303D01*
X184656000Y-78091420D02*
X184656000Y-78372580D01*
X185676000Y-78091420D02*
X185676000Y-78372580D01*
X168261420Y-77726000D02*
X168542580Y-77726000D01*
X168261420Y-76706000D02*
X168542580Y-76706000D01*
X181723420Y-74678000D02*
X182004580Y-74678000D01*
X181723420Y-73658000D02*
X182004580Y-73658000D01*
X164844000Y-88759420D02*
X164844000Y-89040580D01*
X165864000Y-88759420D02*
X165864000Y-89040580D01*
X167753420Y-92204000D02*
X168034580Y-92204000D01*
X167753420Y-91184000D02*
X168034580Y-91184000D01*
X181379000Y-69736000D02*
X181379000Y-68836000D01*
X172189000Y-69736000D02*
X172189000Y-68836000D01*
X181379000Y-66136000D02*
X181379000Y-63406000D01*
X172189000Y-66136000D02*
X172189000Y-63406000D01*
X181259000Y-72816000D02*
X172309000Y-72816000D01*
X181379000Y-63406000D02*
X172189000Y-63406000D01*
X194364000Y-131890000D02*
X194364000Y-132070000D01*
X194364000Y-129550000D02*
X194364000Y-129730000D01*
X194244000Y-131890000D02*
X194244000Y-132070000D01*
X194244000Y-129550000D02*
X194244000Y-129730000D01*
X197544000Y-131905000D02*
X197544000Y-132070000D01*
X197544000Y-129550000D02*
X197544000Y-129715000D01*
X194124000Y-131890000D02*
X194124000Y-132070000D01*
X194124000Y-129550000D02*
X194124000Y-129730000D01*
X194124000Y-132070000D02*
X197544000Y-132070000D01*
X194124000Y-129550000D02*
X197544000Y-129550000D01*
X175314000Y-131890000D02*
X175314000Y-132070000D01*
X175314000Y-129550000D02*
X175314000Y-129730000D01*
X175194000Y-131890000D02*
X175194000Y-132070000D01*
X175194000Y-129550000D02*
X175194000Y-129730000D01*
X178494000Y-131905000D02*
X178494000Y-132070000D01*
X178494000Y-129550000D02*
X178494000Y-129715000D01*
X175074000Y-131890000D02*
X175074000Y-132070000D01*
X175074000Y-129550000D02*
X175074000Y-129730000D01*
X175074000Y-132070000D02*
X178494000Y-132070000D01*
X175074000Y-129550000D02*
X178494000Y-129550000D01*
X156264000Y-131890000D02*
X156264000Y-132070000D01*
X156264000Y-129550000D02*
X156264000Y-129730000D01*
X156144000Y-131890000D02*
X156144000Y-132070000D01*
X156144000Y-129550000D02*
X156144000Y-129730000D01*
X159444000Y-131905000D02*
X159444000Y-132070000D01*
X159444000Y-129550000D02*
X159444000Y-129715000D01*
X156024000Y-131890000D02*
X156024000Y-132070000D01*
X156024000Y-129550000D02*
X156024000Y-129730000D01*
X156024000Y-132070000D02*
X159444000Y-132070000D01*
X156024000Y-129550000D02*
X159444000Y-129550000D01*
X194364000Y-112840000D02*
X194364000Y-113020000D01*
X194364000Y-110500000D02*
X194364000Y-110680000D01*
X194244000Y-112840000D02*
X194244000Y-113020000D01*
X194244000Y-110500000D02*
X194244000Y-110680000D01*
X197544000Y-112855000D02*
X197544000Y-113020000D01*
X197544000Y-110500000D02*
X197544000Y-110665000D01*
X194124000Y-112840000D02*
X194124000Y-113020000D01*
X194124000Y-110500000D02*
X194124000Y-110680000D01*
X194124000Y-113020000D02*
X197544000Y-113020000D01*
X194124000Y-110500000D02*
X197544000Y-110500000D01*
X175314000Y-112840000D02*
X175314000Y-113020000D01*
X175314000Y-110500000D02*
X175314000Y-110680000D01*
X175194000Y-112840000D02*
X175194000Y-113020000D01*
X175194000Y-110500000D02*
X175194000Y-110680000D01*
X178494000Y-112855000D02*
X178494000Y-113020000D01*
X178494000Y-110500000D02*
X178494000Y-110665000D01*
X175074000Y-112840000D02*
X175074000Y-113020000D01*
X175074000Y-110500000D02*
X175074000Y-110680000D01*
X175074000Y-113020000D02*
X178494000Y-113020000D01*
X175074000Y-110500000D02*
X178494000Y-110500000D01*
X156264000Y-112840000D02*
X156264000Y-113020000D01*
X156264000Y-110500000D02*
X156264000Y-110680000D01*
X156144000Y-112840000D02*
X156144000Y-113020000D01*
X156144000Y-110500000D02*
X156144000Y-110680000D01*
X159444000Y-112855000D02*
X159444000Y-113020000D01*
X159444000Y-110500000D02*
X159444000Y-110665000D01*
X156024000Y-112840000D02*
X156024000Y-113020000D01*
X156024000Y-110500000D02*
X156024000Y-110680000D01*
X156024000Y-113020000D02*
X159444000Y-113020000D01*
X156024000Y-110500000D02*
X159444000Y-110500000D01*
X194364000Y-93790000D02*
X194364000Y-93970000D01*
X194364000Y-91450000D02*
X194364000Y-91630000D01*
X194244000Y-93790000D02*
X194244000Y-93970000D01*
X194244000Y-91450000D02*
X194244000Y-91630000D01*
X197544000Y-93805000D02*
X197544000Y-93970000D01*
X197544000Y-91450000D02*
X197544000Y-91615000D01*
X194124000Y-93790000D02*
X194124000Y-93970000D01*
X194124000Y-91450000D02*
X194124000Y-91630000D01*
X194124000Y-93970000D02*
X197544000Y-93970000D01*
X194124000Y-91450000D02*
X197544000Y-91450000D01*
X156264000Y-93790000D02*
X156264000Y-93970000D01*
X156264000Y-91450000D02*
X156264000Y-91630000D01*
X156144000Y-93790000D02*
X156144000Y-93970000D01*
X156144000Y-91450000D02*
X156144000Y-91630000D01*
X159444000Y-93805000D02*
X159444000Y-93970000D01*
X159444000Y-91450000D02*
X159444000Y-91615000D01*
X156024000Y-93790000D02*
X156024000Y-93970000D01*
X156024000Y-91450000D02*
X156024000Y-91630000D01*
X156024000Y-93970000D02*
X159444000Y-93970000D01*
X156024000Y-91450000D02*
X159444000Y-91450000D01*
X175314000Y-93790000D02*
X175314000Y-93970000D01*
X175314000Y-91450000D02*
X175314000Y-91630000D01*
X175194000Y-93790000D02*
X175194000Y-93970000D01*
X175194000Y-91450000D02*
X175194000Y-91630000D01*
X178494000Y-93805000D02*
X178494000Y-93970000D01*
X178494000Y-91450000D02*
X178494000Y-91615000D01*
X175074000Y-93790000D02*
X175074000Y-93970000D01*
X175074000Y-91450000D02*
X175074000Y-91630000D01*
X175074000Y-93970000D02*
X178494000Y-93970000D01*
X175074000Y-91450000D02*
X178494000Y-91450000D01*
D11*
X176377414Y-75130031D02*
X175475852Y-74228470D01*
X184102555Y-82042000D02*
X183625258Y-81564703D01*
X176784000Y-89360555D02*
X176306703Y-88883258D01*
X169465445Y-82042000D02*
X169942742Y-82519297D01*
X176784000Y-74723445D02*
X177261297Y-75200742D01*
X169465445Y-82042000D02*
X169942742Y-81564703D01*
X176784000Y-89360555D02*
X177261297Y-88883258D01*
X184102555Y-82042000D02*
X183625258Y-82519297D01*
X176784000Y-74723445D02*
X176377414Y-75130031D01*
D10*
X160854000Y-78780000D02*
G75*
G03*
X160854000Y-78780000I-3000000J0D01*
G01*
X155854000Y-84680000D02*
X151754000Y-84680000D01*
X151754000Y-72880000D02*
X155854000Y-72880000D01*
X159854000Y-72880000D02*
X163954000Y-72880000D01*
X159854000Y-84680000D02*
X163954000Y-84680000D01*
X163954000Y-84680000D02*
X163954000Y-72880000D01*
X165354000Y-82580000D02*
X165654000Y-82880000D01*
X165654000Y-82880000D02*
X165054000Y-82880000D01*
X165054000Y-82880000D02*
X165354000Y-82580000D01*
X151754000Y-84680000D02*
X151754000Y-82280000D01*
X151754000Y-80080000D02*
X151754000Y-77480000D01*
X151754000Y-75280000D02*
X151754000Y-72880000D01*
X157854000Y-79280000D02*
X157854000Y-78280000D01*
X158354000Y-78780000D02*
X157354000Y-78780000D01*
D12*
X194767333Y-101669809D02*
X194881619Y-101707904D01*
X195072095Y-101707904D01*
X195148285Y-101669809D01*
X195186380Y-101631714D01*
X195224476Y-101555523D01*
X195224476Y-101479333D01*
X195186380Y-101403142D01*
X195148285Y-101365047D01*
X195072095Y-101326952D01*
X194919714Y-101288857D01*
X194843523Y-101250761D01*
X194805428Y-101212666D01*
X194767333Y-101136476D01*
X194767333Y-101060285D01*
X194805428Y-100984095D01*
X194843523Y-100946000D01*
X194919714Y-100907904D01*
X195110190Y-100907904D01*
X195224476Y-100946000D01*
X195491142Y-100907904D02*
X195681619Y-101707904D01*
X195834000Y-101136476D01*
X195986380Y-101707904D01*
X196176857Y-100907904D01*
X196405428Y-100907904D02*
X196900666Y-100907904D01*
X196634000Y-101212666D01*
X196748285Y-101212666D01*
X196824476Y-101250761D01*
X196862571Y-101288857D01*
X196900666Y-101365047D01*
X196900666Y-101555523D01*
X196862571Y-101631714D01*
X196824476Y-101669809D01*
X196748285Y-101707904D01*
X196519714Y-101707904D01*
X196443523Y-101669809D01*
X196405428Y-101631714D01*
X194761619Y-78642857D02*
X195028285Y-78642857D01*
X195142571Y-79061904D02*
X194761619Y-79061904D01*
X194761619Y-78261904D01*
X195142571Y-78261904D01*
X195942571Y-78985714D02*
X195904476Y-79023809D01*
X195790190Y-79061904D01*
X195714000Y-79061904D01*
X195599714Y-79023809D01*
X195523523Y-78947619D01*
X195485428Y-78871428D01*
X195447333Y-78719047D01*
X195447333Y-78604761D01*
X195485428Y-78452380D01*
X195523523Y-78376190D01*
X195599714Y-78300000D01*
X195714000Y-78261904D01*
X195790190Y-78261904D01*
X195904476Y-78300000D01*
X195942571Y-78338095D01*
X196247333Y-78338095D02*
X196285428Y-78300000D01*
X196361619Y-78261904D01*
X196552095Y-78261904D01*
X196628285Y-78300000D01*
X196666380Y-78338095D01*
X196704476Y-78414285D01*
X196704476Y-78490476D01*
X196666380Y-78604761D01*
X196209238Y-79061904D01*
X196704476Y-79061904D01*
X194767333Y-139515809D02*
X194881619Y-139553904D01*
X195072095Y-139553904D01*
X195148285Y-139515809D01*
X195186380Y-139477714D01*
X195224476Y-139401523D01*
X195224476Y-139325333D01*
X195186380Y-139249142D01*
X195148285Y-139211047D01*
X195072095Y-139172952D01*
X194919714Y-139134857D01*
X194843523Y-139096761D01*
X194805428Y-139058666D01*
X194767333Y-138982476D01*
X194767333Y-138906285D01*
X194805428Y-138830095D01*
X194843523Y-138792000D01*
X194919714Y-138753904D01*
X195110190Y-138753904D01*
X195224476Y-138792000D01*
X195491142Y-138753904D02*
X195681619Y-139553904D01*
X195834000Y-138982476D01*
X195986380Y-139553904D01*
X196176857Y-138753904D01*
X196519714Y-139553904D02*
X196672095Y-139553904D01*
X196748285Y-139515809D01*
X196786380Y-139477714D01*
X196862571Y-139363428D01*
X196900666Y-139211047D01*
X196900666Y-138906285D01*
X196862571Y-138830095D01*
X196824476Y-138792000D01*
X196748285Y-138753904D01*
X196595904Y-138753904D01*
X196519714Y-138792000D01*
X196481619Y-138830095D01*
X196443523Y-138906285D01*
X196443523Y-139096761D01*
X196481619Y-139172952D01*
X196519714Y-139211047D01*
X196595904Y-139249142D01*
X196748285Y-139249142D01*
X196824476Y-139211047D01*
X196862571Y-139172952D01*
X196900666Y-139096761D01*
X175717333Y-139515809D02*
X175831619Y-139553904D01*
X176022095Y-139553904D01*
X176098285Y-139515809D01*
X176136380Y-139477714D01*
X176174476Y-139401523D01*
X176174476Y-139325333D01*
X176136380Y-139249142D01*
X176098285Y-139211047D01*
X176022095Y-139172952D01*
X175869714Y-139134857D01*
X175793523Y-139096761D01*
X175755428Y-139058666D01*
X175717333Y-138982476D01*
X175717333Y-138906285D01*
X175755428Y-138830095D01*
X175793523Y-138792000D01*
X175869714Y-138753904D01*
X176060190Y-138753904D01*
X176174476Y-138792000D01*
X176441142Y-138753904D02*
X176631619Y-139553904D01*
X176784000Y-138982476D01*
X176936380Y-139553904D01*
X177126857Y-138753904D01*
X177545904Y-139096761D02*
X177469714Y-139058666D01*
X177431619Y-139020571D01*
X177393523Y-138944380D01*
X177393523Y-138906285D01*
X177431619Y-138830095D01*
X177469714Y-138792000D01*
X177545904Y-138753904D01*
X177698285Y-138753904D01*
X177774476Y-138792000D01*
X177812571Y-138830095D01*
X177850666Y-138906285D01*
X177850666Y-138944380D01*
X177812571Y-139020571D01*
X177774476Y-139058666D01*
X177698285Y-139096761D01*
X177545904Y-139096761D01*
X177469714Y-139134857D01*
X177431619Y-139172952D01*
X177393523Y-139249142D01*
X177393523Y-139401523D01*
X177431619Y-139477714D01*
X177469714Y-139515809D01*
X177545904Y-139553904D01*
X177698285Y-139553904D01*
X177774476Y-139515809D01*
X177812571Y-139477714D01*
X177850666Y-139401523D01*
X177850666Y-139249142D01*
X177812571Y-139172952D01*
X177774476Y-139134857D01*
X177698285Y-139096761D01*
X156667333Y-139515809D02*
X156781619Y-139553904D01*
X156972095Y-139553904D01*
X157048285Y-139515809D01*
X157086380Y-139477714D01*
X157124476Y-139401523D01*
X157124476Y-139325333D01*
X157086380Y-139249142D01*
X157048285Y-139211047D01*
X156972095Y-139172952D01*
X156819714Y-139134857D01*
X156743523Y-139096761D01*
X156705428Y-139058666D01*
X156667333Y-138982476D01*
X156667333Y-138906285D01*
X156705428Y-138830095D01*
X156743523Y-138792000D01*
X156819714Y-138753904D01*
X157010190Y-138753904D01*
X157124476Y-138792000D01*
X157391142Y-138753904D02*
X157581619Y-139553904D01*
X157734000Y-138982476D01*
X157886380Y-139553904D01*
X158076857Y-138753904D01*
X158305428Y-138753904D02*
X158838761Y-138753904D01*
X158495904Y-139553904D01*
X194767333Y-120465809D02*
X194881619Y-120503904D01*
X195072095Y-120503904D01*
X195148285Y-120465809D01*
X195186380Y-120427714D01*
X195224476Y-120351523D01*
X195224476Y-120275333D01*
X195186380Y-120199142D01*
X195148285Y-120161047D01*
X195072095Y-120122952D01*
X194919714Y-120084857D01*
X194843523Y-120046761D01*
X194805428Y-120008666D01*
X194767333Y-119932476D01*
X194767333Y-119856285D01*
X194805428Y-119780095D01*
X194843523Y-119742000D01*
X194919714Y-119703904D01*
X195110190Y-119703904D01*
X195224476Y-119742000D01*
X195491142Y-119703904D02*
X195681619Y-120503904D01*
X195834000Y-119932476D01*
X195986380Y-120503904D01*
X196176857Y-119703904D01*
X196824476Y-119703904D02*
X196672095Y-119703904D01*
X196595904Y-119742000D01*
X196557809Y-119780095D01*
X196481619Y-119894380D01*
X196443523Y-120046761D01*
X196443523Y-120351523D01*
X196481619Y-120427714D01*
X196519714Y-120465809D01*
X196595904Y-120503904D01*
X196748285Y-120503904D01*
X196824476Y-120465809D01*
X196862571Y-120427714D01*
X196900666Y-120351523D01*
X196900666Y-120161047D01*
X196862571Y-120084857D01*
X196824476Y-120046761D01*
X196748285Y-120008666D01*
X196595904Y-120008666D01*
X196519714Y-120046761D01*
X196481619Y-120084857D01*
X196443523Y-120161047D01*
X175717333Y-120465809D02*
X175831619Y-120503904D01*
X176022095Y-120503904D01*
X176098285Y-120465809D01*
X176136380Y-120427714D01*
X176174476Y-120351523D01*
X176174476Y-120275333D01*
X176136380Y-120199142D01*
X176098285Y-120161047D01*
X176022095Y-120122952D01*
X175869714Y-120084857D01*
X175793523Y-120046761D01*
X175755428Y-120008666D01*
X175717333Y-119932476D01*
X175717333Y-119856285D01*
X175755428Y-119780095D01*
X175793523Y-119742000D01*
X175869714Y-119703904D01*
X176060190Y-119703904D01*
X176174476Y-119742000D01*
X176441142Y-119703904D02*
X176631619Y-120503904D01*
X176784000Y-119932476D01*
X176936380Y-120503904D01*
X177126857Y-119703904D01*
X177812571Y-119703904D02*
X177431619Y-119703904D01*
X177393523Y-120084857D01*
X177431619Y-120046761D01*
X177507809Y-120008666D01*
X177698285Y-120008666D01*
X177774476Y-120046761D01*
X177812571Y-120084857D01*
X177850666Y-120161047D01*
X177850666Y-120351523D01*
X177812571Y-120427714D01*
X177774476Y-120465809D01*
X177698285Y-120503904D01*
X177507809Y-120503904D01*
X177431619Y-120465809D01*
X177393523Y-120427714D01*
X156667333Y-120465809D02*
X156781619Y-120503904D01*
X156972095Y-120503904D01*
X157048285Y-120465809D01*
X157086380Y-120427714D01*
X157124476Y-120351523D01*
X157124476Y-120275333D01*
X157086380Y-120199142D01*
X157048285Y-120161047D01*
X156972095Y-120122952D01*
X156819714Y-120084857D01*
X156743523Y-120046761D01*
X156705428Y-120008666D01*
X156667333Y-119932476D01*
X156667333Y-119856285D01*
X156705428Y-119780095D01*
X156743523Y-119742000D01*
X156819714Y-119703904D01*
X157010190Y-119703904D01*
X157124476Y-119742000D01*
X157391142Y-119703904D02*
X157581619Y-120503904D01*
X157734000Y-119932476D01*
X157886380Y-120503904D01*
X158076857Y-119703904D01*
X158724476Y-119970571D02*
X158724476Y-120503904D01*
X158534000Y-119665809D02*
X158343523Y-120237238D01*
X158838761Y-120237238D01*
X175717333Y-101415809D02*
X175831619Y-101453904D01*
X176022095Y-101453904D01*
X176098285Y-101415809D01*
X176136380Y-101377714D01*
X176174476Y-101301523D01*
X176174476Y-101225333D01*
X176136380Y-101149142D01*
X176098285Y-101111047D01*
X176022095Y-101072952D01*
X175869714Y-101034857D01*
X175793523Y-100996761D01*
X175755428Y-100958666D01*
X175717333Y-100882476D01*
X175717333Y-100806285D01*
X175755428Y-100730095D01*
X175793523Y-100692000D01*
X175869714Y-100653904D01*
X176060190Y-100653904D01*
X176174476Y-100692000D01*
X176441142Y-100653904D02*
X176631619Y-101453904D01*
X176784000Y-100882476D01*
X176936380Y-101453904D01*
X177126857Y-100653904D01*
X177393523Y-100730095D02*
X177431619Y-100692000D01*
X177507809Y-100653904D01*
X177698285Y-100653904D01*
X177774476Y-100692000D01*
X177812571Y-100730095D01*
X177850666Y-100806285D01*
X177850666Y-100882476D01*
X177812571Y-100996761D01*
X177355428Y-101453904D01*
X177850666Y-101453904D01*
X156667333Y-101415809D02*
X156781619Y-101453904D01*
X156972095Y-101453904D01*
X157048285Y-101415809D01*
X157086380Y-101377714D01*
X157124476Y-101301523D01*
X157124476Y-101225333D01*
X157086380Y-101149142D01*
X157048285Y-101111047D01*
X156972095Y-101072952D01*
X156819714Y-101034857D01*
X156743523Y-100996761D01*
X156705428Y-100958666D01*
X156667333Y-100882476D01*
X156667333Y-100806285D01*
X156705428Y-100730095D01*
X156743523Y-100692000D01*
X156819714Y-100653904D01*
X157010190Y-100653904D01*
X157124476Y-100692000D01*
X157391142Y-100653904D02*
X157581619Y-101453904D01*
X157734000Y-100882476D01*
X157886380Y-101453904D01*
X158076857Y-100653904D01*
X158800666Y-101453904D02*
X158343523Y-101453904D01*
X158572095Y-101453904D02*
X158572095Y-100653904D01*
X158495904Y-100768190D01*
X158419714Y-100844380D01*
X158343523Y-100882476D01*
X170160952Y-89280952D02*
X170541904Y-89280952D01*
X169741904Y-89547619D02*
X170160952Y-89280952D01*
X169741904Y-89014285D01*
X170541904Y-88328571D02*
X170541904Y-88785714D01*
X170541904Y-88557142D02*
X169741904Y-88557142D01*
X169856190Y-88633333D01*
X169932380Y-88709523D01*
X169970476Y-88785714D01*
X204323904Y-95256285D02*
X203942952Y-95522952D01*
X204323904Y-95713428D02*
X203523904Y-95713428D01*
X203523904Y-95408666D01*
X203562000Y-95332476D01*
X203600095Y-95294380D01*
X203676285Y-95256285D01*
X203790571Y-95256285D01*
X203866761Y-95294380D01*
X203904857Y-95332476D01*
X203942952Y-95408666D01*
X203942952Y-95713428D01*
X204323904Y-94494380D02*
X204323904Y-94951523D01*
X204323904Y-94722952D02*
X203523904Y-94722952D01*
X203638190Y-94799142D01*
X203714380Y-94875333D01*
X203752476Y-94951523D01*
X203790571Y-93808666D02*
X204323904Y-93808666D01*
X203485809Y-93999142D02*
X204057238Y-94189619D01*
X204057238Y-93694380D01*
X186797904Y-98304285D02*
X186416952Y-98570952D01*
X186797904Y-98761428D02*
X185997904Y-98761428D01*
X185997904Y-98456666D01*
X186036000Y-98380476D01*
X186074095Y-98342380D01*
X186150285Y-98304285D01*
X186264571Y-98304285D01*
X186340761Y-98342380D01*
X186378857Y-98380476D01*
X186416952Y-98456666D01*
X186416952Y-98761428D01*
X186797904Y-97542380D02*
X186797904Y-97999523D01*
X186797904Y-97770952D02*
X185997904Y-97770952D01*
X186112190Y-97847142D01*
X186188380Y-97923333D01*
X186226476Y-97999523D01*
X185997904Y-97275714D02*
X185997904Y-96780476D01*
X186302666Y-97047142D01*
X186302666Y-96932857D01*
X186340761Y-96856666D01*
X186378857Y-96818571D01*
X186455047Y-96780476D01*
X186645523Y-96780476D01*
X186721714Y-96818571D01*
X186759809Y-96856666D01*
X186797904Y-96932857D01*
X186797904Y-97161428D01*
X186759809Y-97237619D01*
X186721714Y-97275714D01*
X167747904Y-98304285D02*
X167366952Y-98570952D01*
X167747904Y-98761428D02*
X166947904Y-98761428D01*
X166947904Y-98456666D01*
X166986000Y-98380476D01*
X167024095Y-98342380D01*
X167100285Y-98304285D01*
X167214571Y-98304285D01*
X167290761Y-98342380D01*
X167328857Y-98380476D01*
X167366952Y-98456666D01*
X167366952Y-98761428D01*
X167747904Y-97542380D02*
X167747904Y-97999523D01*
X167747904Y-97770952D02*
X166947904Y-97770952D01*
X167062190Y-97847142D01*
X167138380Y-97923333D01*
X167176476Y-97999523D01*
X167024095Y-97237619D02*
X166986000Y-97199523D01*
X166947904Y-97123333D01*
X166947904Y-96932857D01*
X166986000Y-96856666D01*
X167024095Y-96818571D01*
X167100285Y-96780476D01*
X167176476Y-96780476D01*
X167290761Y-96818571D01*
X167747904Y-97275714D01*
X167747904Y-96780476D01*
X187051904Y-87382285D02*
X186670952Y-87648952D01*
X187051904Y-87839428D02*
X186251904Y-87839428D01*
X186251904Y-87534666D01*
X186290000Y-87458476D01*
X186328095Y-87420380D01*
X186404285Y-87382285D01*
X186518571Y-87382285D01*
X186594761Y-87420380D01*
X186632857Y-87458476D01*
X186670952Y-87534666D01*
X186670952Y-87839428D01*
X187051904Y-86620380D02*
X187051904Y-87077523D01*
X187051904Y-86848952D02*
X186251904Y-86848952D01*
X186366190Y-86925142D01*
X186442380Y-87001333D01*
X186480476Y-87077523D01*
X187051904Y-85858476D02*
X187051904Y-86315619D01*
X187051904Y-86087047D02*
X186251904Y-86087047D01*
X186366190Y-86163238D01*
X186442380Y-86239428D01*
X186480476Y-86315619D01*
X186836250Y-71231560D02*
X186378314Y-71150748D01*
X186513001Y-71554809D02*
X185947316Y-70989123D01*
X186162815Y-70773624D01*
X186243627Y-70746687D01*
X186297502Y-70746687D01*
X186378314Y-70773624D01*
X186459126Y-70854436D01*
X186486064Y-70935248D01*
X186486064Y-70989123D01*
X186459126Y-71069935D01*
X186243627Y-71285435D01*
X187374998Y-70692812D02*
X187051749Y-71016061D01*
X187213374Y-70854436D02*
X186647688Y-70288751D01*
X186674625Y-70423438D01*
X186674625Y-70531187D01*
X186647688Y-70612000D01*
X187159499Y-69776940D02*
X187213374Y-69723065D01*
X187294186Y-69696128D01*
X187348061Y-69696128D01*
X187428873Y-69723065D01*
X187563560Y-69803877D01*
X187698247Y-69938564D01*
X187779059Y-70073251D01*
X187805996Y-70154064D01*
X187805996Y-70207938D01*
X187779059Y-70288751D01*
X187725184Y-70342625D01*
X187644372Y-70369563D01*
X187590497Y-70369563D01*
X187509685Y-70342625D01*
X187374998Y-70261813D01*
X187240311Y-70127126D01*
X187159499Y-69992439D01*
X187132561Y-69911627D01*
X187132561Y-69857752D01*
X187159499Y-69776940D01*
X193414666Y-88499904D02*
X193148000Y-88118952D01*
X192957523Y-88499904D02*
X192957523Y-87699904D01*
X193262285Y-87699904D01*
X193338476Y-87738000D01*
X193376571Y-87776095D01*
X193414666Y-87852285D01*
X193414666Y-87966571D01*
X193376571Y-88042761D01*
X193338476Y-88080857D01*
X193262285Y-88118952D01*
X192957523Y-88118952D01*
X193795619Y-88499904D02*
X193948000Y-88499904D01*
X194024190Y-88461809D01*
X194062285Y-88423714D01*
X194138476Y-88309428D01*
X194176571Y-88157047D01*
X194176571Y-87852285D01*
X194138476Y-87776095D01*
X194100380Y-87738000D01*
X194024190Y-87699904D01*
X193871809Y-87699904D01*
X193795619Y-87738000D01*
X193757523Y-87776095D01*
X193719428Y-87852285D01*
X193719428Y-88042761D01*
X193757523Y-88118952D01*
X193795619Y-88157047D01*
X193871809Y-88195142D01*
X194024190Y-88195142D01*
X194100380Y-88157047D01*
X194138476Y-88118952D01*
X194176571Y-88042761D01*
X167293624Y-71216186D02*
X166835688Y-71135374D01*
X166970375Y-71539435D02*
X166404690Y-70973749D01*
X166620189Y-70758250D01*
X166701001Y-70731312D01*
X166754876Y-70731312D01*
X166835688Y-70758250D01*
X166916500Y-70839062D01*
X166943438Y-70919874D01*
X166943438Y-70973749D01*
X166916500Y-71054561D01*
X166701001Y-71270061D01*
X167293624Y-70569688D02*
X167212812Y-70596625D01*
X167158937Y-70596625D01*
X167078125Y-70569688D01*
X167051187Y-70542751D01*
X167024250Y-70461938D01*
X167024250Y-70408064D01*
X167051187Y-70327251D01*
X167158937Y-70219502D01*
X167239749Y-70192564D01*
X167293624Y-70192564D01*
X167374436Y-70219502D01*
X167401374Y-70246439D01*
X167428311Y-70327251D01*
X167428311Y-70381126D01*
X167401374Y-70461938D01*
X167293624Y-70569688D01*
X167266687Y-70650500D01*
X167266687Y-70704375D01*
X167293624Y-70785187D01*
X167401374Y-70892937D01*
X167482186Y-70919874D01*
X167536061Y-70919874D01*
X167616873Y-70892937D01*
X167724622Y-70785187D01*
X167751560Y-70704375D01*
X167751560Y-70650500D01*
X167724622Y-70569688D01*
X167616873Y-70461938D01*
X167536061Y-70435001D01*
X167482186Y-70435001D01*
X167401374Y-70461938D01*
X168669904Y-84461333D02*
X168288952Y-84728000D01*
X168669904Y-84918476D02*
X167869904Y-84918476D01*
X167869904Y-84613714D01*
X167908000Y-84537523D01*
X167946095Y-84499428D01*
X168022285Y-84461333D01*
X168136571Y-84461333D01*
X168212761Y-84499428D01*
X168250857Y-84537523D01*
X168288952Y-84613714D01*
X168288952Y-84918476D01*
X167869904Y-84194666D02*
X167869904Y-83661333D01*
X168669904Y-84004190D01*
X155060666Y-71481904D02*
X154794000Y-71100952D01*
X154603523Y-71481904D02*
X154603523Y-70681904D01*
X154908285Y-70681904D01*
X154984476Y-70720000D01*
X155022571Y-70758095D01*
X155060666Y-70834285D01*
X155060666Y-70948571D01*
X155022571Y-71024761D01*
X154984476Y-71062857D01*
X154908285Y-71100952D01*
X154603523Y-71100952D01*
X155746380Y-70681904D02*
X155594000Y-70681904D01*
X155517809Y-70720000D01*
X155479714Y-70758095D01*
X155403523Y-70872380D01*
X155365428Y-71024761D01*
X155365428Y-71329523D01*
X155403523Y-71405714D01*
X155441619Y-71443809D01*
X155517809Y-71481904D01*
X155670190Y-71481904D01*
X155746380Y-71443809D01*
X155784476Y-71405714D01*
X155822571Y-71329523D01*
X155822571Y-71139047D01*
X155784476Y-71062857D01*
X155746380Y-71024761D01*
X155670190Y-70986666D01*
X155517809Y-70986666D01*
X155441619Y-71024761D01*
X155403523Y-71062857D01*
X155365428Y-71139047D01*
X156762571Y-104533904D02*
X156762571Y-103733904D01*
X156953047Y-103733904D01*
X157067333Y-103772000D01*
X157143523Y-103848190D01*
X157181619Y-103924380D01*
X157219714Y-104076761D01*
X157219714Y-104191047D01*
X157181619Y-104343428D01*
X157143523Y-104419619D01*
X157067333Y-104495809D01*
X156953047Y-104533904D01*
X156762571Y-104533904D01*
X157981619Y-104533904D02*
X157524476Y-104533904D01*
X157753047Y-104533904D02*
X157753047Y-103733904D01*
X157676857Y-103848190D01*
X157600666Y-103924380D01*
X157524476Y-103962476D01*
X158743523Y-104533904D02*
X158286380Y-104533904D01*
X158514952Y-104533904D02*
X158514952Y-103733904D01*
X158438761Y-103848190D01*
X158362571Y-103924380D01*
X158286380Y-103962476D01*
X194862571Y-142379904D02*
X194862571Y-141579904D01*
X195053047Y-141579904D01*
X195167333Y-141618000D01*
X195243523Y-141694190D01*
X195281619Y-141770380D01*
X195319714Y-141922761D01*
X195319714Y-142037047D01*
X195281619Y-142189428D01*
X195243523Y-142265619D01*
X195167333Y-142341809D01*
X195053047Y-142379904D01*
X194862571Y-142379904D01*
X196081619Y-142379904D02*
X195624476Y-142379904D01*
X195853047Y-142379904D02*
X195853047Y-141579904D01*
X195776857Y-141694190D01*
X195700666Y-141770380D01*
X195624476Y-141808476D01*
X196462571Y-142379904D02*
X196614952Y-142379904D01*
X196691142Y-142341809D01*
X196729238Y-142303714D01*
X196805428Y-142189428D01*
X196843523Y-142037047D01*
X196843523Y-141732285D01*
X196805428Y-141656095D01*
X196767333Y-141618000D01*
X196691142Y-141579904D01*
X196538761Y-141579904D01*
X196462571Y-141618000D01*
X196424476Y-141656095D01*
X196386380Y-141732285D01*
X196386380Y-141922761D01*
X196424476Y-141998952D01*
X196462571Y-142037047D01*
X196538761Y-142075142D01*
X196691142Y-142075142D01*
X196767333Y-142037047D01*
X196805428Y-141998952D01*
X196843523Y-141922761D01*
X175812571Y-142379904D02*
X175812571Y-141579904D01*
X176003047Y-141579904D01*
X176117333Y-141618000D01*
X176193523Y-141694190D01*
X176231619Y-141770380D01*
X176269714Y-141922761D01*
X176269714Y-142037047D01*
X176231619Y-142189428D01*
X176193523Y-142265619D01*
X176117333Y-142341809D01*
X176003047Y-142379904D01*
X175812571Y-142379904D01*
X177031619Y-142379904D02*
X176574476Y-142379904D01*
X176803047Y-142379904D02*
X176803047Y-141579904D01*
X176726857Y-141694190D01*
X176650666Y-141770380D01*
X176574476Y-141808476D01*
X177488761Y-141922761D02*
X177412571Y-141884666D01*
X177374476Y-141846571D01*
X177336380Y-141770380D01*
X177336380Y-141732285D01*
X177374476Y-141656095D01*
X177412571Y-141618000D01*
X177488761Y-141579904D01*
X177641142Y-141579904D01*
X177717333Y-141618000D01*
X177755428Y-141656095D01*
X177793523Y-141732285D01*
X177793523Y-141770380D01*
X177755428Y-141846571D01*
X177717333Y-141884666D01*
X177641142Y-141922761D01*
X177488761Y-141922761D01*
X177412571Y-141960857D01*
X177374476Y-141998952D01*
X177336380Y-142075142D01*
X177336380Y-142227523D01*
X177374476Y-142303714D01*
X177412571Y-142341809D01*
X177488761Y-142379904D01*
X177641142Y-142379904D01*
X177717333Y-142341809D01*
X177755428Y-142303714D01*
X177793523Y-142227523D01*
X177793523Y-142075142D01*
X177755428Y-141998952D01*
X177717333Y-141960857D01*
X177641142Y-141922761D01*
X156762571Y-142379904D02*
X156762571Y-141579904D01*
X156953047Y-141579904D01*
X157067333Y-141618000D01*
X157143523Y-141694190D01*
X157181619Y-141770380D01*
X157219714Y-141922761D01*
X157219714Y-142037047D01*
X157181619Y-142189428D01*
X157143523Y-142265619D01*
X157067333Y-142341809D01*
X156953047Y-142379904D01*
X156762571Y-142379904D01*
X157981619Y-142379904D02*
X157524476Y-142379904D01*
X157753047Y-142379904D02*
X157753047Y-141579904D01*
X157676857Y-141694190D01*
X157600666Y-141770380D01*
X157524476Y-141808476D01*
X158248285Y-141579904D02*
X158781619Y-141579904D01*
X158438761Y-142379904D01*
X194862571Y-123583904D02*
X194862571Y-122783904D01*
X195053047Y-122783904D01*
X195167333Y-122822000D01*
X195243523Y-122898190D01*
X195281619Y-122974380D01*
X195319714Y-123126761D01*
X195319714Y-123241047D01*
X195281619Y-123393428D01*
X195243523Y-123469619D01*
X195167333Y-123545809D01*
X195053047Y-123583904D01*
X194862571Y-123583904D01*
X196081619Y-123583904D02*
X195624476Y-123583904D01*
X195853047Y-123583904D02*
X195853047Y-122783904D01*
X195776857Y-122898190D01*
X195700666Y-122974380D01*
X195624476Y-123012476D01*
X196767333Y-122783904D02*
X196614952Y-122783904D01*
X196538761Y-122822000D01*
X196500666Y-122860095D01*
X196424476Y-122974380D01*
X196386380Y-123126761D01*
X196386380Y-123431523D01*
X196424476Y-123507714D01*
X196462571Y-123545809D01*
X196538761Y-123583904D01*
X196691142Y-123583904D01*
X196767333Y-123545809D01*
X196805428Y-123507714D01*
X196843523Y-123431523D01*
X196843523Y-123241047D01*
X196805428Y-123164857D01*
X196767333Y-123126761D01*
X196691142Y-123088666D01*
X196538761Y-123088666D01*
X196462571Y-123126761D01*
X196424476Y-123164857D01*
X196386380Y-123241047D01*
X175812571Y-123583904D02*
X175812571Y-122783904D01*
X176003047Y-122783904D01*
X176117333Y-122822000D01*
X176193523Y-122898190D01*
X176231619Y-122974380D01*
X176269714Y-123126761D01*
X176269714Y-123241047D01*
X176231619Y-123393428D01*
X176193523Y-123469619D01*
X176117333Y-123545809D01*
X176003047Y-123583904D01*
X175812571Y-123583904D01*
X177031619Y-123583904D02*
X176574476Y-123583904D01*
X176803047Y-123583904D02*
X176803047Y-122783904D01*
X176726857Y-122898190D01*
X176650666Y-122974380D01*
X176574476Y-123012476D01*
X177755428Y-122783904D02*
X177374476Y-122783904D01*
X177336380Y-123164857D01*
X177374476Y-123126761D01*
X177450666Y-123088666D01*
X177641142Y-123088666D01*
X177717333Y-123126761D01*
X177755428Y-123164857D01*
X177793523Y-123241047D01*
X177793523Y-123431523D01*
X177755428Y-123507714D01*
X177717333Y-123545809D01*
X177641142Y-123583904D01*
X177450666Y-123583904D01*
X177374476Y-123545809D01*
X177336380Y-123507714D01*
X156762571Y-123583904D02*
X156762571Y-122783904D01*
X156953047Y-122783904D01*
X157067333Y-122822000D01*
X157143523Y-122898190D01*
X157181619Y-122974380D01*
X157219714Y-123126761D01*
X157219714Y-123241047D01*
X157181619Y-123393428D01*
X157143523Y-123469619D01*
X157067333Y-123545809D01*
X156953047Y-123583904D01*
X156762571Y-123583904D01*
X157981619Y-123583904D02*
X157524476Y-123583904D01*
X157753047Y-123583904D02*
X157753047Y-122783904D01*
X157676857Y-122898190D01*
X157600666Y-122974380D01*
X157524476Y-123012476D01*
X158667333Y-123050571D02*
X158667333Y-123583904D01*
X158476857Y-122745809D02*
X158286380Y-123317238D01*
X158781619Y-123317238D01*
X194862571Y-104533904D02*
X194862571Y-103733904D01*
X195053047Y-103733904D01*
X195167333Y-103772000D01*
X195243523Y-103848190D01*
X195281619Y-103924380D01*
X195319714Y-104076761D01*
X195319714Y-104191047D01*
X195281619Y-104343428D01*
X195243523Y-104419619D01*
X195167333Y-104495809D01*
X195053047Y-104533904D01*
X194862571Y-104533904D01*
X196081619Y-104533904D02*
X195624476Y-104533904D01*
X195853047Y-104533904D02*
X195853047Y-103733904D01*
X195776857Y-103848190D01*
X195700666Y-103924380D01*
X195624476Y-103962476D01*
X196348285Y-103733904D02*
X196843523Y-103733904D01*
X196576857Y-104038666D01*
X196691142Y-104038666D01*
X196767333Y-104076761D01*
X196805428Y-104114857D01*
X196843523Y-104191047D01*
X196843523Y-104381523D01*
X196805428Y-104457714D01*
X196767333Y-104495809D01*
X196691142Y-104533904D01*
X196462571Y-104533904D01*
X196386380Y-104495809D01*
X196348285Y-104457714D01*
X175812571Y-104533904D02*
X175812571Y-103733904D01*
X176003047Y-103733904D01*
X176117333Y-103772000D01*
X176193523Y-103848190D01*
X176231619Y-103924380D01*
X176269714Y-104076761D01*
X176269714Y-104191047D01*
X176231619Y-104343428D01*
X176193523Y-104419619D01*
X176117333Y-104495809D01*
X176003047Y-104533904D01*
X175812571Y-104533904D01*
X177031619Y-104533904D02*
X176574476Y-104533904D01*
X176803047Y-104533904D02*
X176803047Y-103733904D01*
X176726857Y-103848190D01*
X176650666Y-103924380D01*
X176574476Y-103962476D01*
X177336380Y-103810095D02*
X177374476Y-103772000D01*
X177450666Y-103733904D01*
X177641142Y-103733904D01*
X177717333Y-103772000D01*
X177755428Y-103810095D01*
X177793523Y-103886285D01*
X177793523Y-103962476D01*
X177755428Y-104076761D01*
X177298285Y-104533904D01*
X177793523Y-104533904D01*
X188499714Y-87382285D02*
X188537809Y-87420380D01*
X188575904Y-87534666D01*
X188575904Y-87610857D01*
X188537809Y-87725142D01*
X188461619Y-87801333D01*
X188385428Y-87839428D01*
X188233047Y-87877523D01*
X188118761Y-87877523D01*
X187966380Y-87839428D01*
X187890190Y-87801333D01*
X187814000Y-87725142D01*
X187775904Y-87610857D01*
X187775904Y-87534666D01*
X187814000Y-87420380D01*
X187852095Y-87382285D01*
X188575904Y-86620380D02*
X188575904Y-87077523D01*
X188575904Y-86848952D02*
X187775904Y-86848952D01*
X187890190Y-86925142D01*
X187966380Y-87001333D01*
X188004476Y-87077523D01*
X187852095Y-86315619D02*
X187814000Y-86277523D01*
X187775904Y-86201333D01*
X187775904Y-86010857D01*
X187814000Y-85934666D01*
X187852095Y-85896571D01*
X187928285Y-85858476D01*
X188004476Y-85858476D01*
X188118761Y-85896571D01*
X188575904Y-86353714D01*
X188575904Y-85858476D01*
X188560375Y-71177685D02*
X188560375Y-71231560D01*
X188506500Y-71339309D01*
X188452625Y-71393184D01*
X188344876Y-71447059D01*
X188237126Y-71447059D01*
X188156314Y-71420122D01*
X188021627Y-71339309D01*
X187940815Y-71258497D01*
X187860003Y-71123810D01*
X187833065Y-71042998D01*
X187833065Y-70935248D01*
X187886940Y-70827499D01*
X187940815Y-70773624D01*
X188048564Y-70719749D01*
X188102439Y-70719749D01*
X189152998Y-70692812D02*
X188829749Y-71016061D01*
X188991374Y-70854436D02*
X188425688Y-70288751D01*
X188452625Y-70423438D01*
X188452625Y-70531187D01*
X188425688Y-70612000D01*
X189691746Y-70154064D02*
X189368497Y-70477312D01*
X189530122Y-70315688D02*
X188964436Y-69750003D01*
X188991374Y-69884690D01*
X188991374Y-69992439D01*
X188964436Y-70073251D01*
X165446375Y-71177685D02*
X165446375Y-71231560D01*
X165392500Y-71339309D01*
X165338625Y-71393184D01*
X165230876Y-71447059D01*
X165123126Y-71447059D01*
X165042314Y-71420122D01*
X164907627Y-71339309D01*
X164826815Y-71258497D01*
X164746003Y-71123810D01*
X164719065Y-71042998D01*
X164719065Y-70935248D01*
X164772940Y-70827499D01*
X164826815Y-70773624D01*
X164934564Y-70719749D01*
X164988439Y-70719749D01*
X166038998Y-70692812D02*
X165715749Y-71016061D01*
X165877374Y-70854436D02*
X165311688Y-70288751D01*
X165338625Y-70423438D01*
X165338625Y-70531187D01*
X165311688Y-70612000D01*
X165823499Y-69776940D02*
X165877374Y-69723065D01*
X165958186Y-69696128D01*
X166012061Y-69696128D01*
X166092873Y-69723065D01*
X166227560Y-69803877D01*
X166362247Y-69938564D01*
X166443059Y-70073251D01*
X166469996Y-70154064D01*
X166469996Y-70207938D01*
X166443059Y-70288751D01*
X166389184Y-70342625D01*
X166308372Y-70369563D01*
X166254497Y-70369563D01*
X166173685Y-70342625D01*
X166038998Y-70261813D01*
X165904311Y-70127126D01*
X165823499Y-69992439D01*
X165796561Y-69911627D01*
X165796561Y-69857752D01*
X165823499Y-69776940D01*
X164115714Y-84461333D02*
X164153809Y-84499428D01*
X164191904Y-84613714D01*
X164191904Y-84689904D01*
X164153809Y-84804190D01*
X164077619Y-84880380D01*
X164001428Y-84918476D01*
X163849047Y-84956571D01*
X163734761Y-84956571D01*
X163582380Y-84918476D01*
X163506190Y-84880380D01*
X163430000Y-84804190D01*
X163391904Y-84689904D01*
X163391904Y-84613714D01*
X163430000Y-84499428D01*
X163468095Y-84461333D01*
X164191904Y-84080380D02*
X164191904Y-83928000D01*
X164153809Y-83851809D01*
X164115714Y-83813714D01*
X164001428Y-83737523D01*
X163849047Y-83699428D01*
X163544285Y-83699428D01*
X163468095Y-83737523D01*
X163430000Y-83775619D01*
X163391904Y-83851809D01*
X163391904Y-84004190D01*
X163430000Y-84080380D01*
X163468095Y-84118476D01*
X163544285Y-84156571D01*
X163734761Y-84156571D01*
X163810952Y-84118476D01*
X163849047Y-84080380D01*
X163887142Y-84004190D01*
X163887142Y-83851809D01*
X163849047Y-83775619D01*
X163810952Y-83737523D01*
X163734761Y-83699428D01*
X186556666Y-91039904D02*
X186290000Y-90658952D01*
X186099523Y-91039904D02*
X186099523Y-90239904D01*
X186404285Y-90239904D01*
X186480476Y-90278000D01*
X186518571Y-90316095D01*
X186556666Y-90392285D01*
X186556666Y-90506571D01*
X186518571Y-90582761D01*
X186480476Y-90620857D01*
X186404285Y-90658952D01*
X186099523Y-90658952D01*
X186823333Y-90239904D02*
X187318571Y-90239904D01*
X187051904Y-90544666D01*
X187166190Y-90544666D01*
X187242380Y-90582761D01*
X187280476Y-90620857D01*
X187318571Y-90697047D01*
X187318571Y-90887523D01*
X187280476Y-90963714D01*
X187242380Y-91001809D01*
X187166190Y-91039904D01*
X186937619Y-91039904D01*
X186861428Y-91001809D01*
X186823333Y-90963714D01*
X169321812Y-72297624D02*
X169402624Y-71839688D01*
X168998563Y-71974375D02*
X169564249Y-71408690D01*
X169779748Y-71624189D01*
X169806686Y-71705001D01*
X169806686Y-71758876D01*
X169779748Y-71839688D01*
X169698936Y-71920500D01*
X169618124Y-71947438D01*
X169564249Y-71947438D01*
X169483437Y-71920500D01*
X169267937Y-71705001D01*
X170049122Y-72001312D02*
X170102997Y-72001312D01*
X170183809Y-72028250D01*
X170318496Y-72162937D01*
X170345434Y-72243749D01*
X170345434Y-72297624D01*
X170318496Y-72378436D01*
X170264621Y-72432311D01*
X170156872Y-72486186D01*
X169510374Y-72486186D01*
X169860560Y-72836372D01*
X168305813Y-73313623D02*
X168386625Y-72855687D01*
X167982564Y-72990374D02*
X168548250Y-72424689D01*
X168763749Y-72640188D01*
X168790687Y-72721000D01*
X168790687Y-72774875D01*
X168763749Y-72855687D01*
X168682937Y-72936499D01*
X168602125Y-72963437D01*
X168548250Y-72963437D01*
X168467438Y-72936499D01*
X168251938Y-72721000D01*
X168844561Y-73852371D02*
X168521312Y-73529122D01*
X168682937Y-73690747D02*
X169248622Y-73125061D01*
X169113935Y-73151999D01*
X169006186Y-73151999D01*
X168925374Y-73125061D01*
X183927714Y-77857333D02*
X183965809Y-77895428D01*
X184003904Y-78009714D01*
X184003904Y-78085904D01*
X183965809Y-78200190D01*
X183889619Y-78276380D01*
X183813428Y-78314476D01*
X183661047Y-78352571D01*
X183546761Y-78352571D01*
X183394380Y-78314476D01*
X183318190Y-78276380D01*
X183242000Y-78200190D01*
X183203904Y-78085904D01*
X183203904Y-78009714D01*
X183242000Y-77895428D01*
X183280095Y-77857333D01*
X183203904Y-77133523D02*
X183203904Y-77514476D01*
X183584857Y-77552571D01*
X183546761Y-77514476D01*
X183508666Y-77438285D01*
X183508666Y-77247809D01*
X183546761Y-77171619D01*
X183584857Y-77133523D01*
X183661047Y-77095428D01*
X183851523Y-77095428D01*
X183927714Y-77133523D01*
X183965809Y-77171619D01*
X184003904Y-77247809D01*
X184003904Y-77438285D01*
X183965809Y-77514476D01*
X183927714Y-77552571D01*
X168268666Y-79025714D02*
X168230571Y-79063809D01*
X168116285Y-79101904D01*
X168040095Y-79101904D01*
X167925809Y-79063809D01*
X167849619Y-78987619D01*
X167811523Y-78911428D01*
X167773428Y-78759047D01*
X167773428Y-78644761D01*
X167811523Y-78492380D01*
X167849619Y-78416190D01*
X167925809Y-78340000D01*
X168040095Y-78301904D01*
X168116285Y-78301904D01*
X168230571Y-78340000D01*
X168268666Y-78378095D01*
X168954380Y-78568571D02*
X168954380Y-79101904D01*
X168763904Y-78263809D02*
X168573428Y-78835238D01*
X169068666Y-78835238D01*
X184270666Y-74453714D02*
X184232571Y-74491809D01*
X184118285Y-74529904D01*
X184042095Y-74529904D01*
X183927809Y-74491809D01*
X183851619Y-74415619D01*
X183813523Y-74339428D01*
X183775428Y-74187047D01*
X183775428Y-74072761D01*
X183813523Y-73920380D01*
X183851619Y-73844190D01*
X183927809Y-73768000D01*
X184042095Y-73729904D01*
X184118285Y-73729904D01*
X184232571Y-73768000D01*
X184270666Y-73806095D01*
X184537333Y-73729904D02*
X185032571Y-73729904D01*
X184765904Y-74034666D01*
X184880190Y-74034666D01*
X184956380Y-74072761D01*
X184994476Y-74110857D01*
X185032571Y-74187047D01*
X185032571Y-74377523D01*
X184994476Y-74453714D01*
X184956380Y-74491809D01*
X184880190Y-74529904D01*
X184651619Y-74529904D01*
X184575428Y-74491809D01*
X184537333Y-74453714D01*
X164115714Y-89033333D02*
X164153809Y-89071428D01*
X164191904Y-89185714D01*
X164191904Y-89261904D01*
X164153809Y-89376190D01*
X164077619Y-89452380D01*
X164001428Y-89490476D01*
X163849047Y-89528571D01*
X163734761Y-89528571D01*
X163582380Y-89490476D01*
X163506190Y-89452380D01*
X163430000Y-89376190D01*
X163391904Y-89261904D01*
X163391904Y-89185714D01*
X163430000Y-89071428D01*
X163468095Y-89033333D01*
X163468095Y-88728571D02*
X163430000Y-88690476D01*
X163391904Y-88614285D01*
X163391904Y-88423809D01*
X163430000Y-88347619D01*
X163468095Y-88309523D01*
X163544285Y-88271428D01*
X163620476Y-88271428D01*
X163734761Y-88309523D01*
X164191904Y-88766666D01*
X164191904Y-88271428D01*
X167760666Y-93503714D02*
X167722571Y-93541809D01*
X167608285Y-93579904D01*
X167532095Y-93579904D01*
X167417809Y-93541809D01*
X167341619Y-93465619D01*
X167303523Y-93389428D01*
X167265428Y-93237047D01*
X167265428Y-93122761D01*
X167303523Y-92970380D01*
X167341619Y-92894190D01*
X167417809Y-92818000D01*
X167532095Y-92779904D01*
X167608285Y-92779904D01*
X167722571Y-92818000D01*
X167760666Y-92856095D01*
X168522571Y-93579904D02*
X168065428Y-93579904D01*
X168294000Y-93579904D02*
X168294000Y-92779904D01*
X168217809Y-92894190D01*
X168141619Y-92970380D01*
X168065428Y-93008476D01*
X176444333Y-67633904D02*
X176444333Y-68205333D01*
X176406238Y-68319619D01*
X176330047Y-68395809D01*
X176215761Y-68433904D01*
X176139571Y-68433904D01*
X177244333Y-68433904D02*
X176787190Y-68433904D01*
X177015761Y-68433904D02*
X177015761Y-67633904D01*
X176939571Y-67748190D01*
X176863380Y-67824380D01*
X176787190Y-67862476D01*
X195243523Y-128911904D02*
X195243523Y-128111904D01*
X195434000Y-128111904D01*
X195548285Y-128150000D01*
X195624476Y-128226190D01*
X195662571Y-128302380D01*
X195700666Y-128454761D01*
X195700666Y-128569047D01*
X195662571Y-128721428D01*
X195624476Y-128797619D01*
X195548285Y-128873809D01*
X195434000Y-128911904D01*
X195243523Y-128911904D01*
X196081619Y-128911904D02*
X196234000Y-128911904D01*
X196310190Y-128873809D01*
X196348285Y-128835714D01*
X196424476Y-128721428D01*
X196462571Y-128569047D01*
X196462571Y-128264285D01*
X196424476Y-128188095D01*
X196386380Y-128150000D01*
X196310190Y-128111904D01*
X196157809Y-128111904D01*
X196081619Y-128150000D01*
X196043523Y-128188095D01*
X196005428Y-128264285D01*
X196005428Y-128454761D01*
X196043523Y-128530952D01*
X196081619Y-128569047D01*
X196157809Y-128607142D01*
X196310190Y-128607142D01*
X196386380Y-128569047D01*
X196424476Y-128530952D01*
X196462571Y-128454761D01*
X176193523Y-128911904D02*
X176193523Y-128111904D01*
X176384000Y-128111904D01*
X176498285Y-128150000D01*
X176574476Y-128226190D01*
X176612571Y-128302380D01*
X176650666Y-128454761D01*
X176650666Y-128569047D01*
X176612571Y-128721428D01*
X176574476Y-128797619D01*
X176498285Y-128873809D01*
X176384000Y-128911904D01*
X176193523Y-128911904D01*
X177107809Y-128454761D02*
X177031619Y-128416666D01*
X176993523Y-128378571D01*
X176955428Y-128302380D01*
X176955428Y-128264285D01*
X176993523Y-128188095D01*
X177031619Y-128150000D01*
X177107809Y-128111904D01*
X177260190Y-128111904D01*
X177336380Y-128150000D01*
X177374476Y-128188095D01*
X177412571Y-128264285D01*
X177412571Y-128302380D01*
X177374476Y-128378571D01*
X177336380Y-128416666D01*
X177260190Y-128454761D01*
X177107809Y-128454761D01*
X177031619Y-128492857D01*
X176993523Y-128530952D01*
X176955428Y-128607142D01*
X176955428Y-128759523D01*
X176993523Y-128835714D01*
X177031619Y-128873809D01*
X177107809Y-128911904D01*
X177260190Y-128911904D01*
X177336380Y-128873809D01*
X177374476Y-128835714D01*
X177412571Y-128759523D01*
X177412571Y-128607142D01*
X177374476Y-128530952D01*
X177336380Y-128492857D01*
X177260190Y-128454761D01*
X157143523Y-128911904D02*
X157143523Y-128111904D01*
X157334000Y-128111904D01*
X157448285Y-128150000D01*
X157524476Y-128226190D01*
X157562571Y-128302380D01*
X157600666Y-128454761D01*
X157600666Y-128569047D01*
X157562571Y-128721428D01*
X157524476Y-128797619D01*
X157448285Y-128873809D01*
X157334000Y-128911904D01*
X157143523Y-128911904D01*
X157867333Y-128111904D02*
X158400666Y-128111904D01*
X158057809Y-128911904D01*
X195243523Y-109861904D02*
X195243523Y-109061904D01*
X195434000Y-109061904D01*
X195548285Y-109100000D01*
X195624476Y-109176190D01*
X195662571Y-109252380D01*
X195700666Y-109404761D01*
X195700666Y-109519047D01*
X195662571Y-109671428D01*
X195624476Y-109747619D01*
X195548285Y-109823809D01*
X195434000Y-109861904D01*
X195243523Y-109861904D01*
X196386380Y-109061904D02*
X196234000Y-109061904D01*
X196157809Y-109100000D01*
X196119714Y-109138095D01*
X196043523Y-109252380D01*
X196005428Y-109404761D01*
X196005428Y-109709523D01*
X196043523Y-109785714D01*
X196081619Y-109823809D01*
X196157809Y-109861904D01*
X196310190Y-109861904D01*
X196386380Y-109823809D01*
X196424476Y-109785714D01*
X196462571Y-109709523D01*
X196462571Y-109519047D01*
X196424476Y-109442857D01*
X196386380Y-109404761D01*
X196310190Y-109366666D01*
X196157809Y-109366666D01*
X196081619Y-109404761D01*
X196043523Y-109442857D01*
X196005428Y-109519047D01*
X176193523Y-109861904D02*
X176193523Y-109061904D01*
X176384000Y-109061904D01*
X176498285Y-109100000D01*
X176574476Y-109176190D01*
X176612571Y-109252380D01*
X176650666Y-109404761D01*
X176650666Y-109519047D01*
X176612571Y-109671428D01*
X176574476Y-109747619D01*
X176498285Y-109823809D01*
X176384000Y-109861904D01*
X176193523Y-109861904D01*
X177374476Y-109061904D02*
X176993523Y-109061904D01*
X176955428Y-109442857D01*
X176993523Y-109404761D01*
X177069714Y-109366666D01*
X177260190Y-109366666D01*
X177336380Y-109404761D01*
X177374476Y-109442857D01*
X177412571Y-109519047D01*
X177412571Y-109709523D01*
X177374476Y-109785714D01*
X177336380Y-109823809D01*
X177260190Y-109861904D01*
X177069714Y-109861904D01*
X176993523Y-109823809D01*
X176955428Y-109785714D01*
X157143523Y-109861904D02*
X157143523Y-109061904D01*
X157334000Y-109061904D01*
X157448285Y-109100000D01*
X157524476Y-109176190D01*
X157562571Y-109252380D01*
X157600666Y-109404761D01*
X157600666Y-109519047D01*
X157562571Y-109671428D01*
X157524476Y-109747619D01*
X157448285Y-109823809D01*
X157334000Y-109861904D01*
X157143523Y-109861904D01*
X158286380Y-109328571D02*
X158286380Y-109861904D01*
X158095904Y-109023809D02*
X157905428Y-109595238D01*
X158400666Y-109595238D01*
X195243523Y-90811904D02*
X195243523Y-90011904D01*
X195434000Y-90011904D01*
X195548285Y-90050000D01*
X195624476Y-90126190D01*
X195662571Y-90202380D01*
X195700666Y-90354761D01*
X195700666Y-90469047D01*
X195662571Y-90621428D01*
X195624476Y-90697619D01*
X195548285Y-90773809D01*
X195434000Y-90811904D01*
X195243523Y-90811904D01*
X195967333Y-90011904D02*
X196462571Y-90011904D01*
X196195904Y-90316666D01*
X196310190Y-90316666D01*
X196386380Y-90354761D01*
X196424476Y-90392857D01*
X196462571Y-90469047D01*
X196462571Y-90659523D01*
X196424476Y-90735714D01*
X196386380Y-90773809D01*
X196310190Y-90811904D01*
X196081619Y-90811904D01*
X196005428Y-90773809D01*
X195967333Y-90735714D01*
X157143523Y-90811904D02*
X157143523Y-90011904D01*
X157334000Y-90011904D01*
X157448285Y-90050000D01*
X157524476Y-90126190D01*
X157562571Y-90202380D01*
X157600666Y-90354761D01*
X157600666Y-90469047D01*
X157562571Y-90621428D01*
X157524476Y-90697619D01*
X157448285Y-90773809D01*
X157334000Y-90811904D01*
X157143523Y-90811904D01*
X158362571Y-90811904D02*
X157905428Y-90811904D01*
X158134000Y-90811904D02*
X158134000Y-90011904D01*
X158057809Y-90126190D01*
X157981619Y-90202380D01*
X157905428Y-90240476D01*
X176193523Y-90811904D02*
X176193523Y-90011904D01*
X176384000Y-90011904D01*
X176498285Y-90050000D01*
X176574476Y-90126190D01*
X176612571Y-90202380D01*
X176650666Y-90354761D01*
X176650666Y-90469047D01*
X176612571Y-90621428D01*
X176574476Y-90697619D01*
X176498285Y-90773809D01*
X176384000Y-90811904D01*
X176193523Y-90811904D01*
X176955428Y-90088095D02*
X176993523Y-90050000D01*
X177069714Y-90011904D01*
X177260190Y-90011904D01*
X177336380Y-90050000D01*
X177374476Y-90088095D01*
X177412571Y-90164285D01*
X177412571Y-90240476D01*
X177374476Y-90354761D01*
X176917333Y-90811904D01*
X177412571Y-90811904D01*
X176174476Y-81349904D02*
X176174476Y-81997523D01*
X176212571Y-82073714D01*
X176250666Y-82111809D01*
X176326857Y-82149904D01*
X176479238Y-82149904D01*
X176555428Y-82111809D01*
X176593523Y-82073714D01*
X176631619Y-81997523D01*
X176631619Y-81349904D01*
X177431619Y-82149904D02*
X176974476Y-82149904D01*
X177203047Y-82149904D02*
X177203047Y-81349904D01*
X177126857Y-81464190D01*
X177050666Y-81540380D01*
X176974476Y-81578476D01*
X157035619Y-78682857D02*
X157302285Y-78682857D01*
X157416571Y-79101904D02*
X157035619Y-79101904D01*
X157035619Y-78301904D01*
X157416571Y-78301904D01*
X158216571Y-79025714D02*
X158178476Y-79063809D01*
X158064190Y-79101904D01*
X157988000Y-79101904D01*
X157873714Y-79063809D01*
X157797523Y-78987619D01*
X157759428Y-78911428D01*
X157721333Y-78759047D01*
X157721333Y-78644761D01*
X157759428Y-78492380D01*
X157797523Y-78416190D01*
X157873714Y-78340000D01*
X157988000Y-78301904D01*
X158064190Y-78301904D01*
X158178476Y-78340000D01*
X158216571Y-78378095D01*
X158978476Y-79101904D02*
X158521333Y-79101904D01*
X158749904Y-79101904D02*
X158749904Y-78301904D01*
X158673714Y-78416190D01*
X158597523Y-78492380D01*
X158521333Y-78530476D01*
M02*
