M48
; DRILL file {KiCad (5.1.9)-1} date 03/09/21 14:09:53
; FORMAT={-:-/ absolute / inch / decimal}
; #@! TF.CreationDate,2021-03-09T14:09:53+01:00
; #@! TF.GenerationSoftware,Kicad,Pcbnew,(5.1.9)-1
; #@! TF.FileFunction,Plated,1,2,PTH
FMAT,2
INCH
T1C0.0118
T2C0.0157
T3C0.0236
T4C0.0354
T5C0.0394
T6C0.0591
%
G90
G05
T1
X6.32Y-4.18
X6.32Y-4.93
X6.32Y-5.67
X6.45Y-2.84
X6.5Y-3.62
X6.59Y-3.21
X6.59Y-3.67
X6.6Y-2.97
X6.63Y-2.86
X6.63Y-3.15
X6.65Y-4.14
X6.68Y-4.89
X6.69Y-3.1
X6.7Y-3.44
X6.71Y-3.38
X6.71Y-5.63
X6.74Y-3.77
X6.7609Y-3.2509
X6.79Y-3.2
X6.79Y-3.77
X6.87Y-4.28
X6.88Y-3.11
X6.9Y-3.96
X6.96Y-3.53
X6.98Y-2.74
X7.01Y-2.89
X7.05Y-3.79
X7.07Y-2.93
X7.07Y-4.18
X7.07Y-4.93
X7.07Y-5.67
X7.08Y-3.14
X7.08Y-3.69
X7.09Y-3.55
X7.1091Y-3.17
X7.1136Y-3.21
X7.12Y-3.5
X7.13Y-3.54
X7.13Y-3.79
X7.19Y-3.53
X7.22Y-3.91
X7.23Y-3.07
X7.24Y-2.86
X7.2463Y-3.6863
X7.26Y-3.24
X7.26Y-3.35
X7.3Y-3.58
X7.31Y-3.45
X7.32Y-2.96
X7.43Y-2.79
X7.43Y-3.41
X7.43Y-3.59
X7.43Y-5.23
X7.47Y-3.35
X7.5Y-2.84
X7.82Y-4.18
X7.82Y-4.93
X7.82Y-5.67
T2
X6.8429Y-2.7869
X6.8429Y-2.84
X6.8763Y-2.7869
X6.8763Y-2.84
X6.9098Y-2.7869
X6.9098Y-2.84
X6.9433Y-2.7869
X6.9433Y-2.84
X6.9767Y-2.7869
X6.9767Y-2.84
X7.0102Y-2.7869
X7.0102Y-2.84
X7.0437Y-2.7869
X7.0437Y-2.84
X7.0771Y-2.7869
X7.0771Y-2.84
T4
X6.16Y-3.65
X6.16Y-4.4
X6.16Y-5.15
X6.26Y-3.65
X6.26Y-4.4
X6.26Y-5.15
X6.91Y-3.65
X6.91Y-4.4
X6.91Y-5.15
X7.01Y-3.65
X7.01Y-4.4
X7.01Y-5.15
X7.66Y-3.65
X7.66Y-4.4
X7.66Y-5.15
X7.76Y-3.65
X7.76Y-4.4
X7.76Y-5.15
T5
X5.9391Y-3.0031
X5.9391Y-3.2
X6.51Y-3.0031
X6.51Y-3.1016
X6.51Y-3.2
X7.41Y-3.0
X7.41Y-3.0984
X7.41Y-3.1969
X7.9809Y-3.0
X7.9809Y-3.1969
T6
X6.11Y-4.05
X6.11Y-4.8
X6.11Y-5.55
X6.36Y-3.95
X6.36Y-4.7
X6.36Y-5.45
X6.86Y-4.05
X6.86Y-4.8
X6.86Y-5.55
X7.11Y-3.95
X7.11Y-4.7
X7.11Y-5.45
X7.61Y-4.05
X7.61Y-4.8
X7.61Y-5.55
X7.86Y-3.95
X7.86Y-4.7
X7.86Y-5.45
T3
G00X6.7897Y-2.6841
M15
G01X6.7897Y-2.6526
M16
G05
G00X6.7897Y-2.8309
M15
G01X6.7897Y-2.7719
M16
G05
G00X7.1303Y-2.6841
M15
G01X7.1303Y-2.6526
M16
G05
G00X7.1303Y-2.8309
M15
G01X7.1303Y-2.7719
M16
G05
T6
G00X6.2403Y-2.8811
M15
G01X6.1891Y-2.8811
M16
G05
G00X6.2403Y-3.322
M15
G01X6.1891Y-3.322
M16
G05
G00X7.6797Y-2.878
M15
G01X7.7309Y-2.878
M16
G05
G00X7.6797Y-3.3189
M15
G01X7.7309Y-3.3189
M16
G05
T0
M30
