M48
; DRILL file {KiCad (5.1.9)-1} date 03/09/21 14:09:53
; FORMAT={-:-/ absolute / inch / decimal}
; #@! TF.CreationDate,2021-03-09T14:09:53+01:00
; #@! TF.GenerationSoftware,Kicad,Pcbnew,(5.1.9)-1
; #@! TF.FileFunction,NonPlated,1,2,NPTH
FMAT,2
INCH
T1C0.0390
T2C0.0669
T3C0.0984
T4C0.1575
%
G90
G05
T1
X6.18Y-3.42
X6.18Y-3.5
X6.38Y-3.46
T2
X6.01Y-3.85
X6.01Y-4.6
X6.01Y-5.35
X6.41Y-3.85
X6.41Y-4.6
X6.41Y-5.35
X6.76Y-3.85
X6.76Y-4.6
X6.76Y-5.35
X7.16Y-3.85
X7.16Y-4.6
X7.16Y-5.35
X7.51Y-3.85
X7.51Y-4.6
X7.51Y-5.35
X7.91Y-3.85
X7.91Y-4.6
X7.91Y-5.35
T3
X5.97Y-3.45
X6.59Y-4.23
X6.59Y-4.97
X7.33Y-4.23
X7.33Y-4.97
X7.95Y-3.45
T4
X6.21Y-3.85
X6.21Y-4.6
X6.21Y-5.35
X6.96Y-3.85
X6.96Y-4.6
X6.96Y-5.35
X7.71Y-3.85
X7.71Y-4.6
X7.71Y-5.35
T0
M30
