G04 #@! TF.GenerationSoftware,KiCad,Pcbnew,(5.1.9)-1*
G04 #@! TF.CreationDate,2021-03-09T14:09:52+01:00*
G04 #@! TF.ProjectId,OpenMacroPad,4f70656e-4d61-4637-926f-5061642e6b69,rev?*
G04 #@! TF.SameCoordinates,Original*
G04 #@! TF.FileFunction,Soldermask,Top*
G04 #@! TF.FilePolarity,Negative*
%FSLAX46Y46*%
G04 Gerber Fmt 4.6, Leading zero omitted, Abs format (unit mm)*
G04 Created by KiCad (PCBNEW (5.1.9)-1) date 2021-03-09 14:09:52*
%MOMM*%
%LPD*%
G01*
G04 APERTURE LIST*
%ADD10C,2.602000*%
%ADD11C,1.802000*%
%ADD12C,4.102000*%
%ADD13C,2.302000*%
%ADD14C,2.102000*%
%ADD15C,1.092600*%
%ADD16O,1.002000X1.802000*%
%ADD17O,1.002000X2.502000*%
%ADD18C,0.802000*%
%ADD19C,1.902000*%
%ADD20C,0.100000*%
G04 APERTURE END LIST*
D10*
X186182000Y-107442000D03*
D11*
X190754000Y-97790000D03*
X200914000Y-97790000D03*
D12*
X195834000Y-97790000D03*
D13*
X199644000Y-100330000D03*
X193294000Y-102870000D03*
G36*
G01*
X187163000Y-77200000D02*
X187163000Y-75200000D01*
G75*
G02*
X187214000Y-75149000I51000J0D01*
G01*
X189214000Y-75149000D01*
G75*
G02*
X189265000Y-75200000I0J-51000D01*
G01*
X189265000Y-77200000D01*
G75*
G02*
X189214000Y-77251000I-51000J0D01*
G01*
X187214000Y-77251000D01*
G75*
G02*
X187163000Y-77200000I0J51000D01*
G01*
G37*
D14*
X188214000Y-78700000D03*
X188214000Y-81200000D03*
G36*
G01*
X194063000Y-74100000D02*
X194063000Y-72100000D01*
G75*
G02*
X194114000Y-72049000I51000J0D01*
G01*
X197314000Y-72049000D01*
G75*
G02*
X197365000Y-72100000I0J-51000D01*
G01*
X197365000Y-74100000D01*
G75*
G02*
X197314000Y-74151000I-51000J0D01*
G01*
X194114000Y-74151000D01*
G75*
G02*
X194063000Y-74100000I0J51000D01*
G01*
G37*
G36*
G01*
X194063000Y-85300000D02*
X194063000Y-83300000D01*
G75*
G02*
X194114000Y-83249000I51000J0D01*
G01*
X197314000Y-83249000D01*
G75*
G02*
X197365000Y-83300000I0J-51000D01*
G01*
X197365000Y-85300000D01*
G75*
G02*
X197314000Y-85351000I-51000J0D01*
G01*
X194114000Y-85351000D01*
G75*
G02*
X194063000Y-85300000I0J51000D01*
G01*
G37*
X202714000Y-76200000D03*
X202714000Y-81200000D03*
D11*
X190754000Y-135890000D03*
X200914000Y-135890000D03*
D12*
X195834000Y-135890000D03*
D13*
X199644000Y-138430000D03*
X193294000Y-140970000D03*
X174244000Y-140970000D03*
X180594000Y-138430000D03*
D12*
X176784000Y-135890000D03*
D11*
X181864000Y-135890000D03*
X171704000Y-135890000D03*
X152654000Y-135890000D03*
X162814000Y-135890000D03*
D12*
X157734000Y-135890000D03*
D13*
X161544000Y-138430000D03*
X155194000Y-140970000D03*
X193294000Y-121920000D03*
X199644000Y-119380000D03*
D12*
X195834000Y-116840000D03*
D11*
X200914000Y-116840000D03*
X190754000Y-116840000D03*
X171704000Y-116840000D03*
X181864000Y-116840000D03*
D12*
X176784000Y-116840000D03*
D13*
X180594000Y-119380000D03*
X174244000Y-121920000D03*
X155194000Y-121920000D03*
X161544000Y-119380000D03*
D12*
X157734000Y-116840000D03*
D11*
X162814000Y-116840000D03*
X152654000Y-116840000D03*
D13*
X174244000Y-102870000D03*
X180594000Y-100330000D03*
D12*
X176784000Y-97790000D03*
D11*
X181864000Y-97790000D03*
X171704000Y-97790000D03*
X152654000Y-97790000D03*
X162814000Y-97790000D03*
D12*
X157734000Y-97790000D03*
D13*
X161544000Y-100330000D03*
X155194000Y-102870000D03*
D10*
X186182000Y-126238000D03*
X167386000Y-126238000D03*
X167386000Y-107442000D03*
X201930000Y-87630000D03*
X151638000Y-87630000D03*
G36*
G01*
X167694000Y-90401000D02*
X166694000Y-90401000D01*
G75*
G02*
X166643000Y-90350000I0J51000D01*
G01*
X166643000Y-89200000D01*
G75*
G02*
X166694000Y-89149000I51000J0D01*
G01*
X167694000Y-89149000D01*
G75*
G02*
X167745000Y-89200000I0J-51000D01*
G01*
X167745000Y-90350000D01*
G75*
G02*
X167694000Y-90401000I-51000J0D01*
G01*
G37*
G36*
G01*
X167694000Y-88651000D02*
X166694000Y-88651000D01*
G75*
G02*
X166643000Y-88600000I0J51000D01*
G01*
X166643000Y-87450000D01*
G75*
G02*
X166694000Y-87399000I51000J0D01*
G01*
X167694000Y-87399000D01*
G75*
G02*
X167745000Y-87450000I0J-51000D01*
G01*
X167745000Y-88600000D01*
G75*
G02*
X167694000Y-88651000I-51000J0D01*
G01*
G37*
G36*
G01*
X169094000Y-88651000D02*
X168094000Y-88651000D01*
G75*
G02*
X168043000Y-88600000I0J51000D01*
G01*
X168043000Y-87450000D01*
G75*
G02*
X168094000Y-87399000I51000J0D01*
G01*
X169094000Y-87399000D01*
G75*
G02*
X169145000Y-87450000I0J-51000D01*
G01*
X169145000Y-88600000D01*
G75*
G02*
X169094000Y-88651000I-51000J0D01*
G01*
G37*
G36*
G01*
X169094000Y-90401000D02*
X168094000Y-90401000D01*
G75*
G02*
X168043000Y-90350000I0J51000D01*
G01*
X168043000Y-89200000D01*
G75*
G02*
X168094000Y-89149000I51000J0D01*
G01*
X169094000Y-89149000D01*
G75*
G02*
X169145000Y-89200000I0J-51000D01*
G01*
X169145000Y-90350000D01*
G75*
G02*
X169094000Y-90401000I-51000J0D01*
G01*
G37*
D15*
X162052000Y-87884000D03*
X156972000Y-88900000D03*
X156972000Y-86868000D03*
G36*
G01*
X204262500Y-97416000D02*
X203661500Y-97416000D01*
G75*
G02*
X203436000Y-97190500I0J225500D01*
G01*
X203436000Y-96739500D01*
G75*
G02*
X203661500Y-96514000I225500J0D01*
G01*
X204262500Y-96514000D01*
G75*
G02*
X204488000Y-96739500I0J-225500D01*
G01*
X204488000Y-97190500D01*
G75*
G02*
X204262500Y-97416000I-225500J0D01*
G01*
G37*
G36*
G01*
X204262500Y-99066000D02*
X203661500Y-99066000D01*
G75*
G02*
X203436000Y-98840500I0J225500D01*
G01*
X203436000Y-98389500D01*
G75*
G02*
X203661500Y-98164000I225500J0D01*
G01*
X204262500Y-98164000D01*
G75*
G02*
X204488000Y-98389500I0J-225500D01*
G01*
X204488000Y-98840500D01*
G75*
G02*
X204262500Y-99066000I-225500J0D01*
G01*
G37*
G36*
G01*
X185212500Y-97416000D02*
X184611500Y-97416000D01*
G75*
G02*
X184386000Y-97190500I0J225500D01*
G01*
X184386000Y-96739500D01*
G75*
G02*
X184611500Y-96514000I225500J0D01*
G01*
X185212500Y-96514000D01*
G75*
G02*
X185438000Y-96739500I0J-225500D01*
G01*
X185438000Y-97190500D01*
G75*
G02*
X185212500Y-97416000I-225500J0D01*
G01*
G37*
G36*
G01*
X185212500Y-99066000D02*
X184611500Y-99066000D01*
G75*
G02*
X184386000Y-98840500I0J225500D01*
G01*
X184386000Y-98389500D01*
G75*
G02*
X184611500Y-98164000I225500J0D01*
G01*
X185212500Y-98164000D01*
G75*
G02*
X185438000Y-98389500I0J-225500D01*
G01*
X185438000Y-98840500D01*
G75*
G02*
X185212500Y-99066000I-225500J0D01*
G01*
G37*
G36*
G01*
X166162500Y-97416000D02*
X165561500Y-97416000D01*
G75*
G02*
X165336000Y-97190500I0J225500D01*
G01*
X165336000Y-96739500D01*
G75*
G02*
X165561500Y-96514000I225500J0D01*
G01*
X166162500Y-96514000D01*
G75*
G02*
X166388000Y-96739500I0J-225500D01*
G01*
X166388000Y-97190500D01*
G75*
G02*
X166162500Y-97416000I-225500J0D01*
G01*
G37*
G36*
G01*
X166162500Y-99066000D02*
X165561500Y-99066000D01*
G75*
G02*
X165336000Y-98840500I0J225500D01*
G01*
X165336000Y-98389500D01*
G75*
G02*
X165561500Y-98164000I225500J0D01*
G01*
X166162500Y-98164000D01*
G75*
G02*
X166388000Y-98389500I0J-225500D01*
G01*
X166388000Y-98840500D01*
G75*
G02*
X166162500Y-99066000I-225500J0D01*
G01*
G37*
G36*
G01*
X186990500Y-83954000D02*
X186389500Y-83954000D01*
G75*
G02*
X186164000Y-83728500I0J225500D01*
G01*
X186164000Y-83277500D01*
G75*
G02*
X186389500Y-83052000I225500J0D01*
G01*
X186990500Y-83052000D01*
G75*
G02*
X187216000Y-83277500I0J-225500D01*
G01*
X187216000Y-83728500D01*
G75*
G02*
X186990500Y-83954000I-225500J0D01*
G01*
G37*
G36*
G01*
X186990500Y-85604000D02*
X186389500Y-85604000D01*
G75*
G02*
X186164000Y-85378500I0J225500D01*
G01*
X186164000Y-84927500D01*
G75*
G02*
X186389500Y-84702000I225500J0D01*
G01*
X186990500Y-84702000D01*
G75*
G02*
X187216000Y-84927500I0J-225500D01*
G01*
X187216000Y-85378500D01*
G75*
G02*
X186990500Y-85604000I-225500J0D01*
G01*
G37*
G36*
G01*
X186990500Y-72778000D02*
X186389500Y-72778000D01*
G75*
G02*
X186164000Y-72552500I0J225500D01*
G01*
X186164000Y-72101500D01*
G75*
G02*
X186389500Y-71876000I225500J0D01*
G01*
X186990500Y-71876000D01*
G75*
G02*
X187216000Y-72101500I0J-225500D01*
G01*
X187216000Y-72552500D01*
G75*
G02*
X186990500Y-72778000I-225500J0D01*
G01*
G37*
G36*
G01*
X186990500Y-74428000D02*
X186389500Y-74428000D01*
G75*
G02*
X186164000Y-74202500I0J225500D01*
G01*
X186164000Y-73751500D01*
G75*
G02*
X186389500Y-73526000I225500J0D01*
G01*
X186990500Y-73526000D01*
G75*
G02*
X187216000Y-73751500I0J-225500D01*
G01*
X187216000Y-74202500D01*
G75*
G02*
X186990500Y-74428000I-225500J0D01*
G01*
G37*
G36*
G01*
X195714000Y-87837500D02*
X195714000Y-88438500D01*
G75*
G02*
X195488500Y-88664000I-225500J0D01*
G01*
X195037500Y-88664000D01*
G75*
G02*
X194812000Y-88438500I0J225500D01*
G01*
X194812000Y-87837500D01*
G75*
G02*
X195037500Y-87612000I225500J0D01*
G01*
X195488500Y-87612000D01*
G75*
G02*
X195714000Y-87837500I0J-225500D01*
G01*
G37*
G36*
G01*
X197364000Y-87837500D02*
X197364000Y-88438500D01*
G75*
G02*
X197138500Y-88664000I-225500J0D01*
G01*
X196687500Y-88664000D01*
G75*
G02*
X196462000Y-88438500I0J225500D01*
G01*
X196462000Y-87837500D01*
G75*
G02*
X196687500Y-87612000I225500J0D01*
G01*
X197138500Y-87612000D01*
G75*
G02*
X197364000Y-87837500I0J-225500D01*
G01*
G37*
G36*
G01*
X166577500Y-73526000D02*
X167178500Y-73526000D01*
G75*
G02*
X167404000Y-73751500I0J-225500D01*
G01*
X167404000Y-74202500D01*
G75*
G02*
X167178500Y-74428000I-225500J0D01*
G01*
X166577500Y-74428000D01*
G75*
G02*
X166352000Y-74202500I0J225500D01*
G01*
X166352000Y-73751500D01*
G75*
G02*
X166577500Y-73526000I225500J0D01*
G01*
G37*
G36*
G01*
X166577500Y-71876000D02*
X167178500Y-71876000D01*
G75*
G02*
X167404000Y-72101500I0J-225500D01*
G01*
X167404000Y-72552500D01*
G75*
G02*
X167178500Y-72778000I-225500J0D01*
G01*
X166577500Y-72778000D01*
G75*
G02*
X166352000Y-72552500I0J225500D01*
G01*
X166352000Y-72101500D01*
G75*
G02*
X166577500Y-71876000I225500J0D01*
G01*
G37*
G36*
G01*
X166577500Y-84702000D02*
X167178500Y-84702000D01*
G75*
G02*
X167404000Y-84927500I0J-225500D01*
G01*
X167404000Y-85378500D01*
G75*
G02*
X167178500Y-85604000I-225500J0D01*
G01*
X166577500Y-85604000D01*
G75*
G02*
X166352000Y-85378500I0J225500D01*
G01*
X166352000Y-84927500D01*
G75*
G02*
X166577500Y-84702000I225500J0D01*
G01*
G37*
G36*
G01*
X166577500Y-83052000D02*
X167178500Y-83052000D01*
G75*
G02*
X167404000Y-83277500I0J-225500D01*
G01*
X167404000Y-83728500D01*
G75*
G02*
X167178500Y-83954000I-225500J0D01*
G01*
X166577500Y-83954000D01*
G75*
G02*
X166352000Y-83728500I0J225500D01*
G01*
X166352000Y-83277500D01*
G75*
G02*
X166577500Y-83052000I225500J0D01*
G01*
G37*
G36*
G01*
X153028000Y-71420500D02*
X153028000Y-70819500D01*
G75*
G02*
X153253500Y-70594000I225500J0D01*
G01*
X153704500Y-70594000D01*
G75*
G02*
X153930000Y-70819500I0J-225500D01*
G01*
X153930000Y-71420500D01*
G75*
G02*
X153704500Y-71646000I-225500J0D01*
G01*
X153253500Y-71646000D01*
G75*
G02*
X153028000Y-71420500I0J225500D01*
G01*
G37*
G36*
G01*
X151378000Y-71420500D02*
X151378000Y-70819500D01*
G75*
G02*
X151603500Y-70594000I225500J0D01*
G01*
X152054500Y-70594000D01*
G75*
G02*
X152280000Y-70819500I0J-225500D01*
G01*
X152280000Y-71420500D01*
G75*
G02*
X152054500Y-71646000I-225500J0D01*
G01*
X151603500Y-71646000D01*
G75*
G02*
X151378000Y-71420500I0J225500D01*
G01*
G37*
G36*
G01*
X158883000Y-106772000D02*
X158883000Y-105572000D01*
G75*
G02*
X158934000Y-105521000I51000J0D01*
G01*
X159834000Y-105521000D01*
G75*
G02*
X159885000Y-105572000I0J-51000D01*
G01*
X159885000Y-106772000D01*
G75*
G02*
X159834000Y-106823000I-51000J0D01*
G01*
X158934000Y-106823000D01*
G75*
G02*
X158883000Y-106772000I0J51000D01*
G01*
G37*
G36*
G01*
X155583000Y-106772000D02*
X155583000Y-105572000D01*
G75*
G02*
X155634000Y-105521000I51000J0D01*
G01*
X156534000Y-105521000D01*
G75*
G02*
X156585000Y-105572000I0J-51000D01*
G01*
X156585000Y-106772000D01*
G75*
G02*
X156534000Y-106823000I-51000J0D01*
G01*
X155634000Y-106823000D01*
G75*
G02*
X155583000Y-106772000I0J51000D01*
G01*
G37*
G36*
G01*
X196983000Y-144618000D02*
X196983000Y-143418000D01*
G75*
G02*
X197034000Y-143367000I51000J0D01*
G01*
X197934000Y-143367000D01*
G75*
G02*
X197985000Y-143418000I0J-51000D01*
G01*
X197985000Y-144618000D01*
G75*
G02*
X197934000Y-144669000I-51000J0D01*
G01*
X197034000Y-144669000D01*
G75*
G02*
X196983000Y-144618000I0J51000D01*
G01*
G37*
G36*
G01*
X193683000Y-144618000D02*
X193683000Y-143418000D01*
G75*
G02*
X193734000Y-143367000I51000J0D01*
G01*
X194634000Y-143367000D01*
G75*
G02*
X194685000Y-143418000I0J-51000D01*
G01*
X194685000Y-144618000D01*
G75*
G02*
X194634000Y-144669000I-51000J0D01*
G01*
X193734000Y-144669000D01*
G75*
G02*
X193683000Y-144618000I0J51000D01*
G01*
G37*
G36*
G01*
X177933000Y-144618000D02*
X177933000Y-143418000D01*
G75*
G02*
X177984000Y-143367000I51000J0D01*
G01*
X178884000Y-143367000D01*
G75*
G02*
X178935000Y-143418000I0J-51000D01*
G01*
X178935000Y-144618000D01*
G75*
G02*
X178884000Y-144669000I-51000J0D01*
G01*
X177984000Y-144669000D01*
G75*
G02*
X177933000Y-144618000I0J51000D01*
G01*
G37*
G36*
G01*
X174633000Y-144618000D02*
X174633000Y-143418000D01*
G75*
G02*
X174684000Y-143367000I51000J0D01*
G01*
X175584000Y-143367000D01*
G75*
G02*
X175635000Y-143418000I0J-51000D01*
G01*
X175635000Y-144618000D01*
G75*
G02*
X175584000Y-144669000I-51000J0D01*
G01*
X174684000Y-144669000D01*
G75*
G02*
X174633000Y-144618000I0J51000D01*
G01*
G37*
G36*
G01*
X158883000Y-144618000D02*
X158883000Y-143418000D01*
G75*
G02*
X158934000Y-143367000I51000J0D01*
G01*
X159834000Y-143367000D01*
G75*
G02*
X159885000Y-143418000I0J-51000D01*
G01*
X159885000Y-144618000D01*
G75*
G02*
X159834000Y-144669000I-51000J0D01*
G01*
X158934000Y-144669000D01*
G75*
G02*
X158883000Y-144618000I0J51000D01*
G01*
G37*
G36*
G01*
X155583000Y-144618000D02*
X155583000Y-143418000D01*
G75*
G02*
X155634000Y-143367000I51000J0D01*
G01*
X156534000Y-143367000D01*
G75*
G02*
X156585000Y-143418000I0J-51000D01*
G01*
X156585000Y-144618000D01*
G75*
G02*
X156534000Y-144669000I-51000J0D01*
G01*
X155634000Y-144669000D01*
G75*
G02*
X155583000Y-144618000I0J51000D01*
G01*
G37*
G36*
G01*
X196983000Y-125822000D02*
X196983000Y-124622000D01*
G75*
G02*
X197034000Y-124571000I51000J0D01*
G01*
X197934000Y-124571000D01*
G75*
G02*
X197985000Y-124622000I0J-51000D01*
G01*
X197985000Y-125822000D01*
G75*
G02*
X197934000Y-125873000I-51000J0D01*
G01*
X197034000Y-125873000D01*
G75*
G02*
X196983000Y-125822000I0J51000D01*
G01*
G37*
G36*
G01*
X193683000Y-125822000D02*
X193683000Y-124622000D01*
G75*
G02*
X193734000Y-124571000I51000J0D01*
G01*
X194634000Y-124571000D01*
G75*
G02*
X194685000Y-124622000I0J-51000D01*
G01*
X194685000Y-125822000D01*
G75*
G02*
X194634000Y-125873000I-51000J0D01*
G01*
X193734000Y-125873000D01*
G75*
G02*
X193683000Y-125822000I0J51000D01*
G01*
G37*
G36*
G01*
X177933000Y-125822000D02*
X177933000Y-124622000D01*
G75*
G02*
X177984000Y-124571000I51000J0D01*
G01*
X178884000Y-124571000D01*
G75*
G02*
X178935000Y-124622000I0J-51000D01*
G01*
X178935000Y-125822000D01*
G75*
G02*
X178884000Y-125873000I-51000J0D01*
G01*
X177984000Y-125873000D01*
G75*
G02*
X177933000Y-125822000I0J51000D01*
G01*
G37*
G36*
G01*
X174633000Y-125822000D02*
X174633000Y-124622000D01*
G75*
G02*
X174684000Y-124571000I51000J0D01*
G01*
X175584000Y-124571000D01*
G75*
G02*
X175635000Y-124622000I0J-51000D01*
G01*
X175635000Y-125822000D01*
G75*
G02*
X175584000Y-125873000I-51000J0D01*
G01*
X174684000Y-125873000D01*
G75*
G02*
X174633000Y-125822000I0J51000D01*
G01*
G37*
G36*
G01*
X158883000Y-125822000D02*
X158883000Y-124622000D01*
G75*
G02*
X158934000Y-124571000I51000J0D01*
G01*
X159834000Y-124571000D01*
G75*
G02*
X159885000Y-124622000I0J-51000D01*
G01*
X159885000Y-125822000D01*
G75*
G02*
X159834000Y-125873000I-51000J0D01*
G01*
X158934000Y-125873000D01*
G75*
G02*
X158883000Y-125822000I0J51000D01*
G01*
G37*
G36*
G01*
X155583000Y-125822000D02*
X155583000Y-124622000D01*
G75*
G02*
X155634000Y-124571000I51000J0D01*
G01*
X156534000Y-124571000D01*
G75*
G02*
X156585000Y-124622000I0J-51000D01*
G01*
X156585000Y-125822000D01*
G75*
G02*
X156534000Y-125873000I-51000J0D01*
G01*
X155634000Y-125873000D01*
G75*
G02*
X155583000Y-125822000I0J51000D01*
G01*
G37*
G36*
G01*
X196983000Y-106772000D02*
X196983000Y-105572000D01*
G75*
G02*
X197034000Y-105521000I51000J0D01*
G01*
X197934000Y-105521000D01*
G75*
G02*
X197985000Y-105572000I0J-51000D01*
G01*
X197985000Y-106772000D01*
G75*
G02*
X197934000Y-106823000I-51000J0D01*
G01*
X197034000Y-106823000D01*
G75*
G02*
X196983000Y-106772000I0J51000D01*
G01*
G37*
G36*
G01*
X193683000Y-106772000D02*
X193683000Y-105572000D01*
G75*
G02*
X193734000Y-105521000I51000J0D01*
G01*
X194634000Y-105521000D01*
G75*
G02*
X194685000Y-105572000I0J-51000D01*
G01*
X194685000Y-106772000D01*
G75*
G02*
X194634000Y-106823000I-51000J0D01*
G01*
X193734000Y-106823000D01*
G75*
G02*
X193683000Y-106772000I0J51000D01*
G01*
G37*
G36*
G01*
X177933000Y-106772000D02*
X177933000Y-105572000D01*
G75*
G02*
X177984000Y-105521000I51000J0D01*
G01*
X178884000Y-105521000D01*
G75*
G02*
X178935000Y-105572000I0J-51000D01*
G01*
X178935000Y-106772000D01*
G75*
G02*
X178884000Y-106823000I-51000J0D01*
G01*
X177984000Y-106823000D01*
G75*
G02*
X177933000Y-106772000I0J51000D01*
G01*
G37*
G36*
G01*
X174633000Y-106772000D02*
X174633000Y-105572000D01*
G75*
G02*
X174684000Y-105521000I51000J0D01*
G01*
X175584000Y-105521000D01*
G75*
G02*
X175635000Y-105572000I0J-51000D01*
G01*
X175635000Y-106772000D01*
G75*
G02*
X175584000Y-106823000I-51000J0D01*
G01*
X174684000Y-106823000D01*
G75*
G02*
X174633000Y-106772000I0J51000D01*
G01*
G37*
G36*
G01*
X188489500Y-84054000D02*
X187938500Y-84054000D01*
G75*
G02*
X187688000Y-83803500I0J250500D01*
G01*
X187688000Y-83302500D01*
G75*
G02*
X187938500Y-83052000I250500J0D01*
G01*
X188489500Y-83052000D01*
G75*
G02*
X188740000Y-83302500I0J-250500D01*
G01*
X188740000Y-83803500D01*
G75*
G02*
X188489500Y-84054000I-250500J0D01*
G01*
G37*
G36*
G01*
X188489500Y-85604000D02*
X187938500Y-85604000D01*
G75*
G02*
X187688000Y-85353500I0J250500D01*
G01*
X187688000Y-84852500D01*
G75*
G02*
X187938500Y-84602000I250500J0D01*
G01*
X188489500Y-84602000D01*
G75*
G02*
X188740000Y-84852500I0J-250500D01*
G01*
X188740000Y-85353500D01*
G75*
G02*
X188489500Y-85604000I-250500J0D01*
G01*
G37*
G36*
G01*
X188489500Y-72878000D02*
X187938500Y-72878000D01*
G75*
G02*
X187688000Y-72627500I0J250500D01*
G01*
X187688000Y-72126500D01*
G75*
G02*
X187938500Y-71876000I250500J0D01*
G01*
X188489500Y-71876000D01*
G75*
G02*
X188740000Y-72126500I0J-250500D01*
G01*
X188740000Y-72627500D01*
G75*
G02*
X188489500Y-72878000I-250500J0D01*
G01*
G37*
G36*
G01*
X188489500Y-74428000D02*
X187938500Y-74428000D01*
G75*
G02*
X187688000Y-74177500I0J250500D01*
G01*
X187688000Y-73676500D01*
G75*
G02*
X187938500Y-73426000I250500J0D01*
G01*
X188489500Y-73426000D01*
G75*
G02*
X188740000Y-73676500I0J-250500D01*
G01*
X188740000Y-74177500D01*
G75*
G02*
X188489500Y-74428000I-250500J0D01*
G01*
G37*
G36*
G01*
X165078500Y-73426000D02*
X165629500Y-73426000D01*
G75*
G02*
X165880000Y-73676500I0J-250500D01*
G01*
X165880000Y-74177500D01*
G75*
G02*
X165629500Y-74428000I-250500J0D01*
G01*
X165078500Y-74428000D01*
G75*
G02*
X164828000Y-74177500I0J250500D01*
G01*
X164828000Y-73676500D01*
G75*
G02*
X165078500Y-73426000I250500J0D01*
G01*
G37*
G36*
G01*
X165078500Y-71876000D02*
X165629500Y-71876000D01*
G75*
G02*
X165880000Y-72126500I0J-250500D01*
G01*
X165880000Y-72627500D01*
G75*
G02*
X165629500Y-72878000I-250500J0D01*
G01*
X165078500Y-72878000D01*
G75*
G02*
X164828000Y-72627500I0J250500D01*
G01*
X164828000Y-72126500D01*
G75*
G02*
X165078500Y-71876000I250500J0D01*
G01*
G37*
G36*
G01*
X165078500Y-84602000D02*
X165629500Y-84602000D01*
G75*
G02*
X165880000Y-84852500I0J-250500D01*
G01*
X165880000Y-85353500D01*
G75*
G02*
X165629500Y-85604000I-250500J0D01*
G01*
X165078500Y-85604000D01*
G75*
G02*
X164828000Y-85353500I0J250500D01*
G01*
X164828000Y-84852500D01*
G75*
G02*
X165078500Y-84602000I250500J0D01*
G01*
G37*
G36*
G01*
X165078500Y-83052000D02*
X165629500Y-83052000D01*
G75*
G02*
X165880000Y-83302500I0J-250500D01*
G01*
X165880000Y-83803500D01*
G75*
G02*
X165629500Y-84054000I-250500J0D01*
G01*
X165078500Y-84054000D01*
G75*
G02*
X164828000Y-83803500I0J250500D01*
G01*
X164828000Y-83302500D01*
G75*
G02*
X165078500Y-83052000I250500J0D01*
G01*
G37*
G36*
G01*
X187064000Y-89454500D02*
X187064000Y-88853500D01*
G75*
G02*
X187289500Y-88628000I225500J0D01*
G01*
X187740500Y-88628000D01*
G75*
G02*
X187966000Y-88853500I0J-225500D01*
G01*
X187966000Y-89454500D01*
G75*
G02*
X187740500Y-89680000I-225500J0D01*
G01*
X187289500Y-89680000D01*
G75*
G02*
X187064000Y-89454500I0J225500D01*
G01*
G37*
G36*
G01*
X185414000Y-89454500D02*
X185414000Y-88853500D01*
G75*
G02*
X185639500Y-88628000I225500J0D01*
G01*
X186090500Y-88628000D01*
G75*
G02*
X186316000Y-88853500I0J-225500D01*
G01*
X186316000Y-89454500D01*
G75*
G02*
X186090500Y-89680000I-225500J0D01*
G01*
X185639500Y-89680000D01*
G75*
G02*
X185414000Y-89454500I0J225500D01*
G01*
G37*
G36*
G01*
X170890028Y-73691057D02*
X170465057Y-74116028D01*
G75*
G02*
X170146151Y-74116028I-159453J159453D01*
G01*
X169827246Y-73797123D01*
G75*
G02*
X169827246Y-73478217I159453J159453D01*
G01*
X170252217Y-73053246D01*
G75*
G02*
X170571123Y-73053246I159453J-159453D01*
G01*
X170890028Y-73372151D01*
G75*
G02*
X170890028Y-73691057I-159453J-159453D01*
G01*
G37*
G36*
G01*
X172056754Y-74857783D02*
X171631783Y-75282754D01*
G75*
G02*
X171312877Y-75282754I-159453J159453D01*
G01*
X170993972Y-74963849D01*
G75*
G02*
X170993972Y-74644943I159453J159453D01*
G01*
X171418943Y-74219972D01*
G75*
G02*
X171737849Y-74219972I159453J-159453D01*
G01*
X172056754Y-74538877D01*
G75*
G02*
X172056754Y-74857783I-159453J-159453D01*
G01*
G37*
G36*
G01*
X169723972Y-75914943D02*
X170148943Y-75489972D01*
G75*
G02*
X170467849Y-75489972I159453J-159453D01*
G01*
X170786754Y-75808877D01*
G75*
G02*
X170786754Y-76127783I-159453J-159453D01*
G01*
X170361783Y-76552754D01*
G75*
G02*
X170042877Y-76552754I-159453J159453D01*
G01*
X169723972Y-76233849D01*
G75*
G02*
X169723972Y-75914943I159453J159453D01*
G01*
G37*
G36*
G01*
X168557246Y-74748217D02*
X168982217Y-74323246D01*
G75*
G02*
X169301123Y-74323246I159453J-159453D01*
G01*
X169620028Y-74642151D01*
G75*
G02*
X169620028Y-74961057I-159453J-159453D01*
G01*
X169195057Y-75386028D01*
G75*
G02*
X168876151Y-75386028I-159453J159453D01*
G01*
X168557246Y-75067123D01*
G75*
G02*
X168557246Y-74748217I159453J159453D01*
G01*
G37*
G36*
G01*
X184890500Y-78506000D02*
X185441500Y-78506000D01*
G75*
G02*
X185692000Y-78756500I0J-250500D01*
G01*
X185692000Y-79257500D01*
G75*
G02*
X185441500Y-79508000I-250500J0D01*
G01*
X184890500Y-79508000D01*
G75*
G02*
X184640000Y-79257500I0J250500D01*
G01*
X184640000Y-78756500D01*
G75*
G02*
X184890500Y-78506000I250500J0D01*
G01*
G37*
G36*
G01*
X184890500Y-76956000D02*
X185441500Y-76956000D01*
G75*
G02*
X185692000Y-77206500I0J-250500D01*
G01*
X185692000Y-77707500D01*
G75*
G02*
X185441500Y-77958000I-250500J0D01*
G01*
X184890500Y-77958000D01*
G75*
G02*
X184640000Y-77707500I0J250500D01*
G01*
X184640000Y-77206500D01*
G75*
G02*
X184890500Y-76956000I250500J0D01*
G01*
G37*
G36*
G01*
X168676000Y-77491500D02*
X168676000Y-76940500D01*
G75*
G02*
X168926500Y-76690000I250500J0D01*
G01*
X169427500Y-76690000D01*
G75*
G02*
X169678000Y-76940500I0J-250500D01*
G01*
X169678000Y-77491500D01*
G75*
G02*
X169427500Y-77742000I-250500J0D01*
G01*
X168926500Y-77742000D01*
G75*
G02*
X168676000Y-77491500I0J250500D01*
G01*
G37*
G36*
G01*
X167126000Y-77491500D02*
X167126000Y-76940500D01*
G75*
G02*
X167376500Y-76690000I250500J0D01*
G01*
X167877500Y-76690000D01*
G75*
G02*
X168128000Y-76940500I0J-250500D01*
G01*
X168128000Y-77491500D01*
G75*
G02*
X167877500Y-77742000I-250500J0D01*
G01*
X167376500Y-77742000D01*
G75*
G02*
X167126000Y-77491500I0J250500D01*
G01*
G37*
G36*
G01*
X182138000Y-74443500D02*
X182138000Y-73892500D01*
G75*
G02*
X182388500Y-73642000I250500J0D01*
G01*
X182889500Y-73642000D01*
G75*
G02*
X183140000Y-73892500I0J-250500D01*
G01*
X183140000Y-74443500D01*
G75*
G02*
X182889500Y-74694000I-250500J0D01*
G01*
X182388500Y-74694000D01*
G75*
G02*
X182138000Y-74443500I0J250500D01*
G01*
G37*
G36*
G01*
X180588000Y-74443500D02*
X180588000Y-73892500D01*
G75*
G02*
X180838500Y-73642000I250500J0D01*
G01*
X181339500Y-73642000D01*
G75*
G02*
X181590000Y-73892500I0J-250500D01*
G01*
X181590000Y-74443500D01*
G75*
G02*
X181339500Y-74694000I-250500J0D01*
G01*
X180838500Y-74694000D01*
G75*
G02*
X180588000Y-74443500I0J250500D01*
G01*
G37*
G36*
G01*
X165078500Y-89174000D02*
X165629500Y-89174000D01*
G75*
G02*
X165880000Y-89424500I0J-250500D01*
G01*
X165880000Y-89925500D01*
G75*
G02*
X165629500Y-90176000I-250500J0D01*
G01*
X165078500Y-90176000D01*
G75*
G02*
X164828000Y-89925500I0J250500D01*
G01*
X164828000Y-89424500D01*
G75*
G02*
X165078500Y-89174000I250500J0D01*
G01*
G37*
G36*
G01*
X165078500Y-87624000D02*
X165629500Y-87624000D01*
G75*
G02*
X165880000Y-87874500I0J-250500D01*
G01*
X165880000Y-88375500D01*
G75*
G02*
X165629500Y-88626000I-250500J0D01*
G01*
X165078500Y-88626000D01*
G75*
G02*
X164828000Y-88375500I0J250500D01*
G01*
X164828000Y-87874500D01*
G75*
G02*
X165078500Y-87624000I250500J0D01*
G01*
G37*
G36*
G01*
X168168000Y-91969500D02*
X168168000Y-91418500D01*
G75*
G02*
X168418500Y-91168000I250500J0D01*
G01*
X168919500Y-91168000D01*
G75*
G02*
X169170000Y-91418500I0J-250500D01*
G01*
X169170000Y-91969500D01*
G75*
G02*
X168919500Y-92220000I-250500J0D01*
G01*
X168418500Y-92220000D01*
G75*
G02*
X168168000Y-91969500I0J250500D01*
G01*
G37*
G36*
G01*
X166618000Y-91969500D02*
X166618000Y-91418500D01*
G75*
G02*
X166868500Y-91168000I250500J0D01*
G01*
X167369500Y-91168000D01*
G75*
G02*
X167620000Y-91418500I0J-250500D01*
G01*
X167620000Y-91969500D01*
G75*
G02*
X167369500Y-92220000I-250500J0D01*
G01*
X166868500Y-92220000D01*
G75*
G02*
X166618000Y-91969500I0J250500D01*
G01*
G37*
D16*
X172459000Y-67776000D03*
X181109000Y-67776000D03*
D17*
X172459000Y-71156000D03*
X181109000Y-71156000D03*
D18*
X176359000Y-70786000D03*
X173809000Y-70786000D03*
X174659000Y-70786000D03*
X175509000Y-70786000D03*
X179759000Y-70786000D03*
X178059000Y-70786000D03*
X177209000Y-70786000D03*
X178909000Y-70786000D03*
X173809000Y-72136000D03*
X174659000Y-72136000D03*
X175509000Y-72136000D03*
X176359000Y-72136000D03*
X177209000Y-72136000D03*
X178059000Y-72136000D03*
X178909000Y-72136000D03*
X179759000Y-72136000D03*
D19*
X197104000Y-130810000D03*
G36*
G01*
X193613000Y-131710000D02*
X193613000Y-129910000D01*
G75*
G02*
X193664000Y-129859000I51000J0D01*
G01*
X195464000Y-129859000D01*
G75*
G02*
X195515000Y-129910000I0J-51000D01*
G01*
X195515000Y-131710000D01*
G75*
G02*
X195464000Y-131761000I-51000J0D01*
G01*
X193664000Y-131761000D01*
G75*
G02*
X193613000Y-131710000I0J51000D01*
G01*
G37*
X178054000Y-130810000D03*
G36*
G01*
X174563000Y-131710000D02*
X174563000Y-129910000D01*
G75*
G02*
X174614000Y-129859000I51000J0D01*
G01*
X176414000Y-129859000D01*
G75*
G02*
X176465000Y-129910000I0J-51000D01*
G01*
X176465000Y-131710000D01*
G75*
G02*
X176414000Y-131761000I-51000J0D01*
G01*
X174614000Y-131761000D01*
G75*
G02*
X174563000Y-131710000I0J51000D01*
G01*
G37*
X159004000Y-130810000D03*
G36*
G01*
X155513000Y-131710000D02*
X155513000Y-129910000D01*
G75*
G02*
X155564000Y-129859000I51000J0D01*
G01*
X157364000Y-129859000D01*
G75*
G02*
X157415000Y-129910000I0J-51000D01*
G01*
X157415000Y-131710000D01*
G75*
G02*
X157364000Y-131761000I-51000J0D01*
G01*
X155564000Y-131761000D01*
G75*
G02*
X155513000Y-131710000I0J51000D01*
G01*
G37*
X197104000Y-111760000D03*
G36*
G01*
X193613000Y-112660000D02*
X193613000Y-110860000D01*
G75*
G02*
X193664000Y-110809000I51000J0D01*
G01*
X195464000Y-110809000D01*
G75*
G02*
X195515000Y-110860000I0J-51000D01*
G01*
X195515000Y-112660000D01*
G75*
G02*
X195464000Y-112711000I-51000J0D01*
G01*
X193664000Y-112711000D01*
G75*
G02*
X193613000Y-112660000I0J51000D01*
G01*
G37*
X178054000Y-111760000D03*
G36*
G01*
X174563000Y-112660000D02*
X174563000Y-110860000D01*
G75*
G02*
X174614000Y-110809000I51000J0D01*
G01*
X176414000Y-110809000D01*
G75*
G02*
X176465000Y-110860000I0J-51000D01*
G01*
X176465000Y-112660000D01*
G75*
G02*
X176414000Y-112711000I-51000J0D01*
G01*
X174614000Y-112711000D01*
G75*
G02*
X174563000Y-112660000I0J51000D01*
G01*
G37*
X159004000Y-111760000D03*
G36*
G01*
X155513000Y-112660000D02*
X155513000Y-110860000D01*
G75*
G02*
X155564000Y-110809000I51000J0D01*
G01*
X157364000Y-110809000D01*
G75*
G02*
X157415000Y-110860000I0J-51000D01*
G01*
X157415000Y-112660000D01*
G75*
G02*
X157364000Y-112711000I-51000J0D01*
G01*
X155564000Y-112711000D01*
G75*
G02*
X155513000Y-112660000I0J51000D01*
G01*
G37*
X197104000Y-92710000D03*
G36*
G01*
X193613000Y-93610000D02*
X193613000Y-91810000D01*
G75*
G02*
X193664000Y-91759000I51000J0D01*
G01*
X195464000Y-91759000D01*
G75*
G02*
X195515000Y-91810000I0J-51000D01*
G01*
X195515000Y-93610000D01*
G75*
G02*
X195464000Y-93661000I-51000J0D01*
G01*
X193664000Y-93661000D01*
G75*
G02*
X193613000Y-93610000I0J51000D01*
G01*
G37*
X159004000Y-92710000D03*
G36*
G01*
X155513000Y-93610000D02*
X155513000Y-91810000D01*
G75*
G02*
X155564000Y-91759000I51000J0D01*
G01*
X157364000Y-91759000D01*
G75*
G02*
X157415000Y-91810000I0J-51000D01*
G01*
X157415000Y-93610000D01*
G75*
G02*
X157364000Y-93661000I-51000J0D01*
G01*
X155564000Y-93661000D01*
G75*
G02*
X155513000Y-93610000I0J51000D01*
G01*
G37*
X178054000Y-92710000D03*
G36*
G01*
X174563000Y-93610000D02*
X174563000Y-91810000D01*
G75*
G02*
X174614000Y-91759000I51000J0D01*
G01*
X176414000Y-91759000D01*
G75*
G02*
X176465000Y-91810000I0J-51000D01*
G01*
X176465000Y-93610000D01*
G75*
G02*
X176414000Y-93661000I-51000J0D01*
G01*
X174614000Y-93661000D01*
G75*
G02*
X174563000Y-93610000I0J51000D01*
G01*
G37*
G36*
G01*
X177614144Y-75943910D02*
X177225236Y-75555002D01*
G75*
G02*
X177225236Y-75482878I36062J36062D01*
G01*
X178285896Y-74422218D01*
G75*
G02*
X178358020Y-74422218I36062J-36062D01*
G01*
X178746928Y-74811126D01*
G75*
G02*
X178746928Y-74883250I-36062J-36062D01*
G01*
X177686268Y-75943910D01*
G75*
G02*
X177614144Y-75943910I-36062J36062D01*
G01*
G37*
G36*
G01*
X178179829Y-76509596D02*
X177790921Y-76120688D01*
G75*
G02*
X177790921Y-76048564I36062J36062D01*
G01*
X178851581Y-74987904D01*
G75*
G02*
X178923705Y-74987904I36062J-36062D01*
G01*
X179312613Y-75376812D01*
G75*
G02*
X179312613Y-75448936I-36062J-36062D01*
G01*
X178251953Y-76509596D01*
G75*
G02*
X178179829Y-76509596I-36062J36062D01*
G01*
G37*
G36*
G01*
X178745514Y-77075281D02*
X178356606Y-76686373D01*
G75*
G02*
X178356606Y-76614249I36062J36062D01*
G01*
X179417266Y-75553589D01*
G75*
G02*
X179489390Y-75553589I36062J-36062D01*
G01*
X179878298Y-75942497D01*
G75*
G02*
X179878298Y-76014621I-36062J-36062D01*
G01*
X178817638Y-77075281D01*
G75*
G02*
X178745514Y-77075281I-36062J36062D01*
G01*
G37*
G36*
G01*
X179311200Y-77640966D02*
X178922292Y-77252058D01*
G75*
G02*
X178922292Y-77179934I36062J36062D01*
G01*
X179982952Y-76119274D01*
G75*
G02*
X180055076Y-76119274I36062J-36062D01*
G01*
X180443984Y-76508182D01*
G75*
G02*
X180443984Y-76580306I-36062J-36062D01*
G01*
X179383324Y-77640966D01*
G75*
G02*
X179311200Y-77640966I-36062J36062D01*
G01*
G37*
G36*
G01*
X179876885Y-78206652D02*
X179487977Y-77817744D01*
G75*
G02*
X179487977Y-77745620I36062J36062D01*
G01*
X180548637Y-76684960D01*
G75*
G02*
X180620761Y-76684960I36062J-36062D01*
G01*
X181009669Y-77073868D01*
G75*
G02*
X181009669Y-77145992I-36062J-36062D01*
G01*
X179949009Y-78206652D01*
G75*
G02*
X179876885Y-78206652I-36062J36062D01*
G01*
G37*
G36*
G01*
X180442571Y-78772337D02*
X180053663Y-78383429D01*
G75*
G02*
X180053663Y-78311305I36062J36062D01*
G01*
X181114323Y-77250645D01*
G75*
G02*
X181186447Y-77250645I36062J-36062D01*
G01*
X181575355Y-77639553D01*
G75*
G02*
X181575355Y-77711677I-36062J-36062D01*
G01*
X180514695Y-78772337D01*
G75*
G02*
X180442571Y-78772337I-36062J36062D01*
G01*
G37*
G36*
G01*
X181008256Y-79338023D02*
X180619348Y-78949115D01*
G75*
G02*
X180619348Y-78876991I36062J36062D01*
G01*
X181680008Y-77816331D01*
G75*
G02*
X181752132Y-77816331I36062J-36062D01*
G01*
X182141040Y-78205239D01*
G75*
G02*
X182141040Y-78277363I-36062J-36062D01*
G01*
X181080380Y-79338023D01*
G75*
G02*
X181008256Y-79338023I-36062J36062D01*
G01*
G37*
G36*
G01*
X181573942Y-79903708D02*
X181185034Y-79514800D01*
G75*
G02*
X181185034Y-79442676I36062J36062D01*
G01*
X182245694Y-78382016D01*
G75*
G02*
X182317818Y-78382016I36062J-36062D01*
G01*
X182706726Y-78770924D01*
G75*
G02*
X182706726Y-78843048I-36062J-36062D01*
G01*
X181646066Y-79903708D01*
G75*
G02*
X181573942Y-79903708I-36062J36062D01*
G01*
G37*
G36*
G01*
X182139627Y-80469394D02*
X181750719Y-80080486D01*
G75*
G02*
X181750719Y-80008362I36062J36062D01*
G01*
X182811379Y-78947702D01*
G75*
G02*
X182883503Y-78947702I36062J-36062D01*
G01*
X183272411Y-79336610D01*
G75*
G02*
X183272411Y-79408734I-36062J-36062D01*
G01*
X182211751Y-80469394D01*
G75*
G02*
X182139627Y-80469394I-36062J36062D01*
G01*
G37*
G36*
G01*
X182705312Y-81035079D02*
X182316404Y-80646171D01*
G75*
G02*
X182316404Y-80574047I36062J36062D01*
G01*
X183377064Y-79513387D01*
G75*
G02*
X183449188Y-79513387I36062J-36062D01*
G01*
X183838096Y-79902295D01*
G75*
G02*
X183838096Y-79974419I-36062J-36062D01*
G01*
X182777436Y-81035079D01*
G75*
G02*
X182705312Y-81035079I-36062J36062D01*
G01*
G37*
G36*
G01*
X183270998Y-81600764D02*
X182882090Y-81211856D01*
G75*
G02*
X182882090Y-81139732I36062J36062D01*
G01*
X183942750Y-80079072D01*
G75*
G02*
X184014874Y-80079072I36062J-36062D01*
G01*
X184403782Y-80467980D01*
G75*
G02*
X184403782Y-80540104I-36062J-36062D01*
G01*
X183343122Y-81600764D01*
G75*
G02*
X183270998Y-81600764I-36062J36062D01*
G01*
G37*
G36*
G01*
X182882090Y-82872144D02*
X183270998Y-82483236D01*
G75*
G02*
X183343122Y-82483236I36062J-36062D01*
G01*
X184403782Y-83543896D01*
G75*
G02*
X184403782Y-83616020I-36062J-36062D01*
G01*
X184014874Y-84004928D01*
G75*
G02*
X183942750Y-84004928I-36062J36062D01*
G01*
X182882090Y-82944268D01*
G75*
G02*
X182882090Y-82872144I36062J36062D01*
G01*
G37*
G36*
G01*
X182316404Y-83437829D02*
X182705312Y-83048921D01*
G75*
G02*
X182777436Y-83048921I36062J-36062D01*
G01*
X183838096Y-84109581D01*
G75*
G02*
X183838096Y-84181705I-36062J-36062D01*
G01*
X183449188Y-84570613D01*
G75*
G02*
X183377064Y-84570613I-36062J36062D01*
G01*
X182316404Y-83509953D01*
G75*
G02*
X182316404Y-83437829I36062J36062D01*
G01*
G37*
G36*
G01*
X181750719Y-84003514D02*
X182139627Y-83614606D01*
G75*
G02*
X182211751Y-83614606I36062J-36062D01*
G01*
X183272411Y-84675266D01*
G75*
G02*
X183272411Y-84747390I-36062J-36062D01*
G01*
X182883503Y-85136298D01*
G75*
G02*
X182811379Y-85136298I-36062J36062D01*
G01*
X181750719Y-84075638D01*
G75*
G02*
X181750719Y-84003514I36062J36062D01*
G01*
G37*
G36*
G01*
X181185034Y-84569200D02*
X181573942Y-84180292D01*
G75*
G02*
X181646066Y-84180292I36062J-36062D01*
G01*
X182706726Y-85240952D01*
G75*
G02*
X182706726Y-85313076I-36062J-36062D01*
G01*
X182317818Y-85701984D01*
G75*
G02*
X182245694Y-85701984I-36062J36062D01*
G01*
X181185034Y-84641324D01*
G75*
G02*
X181185034Y-84569200I36062J36062D01*
G01*
G37*
G36*
G01*
X180619348Y-85134885D02*
X181008256Y-84745977D01*
G75*
G02*
X181080380Y-84745977I36062J-36062D01*
G01*
X182141040Y-85806637D01*
G75*
G02*
X182141040Y-85878761I-36062J-36062D01*
G01*
X181752132Y-86267669D01*
G75*
G02*
X181680008Y-86267669I-36062J36062D01*
G01*
X180619348Y-85207009D01*
G75*
G02*
X180619348Y-85134885I36062J36062D01*
G01*
G37*
G36*
G01*
X180053663Y-85700571D02*
X180442571Y-85311663D01*
G75*
G02*
X180514695Y-85311663I36062J-36062D01*
G01*
X181575355Y-86372323D01*
G75*
G02*
X181575355Y-86444447I-36062J-36062D01*
G01*
X181186447Y-86833355D01*
G75*
G02*
X181114323Y-86833355I-36062J36062D01*
G01*
X180053663Y-85772695D01*
G75*
G02*
X180053663Y-85700571I36062J36062D01*
G01*
G37*
G36*
G01*
X179487977Y-86266256D02*
X179876885Y-85877348D01*
G75*
G02*
X179949009Y-85877348I36062J-36062D01*
G01*
X181009669Y-86938008D01*
G75*
G02*
X181009669Y-87010132I-36062J-36062D01*
G01*
X180620761Y-87399040D01*
G75*
G02*
X180548637Y-87399040I-36062J36062D01*
G01*
X179487977Y-86338380D01*
G75*
G02*
X179487977Y-86266256I36062J36062D01*
G01*
G37*
G36*
G01*
X178922292Y-86831942D02*
X179311200Y-86443034D01*
G75*
G02*
X179383324Y-86443034I36062J-36062D01*
G01*
X180443984Y-87503694D01*
G75*
G02*
X180443984Y-87575818I-36062J-36062D01*
G01*
X180055076Y-87964726D01*
G75*
G02*
X179982952Y-87964726I-36062J36062D01*
G01*
X178922292Y-86904066D01*
G75*
G02*
X178922292Y-86831942I36062J36062D01*
G01*
G37*
G36*
G01*
X178356606Y-87397627D02*
X178745514Y-87008719D01*
G75*
G02*
X178817638Y-87008719I36062J-36062D01*
G01*
X179878298Y-88069379D01*
G75*
G02*
X179878298Y-88141503I-36062J-36062D01*
G01*
X179489390Y-88530411D01*
G75*
G02*
X179417266Y-88530411I-36062J36062D01*
G01*
X178356606Y-87469751D01*
G75*
G02*
X178356606Y-87397627I36062J36062D01*
G01*
G37*
G36*
G01*
X177790921Y-87963312D02*
X178179829Y-87574404D01*
G75*
G02*
X178251953Y-87574404I36062J-36062D01*
G01*
X179312613Y-88635064D01*
G75*
G02*
X179312613Y-88707188I-36062J-36062D01*
G01*
X178923705Y-89096096D01*
G75*
G02*
X178851581Y-89096096I-36062J36062D01*
G01*
X177790921Y-88035436D01*
G75*
G02*
X177790921Y-87963312I36062J36062D01*
G01*
G37*
G36*
G01*
X177225236Y-88528998D02*
X177614144Y-88140090D01*
G75*
G02*
X177686268Y-88140090I36062J-36062D01*
G01*
X178746928Y-89200750D01*
G75*
G02*
X178746928Y-89272874I-36062J-36062D01*
G01*
X178358020Y-89661782D01*
G75*
G02*
X178285896Y-89661782I-36062J36062D01*
G01*
X177225236Y-88601122D01*
G75*
G02*
X177225236Y-88528998I36062J36062D01*
G01*
G37*
G36*
G01*
X175209980Y-89661782D02*
X174821072Y-89272874D01*
G75*
G02*
X174821072Y-89200750I36062J36062D01*
G01*
X175881732Y-88140090D01*
G75*
G02*
X175953856Y-88140090I36062J-36062D01*
G01*
X176342764Y-88528998D01*
G75*
G02*
X176342764Y-88601122I-36062J-36062D01*
G01*
X175282104Y-89661782D01*
G75*
G02*
X175209980Y-89661782I-36062J36062D01*
G01*
G37*
G36*
G01*
X174644295Y-89096096D02*
X174255387Y-88707188D01*
G75*
G02*
X174255387Y-88635064I36062J36062D01*
G01*
X175316047Y-87574404D01*
G75*
G02*
X175388171Y-87574404I36062J-36062D01*
G01*
X175777079Y-87963312D01*
G75*
G02*
X175777079Y-88035436I-36062J-36062D01*
G01*
X174716419Y-89096096D01*
G75*
G02*
X174644295Y-89096096I-36062J36062D01*
G01*
G37*
G36*
G01*
X174078610Y-88530411D02*
X173689702Y-88141503D01*
G75*
G02*
X173689702Y-88069379I36062J36062D01*
G01*
X174750362Y-87008719D01*
G75*
G02*
X174822486Y-87008719I36062J-36062D01*
G01*
X175211394Y-87397627D01*
G75*
G02*
X175211394Y-87469751I-36062J-36062D01*
G01*
X174150734Y-88530411D01*
G75*
G02*
X174078610Y-88530411I-36062J36062D01*
G01*
G37*
G36*
G01*
X173512924Y-87964726D02*
X173124016Y-87575818D01*
G75*
G02*
X173124016Y-87503694I36062J36062D01*
G01*
X174184676Y-86443034D01*
G75*
G02*
X174256800Y-86443034I36062J-36062D01*
G01*
X174645708Y-86831942D01*
G75*
G02*
X174645708Y-86904066I-36062J-36062D01*
G01*
X173585048Y-87964726D01*
G75*
G02*
X173512924Y-87964726I-36062J36062D01*
G01*
G37*
G36*
G01*
X172947239Y-87399040D02*
X172558331Y-87010132D01*
G75*
G02*
X172558331Y-86938008I36062J36062D01*
G01*
X173618991Y-85877348D01*
G75*
G02*
X173691115Y-85877348I36062J-36062D01*
G01*
X174080023Y-86266256D01*
G75*
G02*
X174080023Y-86338380I-36062J-36062D01*
G01*
X173019363Y-87399040D01*
G75*
G02*
X172947239Y-87399040I-36062J36062D01*
G01*
G37*
G36*
G01*
X172381553Y-86833355D02*
X171992645Y-86444447D01*
G75*
G02*
X171992645Y-86372323I36062J36062D01*
G01*
X173053305Y-85311663D01*
G75*
G02*
X173125429Y-85311663I36062J-36062D01*
G01*
X173514337Y-85700571D01*
G75*
G02*
X173514337Y-85772695I-36062J-36062D01*
G01*
X172453677Y-86833355D01*
G75*
G02*
X172381553Y-86833355I-36062J36062D01*
G01*
G37*
G36*
G01*
X171815868Y-86267669D02*
X171426960Y-85878761D01*
G75*
G02*
X171426960Y-85806637I36062J36062D01*
G01*
X172487620Y-84745977D01*
G75*
G02*
X172559744Y-84745977I36062J-36062D01*
G01*
X172948652Y-85134885D01*
G75*
G02*
X172948652Y-85207009I-36062J-36062D01*
G01*
X171887992Y-86267669D01*
G75*
G02*
X171815868Y-86267669I-36062J36062D01*
G01*
G37*
G36*
G01*
X171250182Y-85701984D02*
X170861274Y-85313076D01*
G75*
G02*
X170861274Y-85240952I36062J36062D01*
G01*
X171921934Y-84180292D01*
G75*
G02*
X171994058Y-84180292I36062J-36062D01*
G01*
X172382966Y-84569200D01*
G75*
G02*
X172382966Y-84641324I-36062J-36062D01*
G01*
X171322306Y-85701984D01*
G75*
G02*
X171250182Y-85701984I-36062J36062D01*
G01*
G37*
G36*
G01*
X170684497Y-85136298D02*
X170295589Y-84747390D01*
G75*
G02*
X170295589Y-84675266I36062J36062D01*
G01*
X171356249Y-83614606D01*
G75*
G02*
X171428373Y-83614606I36062J-36062D01*
G01*
X171817281Y-84003514D01*
G75*
G02*
X171817281Y-84075638I-36062J-36062D01*
G01*
X170756621Y-85136298D01*
G75*
G02*
X170684497Y-85136298I-36062J36062D01*
G01*
G37*
G36*
G01*
X170118812Y-84570613D02*
X169729904Y-84181705D01*
G75*
G02*
X169729904Y-84109581I36062J36062D01*
G01*
X170790564Y-83048921D01*
G75*
G02*
X170862688Y-83048921I36062J-36062D01*
G01*
X171251596Y-83437829D01*
G75*
G02*
X171251596Y-83509953I-36062J-36062D01*
G01*
X170190936Y-84570613D01*
G75*
G02*
X170118812Y-84570613I-36062J36062D01*
G01*
G37*
G36*
G01*
X169553126Y-84004928D02*
X169164218Y-83616020D01*
G75*
G02*
X169164218Y-83543896I36062J36062D01*
G01*
X170224878Y-82483236D01*
G75*
G02*
X170297002Y-82483236I36062J-36062D01*
G01*
X170685910Y-82872144D01*
G75*
G02*
X170685910Y-82944268I-36062J-36062D01*
G01*
X169625250Y-84004928D01*
G75*
G02*
X169553126Y-84004928I-36062J36062D01*
G01*
G37*
G36*
G01*
X169164218Y-80467980D02*
X169553126Y-80079072D01*
G75*
G02*
X169625250Y-80079072I36062J-36062D01*
G01*
X170685910Y-81139732D01*
G75*
G02*
X170685910Y-81211856I-36062J-36062D01*
G01*
X170297002Y-81600764D01*
G75*
G02*
X170224878Y-81600764I-36062J36062D01*
G01*
X169164218Y-80540104D01*
G75*
G02*
X169164218Y-80467980I36062J36062D01*
G01*
G37*
G36*
G01*
X169729904Y-79902295D02*
X170118812Y-79513387D01*
G75*
G02*
X170190936Y-79513387I36062J-36062D01*
G01*
X171251596Y-80574047D01*
G75*
G02*
X171251596Y-80646171I-36062J-36062D01*
G01*
X170862688Y-81035079D01*
G75*
G02*
X170790564Y-81035079I-36062J36062D01*
G01*
X169729904Y-79974419D01*
G75*
G02*
X169729904Y-79902295I36062J36062D01*
G01*
G37*
G36*
G01*
X170295589Y-79336610D02*
X170684497Y-78947702D01*
G75*
G02*
X170756621Y-78947702I36062J-36062D01*
G01*
X171817281Y-80008362D01*
G75*
G02*
X171817281Y-80080486I-36062J-36062D01*
G01*
X171428373Y-80469394D01*
G75*
G02*
X171356249Y-80469394I-36062J36062D01*
G01*
X170295589Y-79408734D01*
G75*
G02*
X170295589Y-79336610I36062J36062D01*
G01*
G37*
G36*
G01*
X170861274Y-78770924D02*
X171250182Y-78382016D01*
G75*
G02*
X171322306Y-78382016I36062J-36062D01*
G01*
X172382966Y-79442676D01*
G75*
G02*
X172382966Y-79514800I-36062J-36062D01*
G01*
X171994058Y-79903708D01*
G75*
G02*
X171921934Y-79903708I-36062J36062D01*
G01*
X170861274Y-78843048D01*
G75*
G02*
X170861274Y-78770924I36062J36062D01*
G01*
G37*
G36*
G01*
X171426960Y-78205239D02*
X171815868Y-77816331D01*
G75*
G02*
X171887992Y-77816331I36062J-36062D01*
G01*
X172948652Y-78876991D01*
G75*
G02*
X172948652Y-78949115I-36062J-36062D01*
G01*
X172559744Y-79338023D01*
G75*
G02*
X172487620Y-79338023I-36062J36062D01*
G01*
X171426960Y-78277363D01*
G75*
G02*
X171426960Y-78205239I36062J36062D01*
G01*
G37*
G36*
G01*
X171992645Y-77639553D02*
X172381553Y-77250645D01*
G75*
G02*
X172453677Y-77250645I36062J-36062D01*
G01*
X173514337Y-78311305D01*
G75*
G02*
X173514337Y-78383429I-36062J-36062D01*
G01*
X173125429Y-78772337D01*
G75*
G02*
X173053305Y-78772337I-36062J36062D01*
G01*
X171992645Y-77711677D01*
G75*
G02*
X171992645Y-77639553I36062J36062D01*
G01*
G37*
G36*
G01*
X172558331Y-77073868D02*
X172947239Y-76684960D01*
G75*
G02*
X173019363Y-76684960I36062J-36062D01*
G01*
X174080023Y-77745620D01*
G75*
G02*
X174080023Y-77817744I-36062J-36062D01*
G01*
X173691115Y-78206652D01*
G75*
G02*
X173618991Y-78206652I-36062J36062D01*
G01*
X172558331Y-77145992D01*
G75*
G02*
X172558331Y-77073868I36062J36062D01*
G01*
G37*
G36*
G01*
X173124016Y-76508182D02*
X173512924Y-76119274D01*
G75*
G02*
X173585048Y-76119274I36062J-36062D01*
G01*
X174645708Y-77179934D01*
G75*
G02*
X174645708Y-77252058I-36062J-36062D01*
G01*
X174256800Y-77640966D01*
G75*
G02*
X174184676Y-77640966I-36062J36062D01*
G01*
X173124016Y-76580306D01*
G75*
G02*
X173124016Y-76508182I36062J36062D01*
G01*
G37*
G36*
G01*
X173689702Y-75942497D02*
X174078610Y-75553589D01*
G75*
G02*
X174150734Y-75553589I36062J-36062D01*
G01*
X175211394Y-76614249D01*
G75*
G02*
X175211394Y-76686373I-36062J-36062D01*
G01*
X174822486Y-77075281D01*
G75*
G02*
X174750362Y-77075281I-36062J36062D01*
G01*
X173689702Y-76014621D01*
G75*
G02*
X173689702Y-75942497I36062J36062D01*
G01*
G37*
G36*
G01*
X174255387Y-75376812D02*
X174644295Y-74987904D01*
G75*
G02*
X174716419Y-74987904I36062J-36062D01*
G01*
X175777079Y-76048564D01*
G75*
G02*
X175777079Y-76120688I-36062J-36062D01*
G01*
X175388171Y-76509596D01*
G75*
G02*
X175316047Y-76509596I-36062J36062D01*
G01*
X174255387Y-75448936D01*
G75*
G02*
X174255387Y-75376812I36062J36062D01*
G01*
G37*
G36*
G01*
X174821072Y-74811126D02*
X175209980Y-74422218D01*
G75*
G02*
X175282104Y-74422218I36062J-36062D01*
G01*
X176342764Y-75482878D01*
G75*
G02*
X176342764Y-75555002I-36062J-36062D01*
G01*
X175953856Y-75943910D01*
G75*
G02*
X175881732Y-75943910I-36062J36062D01*
G01*
X174821072Y-74883250D01*
G75*
G02*
X174821072Y-74811126I36062J36062D01*
G01*
G37*
G36*
G01*
X166405000Y-80280000D02*
X166405000Y-82280000D01*
G75*
G02*
X166354000Y-82331000I-51000J0D01*
G01*
X164354000Y-82331000D01*
G75*
G02*
X164303000Y-82280000I0J51000D01*
G01*
X164303000Y-80280000D01*
G75*
G02*
X164354000Y-80229000I51000J0D01*
G01*
X166354000Y-80229000D01*
G75*
G02*
X166405000Y-80280000I0J-51000D01*
G01*
G37*
D14*
X165354000Y-78780000D03*
X165354000Y-76280000D03*
G36*
G01*
X159505000Y-83380000D02*
X159505000Y-85380000D01*
G75*
G02*
X159454000Y-85431000I-51000J0D01*
G01*
X156254000Y-85431000D01*
G75*
G02*
X156203000Y-85380000I0J51000D01*
G01*
X156203000Y-83380000D01*
G75*
G02*
X156254000Y-83329000I51000J0D01*
G01*
X159454000Y-83329000D01*
G75*
G02*
X159505000Y-83380000I0J-51000D01*
G01*
G37*
G36*
G01*
X159505000Y-72180000D02*
X159505000Y-74180000D01*
G75*
G02*
X159454000Y-74231000I-51000J0D01*
G01*
X156254000Y-74231000D01*
G75*
G02*
X156203000Y-74180000I0J51000D01*
G01*
X156203000Y-72180000D01*
G75*
G02*
X156254000Y-72129000I51000J0D01*
G01*
X159454000Y-72129000D01*
G75*
G02*
X159505000Y-72180000I0J-51000D01*
G01*
G37*
X150854000Y-81280000D03*
X150854000Y-76280000D03*
D20*
G36*
X177756272Y-87997960D02*
G01*
X178887643Y-89129331D01*
X179164888Y-88852086D01*
X179166820Y-88851568D01*
X179168234Y-88852982D01*
X179167716Y-88854914D01*
X178872793Y-89149838D01*
X178784405Y-89238226D01*
X178782473Y-89238744D01*
X178781577Y-89238226D01*
X177648792Y-88105441D01*
X177648274Y-88103509D01*
X177648792Y-88102613D01*
X177665047Y-88086359D01*
X177665066Y-88086338D01*
X177753444Y-87997960D01*
X177755376Y-87997442D01*
X177756272Y-87997960D01*
G37*
G36*
X175814556Y-87997960D02*
G01*
X175902939Y-88086343D01*
X175902944Y-88086349D01*
X175919208Y-88102613D01*
X175919726Y-88104545D01*
X175919208Y-88105441D01*
X174786423Y-89238226D01*
X174784491Y-89238744D01*
X174783595Y-89238226D01*
X174695213Y-89149844D01*
X174695208Y-89149838D01*
X174678943Y-89133573D01*
X174678425Y-89131641D01*
X174678943Y-89130745D01*
X175811728Y-87997960D01*
X175813660Y-87997442D01*
X175814556Y-87997960D01*
G37*
G36*
X175248871Y-87432275D02*
G01*
X175353523Y-87536927D01*
X175354041Y-87538859D01*
X175353523Y-87539755D01*
X174220738Y-88672540D01*
X174218806Y-88673058D01*
X174217910Y-88672540D01*
X174113258Y-88567888D01*
X174112740Y-88565956D01*
X174113258Y-88565060D01*
X175246043Y-87432275D01*
X175247975Y-87431757D01*
X175248871Y-87432275D01*
G37*
G36*
X178321957Y-87432275D02*
G01*
X179454742Y-88565060D01*
X179455260Y-88566992D01*
X179454742Y-88567888D01*
X179350090Y-88672540D01*
X179348158Y-88673058D01*
X179347262Y-88672540D01*
X178214477Y-87539755D01*
X178213959Y-87537823D01*
X178214477Y-87536927D01*
X178319129Y-87432275D01*
X178321061Y-87431757D01*
X178321957Y-87432275D01*
G37*
G36*
X180020428Y-87999375D02*
G01*
X180020946Y-88001307D01*
X180020428Y-88002203D01*
X179932040Y-88090591D01*
X179645716Y-88376914D01*
X179643784Y-88377432D01*
X179642370Y-88376018D01*
X179642888Y-88374086D01*
X179911533Y-88105441D01*
X178780162Y-86974070D01*
X178779644Y-86972138D01*
X178780162Y-86971242D01*
X178868540Y-86882864D01*
X178868561Y-86882845D01*
X178884816Y-86866591D01*
X178887644Y-86866591D01*
X180020428Y-87999375D01*
G37*
G36*
X174683185Y-86866590D02*
G01*
X174699445Y-86882850D01*
X174699456Y-86882860D01*
X174787838Y-86971242D01*
X174788356Y-86973174D01*
X174787838Y-86974070D01*
X173655053Y-88106855D01*
X173653121Y-88107373D01*
X173652225Y-88106855D01*
X173635966Y-88090596D01*
X173635955Y-88090586D01*
X173547572Y-88002203D01*
X173547054Y-88000271D01*
X173547572Y-87999375D01*
X174680357Y-86866590D01*
X174682289Y-86866072D01*
X174683185Y-86866590D01*
G37*
G36*
X181151799Y-86868004D02*
G01*
X181152317Y-86869936D01*
X181151799Y-86870832D01*
X180481461Y-87541170D01*
X180479529Y-87541688D01*
X180478633Y-87541170D01*
X179345849Y-86408386D01*
X179345849Y-86405558D01*
X179362103Y-86389303D01*
X179362122Y-86389282D01*
X179450500Y-86300904D01*
X179452432Y-86300386D01*
X179453328Y-86300904D01*
X180584699Y-87432275D01*
X181042904Y-86974070D01*
X179911533Y-85842699D01*
X179911015Y-85840767D01*
X179911533Y-85839871D01*
X179999911Y-85751493D01*
X179999932Y-85751474D01*
X180016187Y-85735220D01*
X180019015Y-85735220D01*
X181151799Y-86868004D01*
G37*
G36*
X174117500Y-86300904D02*
G01*
X174205883Y-86389287D01*
X174205888Y-86389293D01*
X174222152Y-86405557D01*
X174222670Y-86407489D01*
X174222152Y-86408385D01*
X173089367Y-87541170D01*
X173087435Y-87541688D01*
X173086539Y-87541170D01*
X172998157Y-87452788D01*
X172998152Y-87452782D01*
X172981887Y-87436517D01*
X172981369Y-87434585D01*
X172981887Y-87433689D01*
X174114672Y-86300904D01*
X174116604Y-86300386D01*
X174117500Y-86300904D01*
G37*
G36*
X173551814Y-85735219D02*
G01*
X173568074Y-85751479D01*
X173568085Y-85751489D01*
X173656467Y-85839871D01*
X173656985Y-85841803D01*
X173656467Y-85842699D01*
X172523682Y-86975484D01*
X172521750Y-86976002D01*
X172520854Y-86975484D01*
X172504595Y-86959225D01*
X172504584Y-86959215D01*
X172416201Y-86870832D01*
X172415683Y-86868900D01*
X172416201Y-86868004D01*
X173548986Y-85735219D01*
X173550918Y-85734701D01*
X173551814Y-85735219D01*
G37*
G36*
X182283170Y-85736633D02*
G01*
X182283688Y-85738565D01*
X182283170Y-85739461D01*
X181612832Y-86409799D01*
X181610900Y-86410317D01*
X181610004Y-86409799D01*
X180477220Y-85277015D01*
X180477220Y-85274187D01*
X180493474Y-85257932D01*
X180493493Y-85257911D01*
X180581871Y-85169533D01*
X180583803Y-85169015D01*
X180584699Y-85169533D01*
X181716070Y-86300904D01*
X182174275Y-85842699D01*
X181042904Y-84711328D01*
X181042386Y-84709396D01*
X181042904Y-84708500D01*
X181131282Y-84620122D01*
X181131303Y-84620103D01*
X181147558Y-84603849D01*
X181150386Y-84603849D01*
X182283170Y-85736633D01*
G37*
G36*
X172986129Y-85169533D02*
G01*
X173074512Y-85257916D01*
X173074517Y-85257922D01*
X173090781Y-85274186D01*
X173091299Y-85276118D01*
X173090781Y-85277014D01*
X171957996Y-86409799D01*
X171956064Y-86410317D01*
X171955168Y-86409799D01*
X171866786Y-86321417D01*
X171866781Y-86321411D01*
X171850516Y-86305146D01*
X171849998Y-86303214D01*
X171850516Y-86302318D01*
X172983301Y-85169533D01*
X172985233Y-85169015D01*
X172986129Y-85169533D01*
G37*
G36*
X172420443Y-84603848D02*
G01*
X172436703Y-84620108D01*
X172436714Y-84620118D01*
X172525096Y-84708500D01*
X172525614Y-84710432D01*
X172525096Y-84711328D01*
X171392311Y-85844113D01*
X171390379Y-85844631D01*
X171389483Y-85844113D01*
X171373224Y-85827854D01*
X171373213Y-85827844D01*
X171284830Y-85739461D01*
X171284312Y-85737529D01*
X171284830Y-85736633D01*
X172417615Y-84603848D01*
X172419547Y-84603330D01*
X172420443Y-84603848D01*
G37*
G36*
X181716070Y-84038162D02*
G01*
X182847441Y-85169533D01*
X183090888Y-84926086D01*
X183092820Y-84925568D01*
X183094234Y-84926982D01*
X183093716Y-84928914D01*
X182832591Y-85190040D01*
X182744203Y-85278428D01*
X182742271Y-85278946D01*
X182741375Y-85278428D01*
X181608591Y-84145644D01*
X181608591Y-84142816D01*
X181624845Y-84126561D01*
X181624864Y-84126540D01*
X181713242Y-84038162D01*
X181715174Y-84037644D01*
X181716070Y-84038162D01*
G37*
G36*
X171854758Y-84038162D02*
G01*
X171943141Y-84126545D01*
X171943146Y-84126551D01*
X171959410Y-84142815D01*
X171959928Y-84144747D01*
X171959410Y-84145643D01*
X170826625Y-85278428D01*
X170824693Y-85278946D01*
X170823797Y-85278428D01*
X170735415Y-85190046D01*
X170735410Y-85190040D01*
X170719145Y-85173775D01*
X170718627Y-85171843D01*
X170719145Y-85170947D01*
X171851930Y-84038162D01*
X171853862Y-84037644D01*
X171854758Y-84038162D01*
G37*
G36*
X171289073Y-83472477D02*
G01*
X171393725Y-83577129D01*
X171394243Y-83579061D01*
X171393725Y-83579957D01*
X170260940Y-84712742D01*
X170259008Y-84713260D01*
X170258112Y-84712742D01*
X170153460Y-84608090D01*
X170152942Y-84606158D01*
X170153460Y-84605262D01*
X171286245Y-83472477D01*
X171288177Y-83471959D01*
X171289073Y-83472477D01*
G37*
G36*
X182281755Y-83472477D02*
G01*
X183414540Y-84605262D01*
X183415058Y-84607194D01*
X183414540Y-84608090D01*
X183309888Y-84712742D01*
X183307956Y-84713260D01*
X183307060Y-84712742D01*
X182174275Y-83579957D01*
X182173757Y-83578025D01*
X182174275Y-83577129D01*
X182278927Y-83472477D01*
X182280859Y-83471959D01*
X182281755Y-83472477D01*
G37*
G36*
X182847441Y-82906792D02*
G01*
X183980226Y-84039577D01*
X183980744Y-84041509D01*
X183980226Y-84042405D01*
X183891838Y-84130793D01*
X183419216Y-84603414D01*
X183417284Y-84603932D01*
X183415870Y-84602518D01*
X183416388Y-84600586D01*
X183871331Y-84145643D01*
X182739960Y-83014272D01*
X182739442Y-83012340D01*
X182739960Y-83011444D01*
X182828338Y-82923066D01*
X182828359Y-82923047D01*
X182844613Y-82906792D01*
X182846545Y-82906274D01*
X182847441Y-82906792D01*
G37*
G36*
X170723387Y-82906792D02*
G01*
X170739647Y-82923052D01*
X170739658Y-82923062D01*
X170828040Y-83011444D01*
X170828558Y-83013376D01*
X170828040Y-83014272D01*
X169695255Y-84147057D01*
X169693323Y-84147575D01*
X169692427Y-84147057D01*
X169676168Y-84130798D01*
X169676157Y-84130788D01*
X169587774Y-84042405D01*
X169587256Y-84040473D01*
X169587774Y-84039577D01*
X170720559Y-82906792D01*
X170722491Y-82906274D01*
X170723387Y-82906792D01*
G37*
G36*
X169695255Y-79936943D02*
G01*
X170828040Y-81069728D01*
X170828558Y-81071660D01*
X170828040Y-81072556D01*
X170739652Y-81160944D01*
X170262354Y-81638241D01*
X170260422Y-81638759D01*
X170259008Y-81637345D01*
X170259526Y-81635413D01*
X170719145Y-81175794D01*
X169587774Y-80044423D01*
X169587256Y-80042491D01*
X169587774Y-80041595D01*
X169676152Y-79953217D01*
X169676173Y-79953198D01*
X169692427Y-79936943D01*
X169694359Y-79936425D01*
X169695255Y-79936943D01*
G37*
G36*
X183875573Y-79936943D02*
G01*
X183891833Y-79953203D01*
X183891844Y-79953213D01*
X183980226Y-80041595D01*
X183980744Y-80043527D01*
X183980226Y-80044423D01*
X182847441Y-81177208D01*
X182845509Y-81177726D01*
X182844613Y-81177208D01*
X182828354Y-81160949D01*
X182828343Y-81160939D01*
X182739960Y-81072556D01*
X182739442Y-81070624D01*
X182739960Y-81069728D01*
X183872745Y-79936943D01*
X183874677Y-79936425D01*
X183875573Y-79936943D01*
G37*
G36*
X170260940Y-79371258D02*
G01*
X171393725Y-80504043D01*
X171394243Y-80505975D01*
X171393725Y-80506871D01*
X171289073Y-80611523D01*
X171287141Y-80612041D01*
X171286245Y-80611523D01*
X170153460Y-79478738D01*
X170152942Y-79476806D01*
X170153460Y-79475910D01*
X170258112Y-79371258D01*
X170260044Y-79370740D01*
X170260940Y-79371258D01*
G37*
G36*
X183309888Y-79371258D02*
G01*
X183414540Y-79475910D01*
X183415058Y-79477842D01*
X183414540Y-79478738D01*
X182281755Y-80611523D01*
X182279823Y-80612041D01*
X182278927Y-80611523D01*
X182174275Y-80506871D01*
X182173757Y-80504939D01*
X182174275Y-80504043D01*
X183307060Y-79371258D01*
X183308992Y-79370740D01*
X183309888Y-79371258D01*
G37*
G36*
X182744203Y-78805572D02*
G01*
X182832586Y-78893955D01*
X182832591Y-78893961D01*
X182848855Y-78910225D01*
X182849373Y-78912157D01*
X182848855Y-78913053D01*
X181716070Y-80045838D01*
X181714138Y-80046356D01*
X181713242Y-80045838D01*
X181624860Y-79957456D01*
X181624855Y-79957450D01*
X181608590Y-79941185D01*
X181608072Y-79939253D01*
X181608590Y-79938357D01*
X182741375Y-78805572D01*
X182743307Y-78805054D01*
X182744203Y-78805572D01*
G37*
G36*
X172525096Y-79372672D02*
G01*
X172525614Y-79374604D01*
X172525096Y-79375500D01*
X171854758Y-80045838D01*
X171852826Y-80046356D01*
X171851930Y-80045838D01*
X170719145Y-78913053D01*
X170718627Y-78911121D01*
X170719145Y-78910225D01*
X170735400Y-78893971D01*
X170735419Y-78893950D01*
X170823797Y-78805572D01*
X170825729Y-78805054D01*
X170826625Y-78805572D01*
X171957996Y-79936943D01*
X172416201Y-79478738D01*
X171284830Y-78347367D01*
X171284312Y-78345435D01*
X171284830Y-78344539D01*
X171373208Y-78256161D01*
X171373229Y-78256142D01*
X171389484Y-78239888D01*
X171392312Y-78239888D01*
X172525096Y-79372672D01*
G37*
G36*
X182178517Y-78239887D02*
G01*
X182194777Y-78256147D01*
X182194788Y-78256157D01*
X182283170Y-78344539D01*
X182283688Y-78346471D01*
X182283170Y-78347367D01*
X181150385Y-79480152D01*
X181148453Y-79480670D01*
X181147557Y-79480152D01*
X181131298Y-79463893D01*
X181131287Y-79463883D01*
X181042904Y-79375500D01*
X181042386Y-79373568D01*
X181042904Y-79372672D01*
X182175689Y-78239887D01*
X182177621Y-78239369D01*
X182178517Y-78239887D01*
G37*
G36*
X173656467Y-78241301D02*
G01*
X173656985Y-78243233D01*
X173656467Y-78244129D01*
X172986129Y-78914467D01*
X172984197Y-78914985D01*
X172983301Y-78914467D01*
X171850517Y-77781683D01*
X171850517Y-77778855D01*
X171866771Y-77762600D01*
X171866790Y-77762579D01*
X171955168Y-77674201D01*
X171957100Y-77673683D01*
X171957996Y-77674201D01*
X173089367Y-78805572D01*
X173547572Y-78347367D01*
X172416201Y-77215996D01*
X172415683Y-77214064D01*
X172416201Y-77213168D01*
X172504579Y-77124790D01*
X172504600Y-77124771D01*
X172520855Y-77108517D01*
X172523683Y-77108517D01*
X173656467Y-78241301D01*
G37*
G36*
X181612832Y-77674201D02*
G01*
X181701215Y-77762584D01*
X181701220Y-77762590D01*
X181717484Y-77778854D01*
X181718002Y-77780786D01*
X181717484Y-77781682D01*
X180584699Y-78914467D01*
X180582767Y-78914985D01*
X180581871Y-78914467D01*
X180493489Y-78826085D01*
X180493484Y-78826079D01*
X180477219Y-78809814D01*
X180476701Y-78807882D01*
X180477219Y-78806986D01*
X181610004Y-77674201D01*
X181611936Y-77673683D01*
X181612832Y-77674201D01*
G37*
G36*
X181047146Y-77108516D02*
G01*
X181063406Y-77124776D01*
X181063417Y-77124786D01*
X181151799Y-77213168D01*
X181152317Y-77215100D01*
X181151799Y-77215996D01*
X180019014Y-78348781D01*
X180017082Y-78349299D01*
X180016186Y-78348781D01*
X179999927Y-78332522D01*
X179999916Y-78332512D01*
X179911533Y-78244129D01*
X179911015Y-78242197D01*
X179911533Y-78241301D01*
X181044318Y-77108516D01*
X181046250Y-77107998D01*
X181047146Y-77108516D01*
G37*
G36*
X180481461Y-76542830D02*
G01*
X180569844Y-76631213D01*
X180569849Y-76631219D01*
X180586113Y-76647483D01*
X180586631Y-76649415D01*
X180586113Y-76650311D01*
X179453328Y-77783096D01*
X179451396Y-77783614D01*
X179450500Y-77783096D01*
X179362118Y-77694714D01*
X179362113Y-77694708D01*
X179345848Y-77678443D01*
X179345330Y-77676511D01*
X179345848Y-77675615D01*
X180478633Y-76542830D01*
X180480565Y-76542312D01*
X180481461Y-76542830D01*
G37*
G36*
X173655053Y-75977145D02*
G01*
X174787838Y-77109930D01*
X174788356Y-77111862D01*
X174787838Y-77112758D01*
X174117500Y-77783096D01*
X174115568Y-77783614D01*
X174114672Y-77783096D01*
X172981888Y-76650312D01*
X172981888Y-76647484D01*
X172998142Y-76631229D01*
X172998161Y-76631208D01*
X173086539Y-76542830D01*
X173088471Y-76542312D01*
X173089367Y-76542830D01*
X174220738Y-77674201D01*
X174678943Y-77215996D01*
X173547572Y-76084625D01*
X173547054Y-76082693D01*
X173547572Y-76081797D01*
X173635950Y-75993419D01*
X173635971Y-75993400D01*
X173652225Y-75977145D01*
X173654157Y-75976627D01*
X173655053Y-75977145D01*
G37*
G36*
X179915775Y-75977145D02*
G01*
X179932035Y-75993405D01*
X179932046Y-75993415D01*
X180020428Y-76081797D01*
X180020946Y-76083729D01*
X180020428Y-76084625D01*
X178887643Y-77217410D01*
X178885711Y-77217928D01*
X178884815Y-77217410D01*
X178868556Y-77201151D01*
X178868545Y-77201141D01*
X178780162Y-77112758D01*
X178779644Y-77110826D01*
X178780162Y-77109930D01*
X179912947Y-75977145D01*
X179914879Y-75976627D01*
X179915775Y-75977145D01*
G37*
G36*
X174220738Y-75411460D02*
G01*
X175353523Y-76544245D01*
X175354041Y-76546177D01*
X175353523Y-76547073D01*
X175248871Y-76651725D01*
X175246939Y-76652243D01*
X175246043Y-76651725D01*
X174113258Y-75518940D01*
X174112740Y-75517008D01*
X174113258Y-75516112D01*
X174217910Y-75411460D01*
X174219842Y-75410942D01*
X174220738Y-75411460D01*
G37*
G36*
X179350090Y-75411460D02*
G01*
X179454742Y-75516112D01*
X179455260Y-75518044D01*
X179454742Y-75518940D01*
X178321957Y-76651725D01*
X178320025Y-76652243D01*
X178319129Y-76651725D01*
X178214477Y-76547073D01*
X178213959Y-76545141D01*
X178214477Y-76544245D01*
X179347262Y-75411460D01*
X179349194Y-75410942D01*
X179350090Y-75411460D01*
G37*
G36*
X178784405Y-74845774D02*
G01*
X178872788Y-74934157D01*
X178872793Y-74934163D01*
X178889057Y-74950427D01*
X178889575Y-74952359D01*
X178889057Y-74953255D01*
X177756272Y-76086040D01*
X177754340Y-76086558D01*
X177753444Y-76086040D01*
X177665062Y-75997658D01*
X177665057Y-75997652D01*
X177648792Y-75981387D01*
X177648274Y-75979455D01*
X177648792Y-75978559D01*
X178781577Y-74845774D01*
X178783509Y-74845256D01*
X178784405Y-74845774D01*
G37*
G36*
X174786423Y-74845774D02*
G01*
X175917794Y-75977145D01*
X176377413Y-75517526D01*
X176379345Y-75517008D01*
X176380759Y-75518422D01*
X176380241Y-75520354D01*
X175902944Y-75997652D01*
X175814556Y-76086040D01*
X175812624Y-76086558D01*
X175811728Y-76086040D01*
X174678943Y-74953255D01*
X174678425Y-74951323D01*
X174678943Y-74950427D01*
X174695198Y-74934173D01*
X174695217Y-74934152D01*
X174783595Y-74845774D01*
X174785527Y-74845256D01*
X174786423Y-74845774D01*
G37*
G36*
X176685509Y-71902767D02*
G01*
X176697033Y-71916810D01*
X176715670Y-71932105D01*
X176736934Y-71943470D01*
X176760009Y-71950470D01*
X176784000Y-71952833D01*
X176807991Y-71950470D01*
X176831066Y-71943470D01*
X176852330Y-71932105D01*
X176870967Y-71916810D01*
X176882491Y-71902767D01*
X176884363Y-71902063D01*
X176885909Y-71903331D01*
X176885700Y-71905147D01*
X176857123Y-71947917D01*
X176827191Y-72020178D01*
X176811931Y-72096894D01*
X176811931Y-72175106D01*
X176827191Y-72251822D01*
X176857123Y-72324083D01*
X176885700Y-72366853D01*
X176885831Y-72368849D01*
X176884168Y-72369960D01*
X176882491Y-72369233D01*
X176870967Y-72355190D01*
X176852330Y-72339895D01*
X176831066Y-72328530D01*
X176807991Y-72321530D01*
X176784000Y-72319167D01*
X176760009Y-72321530D01*
X176736934Y-72328530D01*
X176715670Y-72339895D01*
X176697033Y-72355190D01*
X176685509Y-72369233D01*
X176683637Y-72369937D01*
X176682091Y-72368669D01*
X176682300Y-72366853D01*
X176710877Y-72324083D01*
X176740809Y-72251822D01*
X176756069Y-72175106D01*
X176756069Y-72096894D01*
X176740809Y-72020178D01*
X176710877Y-71947917D01*
X176682300Y-71905147D01*
X176682169Y-71903151D01*
X176683832Y-71902040D01*
X176685509Y-71902767D01*
G37*
G36*
X175835509Y-71902767D02*
G01*
X175847033Y-71916810D01*
X175865670Y-71932105D01*
X175886934Y-71943470D01*
X175910009Y-71950470D01*
X175934000Y-71952833D01*
X175957991Y-71950470D01*
X175981066Y-71943470D01*
X176002330Y-71932105D01*
X176020967Y-71916810D01*
X176032491Y-71902767D01*
X176034363Y-71902063D01*
X176035909Y-71903331D01*
X176035700Y-71905147D01*
X176007123Y-71947917D01*
X175977191Y-72020178D01*
X175961931Y-72096894D01*
X175961931Y-72175106D01*
X175977191Y-72251822D01*
X176007123Y-72324083D01*
X176035700Y-72366853D01*
X176035831Y-72368849D01*
X176034168Y-72369960D01*
X176032491Y-72369233D01*
X176020967Y-72355190D01*
X176002330Y-72339895D01*
X175981066Y-72328530D01*
X175957991Y-72321530D01*
X175934000Y-72319167D01*
X175910009Y-72321530D01*
X175886934Y-72328530D01*
X175865670Y-72339895D01*
X175847033Y-72355190D01*
X175835509Y-72369233D01*
X175833637Y-72369937D01*
X175832091Y-72368669D01*
X175832300Y-72366853D01*
X175860877Y-72324083D01*
X175890809Y-72251822D01*
X175906069Y-72175106D01*
X175906069Y-72096894D01*
X175890809Y-72020178D01*
X175860877Y-71947917D01*
X175832300Y-71905147D01*
X175832169Y-71903151D01*
X175833832Y-71902040D01*
X175835509Y-71902767D01*
G37*
G36*
X177535509Y-71902767D02*
G01*
X177547033Y-71916810D01*
X177565670Y-71932105D01*
X177586934Y-71943470D01*
X177610009Y-71950470D01*
X177634000Y-71952833D01*
X177657991Y-71950470D01*
X177681066Y-71943470D01*
X177702330Y-71932105D01*
X177720967Y-71916810D01*
X177732491Y-71902767D01*
X177734363Y-71902063D01*
X177735909Y-71903331D01*
X177735700Y-71905147D01*
X177707123Y-71947917D01*
X177677191Y-72020178D01*
X177661931Y-72096894D01*
X177661931Y-72175106D01*
X177677191Y-72251822D01*
X177707123Y-72324083D01*
X177735700Y-72366853D01*
X177735831Y-72368849D01*
X177734168Y-72369960D01*
X177732491Y-72369233D01*
X177720967Y-72355190D01*
X177702330Y-72339895D01*
X177681066Y-72328530D01*
X177657991Y-72321530D01*
X177634000Y-72319167D01*
X177610009Y-72321530D01*
X177586934Y-72328530D01*
X177565670Y-72339895D01*
X177547033Y-72355190D01*
X177535509Y-72369233D01*
X177533637Y-72369937D01*
X177532091Y-72368669D01*
X177532300Y-72366853D01*
X177560877Y-72324083D01*
X177590809Y-72251822D01*
X177606069Y-72175106D01*
X177606069Y-72096894D01*
X177590809Y-72020178D01*
X177560877Y-71947917D01*
X177532300Y-71905147D01*
X177532169Y-71903151D01*
X177533832Y-71902040D01*
X177535509Y-71902767D01*
G37*
G36*
X174985509Y-71902767D02*
G01*
X174997033Y-71916810D01*
X175015670Y-71932105D01*
X175036934Y-71943470D01*
X175060009Y-71950470D01*
X175084000Y-71952833D01*
X175107991Y-71950470D01*
X175131066Y-71943470D01*
X175152330Y-71932105D01*
X175170967Y-71916810D01*
X175182491Y-71902767D01*
X175184363Y-71902063D01*
X175185909Y-71903331D01*
X175185700Y-71905147D01*
X175157123Y-71947917D01*
X175127191Y-72020178D01*
X175111931Y-72096894D01*
X175111931Y-72175106D01*
X175127191Y-72251822D01*
X175157123Y-72324083D01*
X175185700Y-72366853D01*
X175185831Y-72368849D01*
X175184168Y-72369960D01*
X175182491Y-72369233D01*
X175170967Y-72355190D01*
X175152330Y-72339895D01*
X175131066Y-72328530D01*
X175107991Y-72321530D01*
X175084000Y-72319167D01*
X175060009Y-72321530D01*
X175036934Y-72328530D01*
X175015670Y-72339895D01*
X174997033Y-72355190D01*
X174985509Y-72369233D01*
X174983637Y-72369937D01*
X174982091Y-72368669D01*
X174982300Y-72366853D01*
X175010877Y-72324083D01*
X175040809Y-72251822D01*
X175056069Y-72175106D01*
X175056069Y-72096894D01*
X175040809Y-72020178D01*
X175010877Y-71947917D01*
X174982300Y-71905147D01*
X174982169Y-71903151D01*
X174983832Y-71902040D01*
X174985509Y-71902767D01*
G37*
G36*
X179235509Y-71902767D02*
G01*
X179247033Y-71916810D01*
X179265670Y-71932105D01*
X179286934Y-71943470D01*
X179310009Y-71950470D01*
X179334000Y-71952833D01*
X179357991Y-71950470D01*
X179381066Y-71943470D01*
X179402330Y-71932105D01*
X179420967Y-71916810D01*
X179432491Y-71902767D01*
X179434363Y-71902063D01*
X179435909Y-71903331D01*
X179435700Y-71905147D01*
X179407123Y-71947917D01*
X179377191Y-72020178D01*
X179361931Y-72096894D01*
X179361931Y-72175106D01*
X179377191Y-72251822D01*
X179407123Y-72324083D01*
X179435700Y-72366853D01*
X179435831Y-72368849D01*
X179434168Y-72369960D01*
X179432491Y-72369233D01*
X179420967Y-72355190D01*
X179402330Y-72339895D01*
X179381066Y-72328530D01*
X179357991Y-72321530D01*
X179334000Y-72319167D01*
X179310009Y-72321530D01*
X179286934Y-72328530D01*
X179265670Y-72339895D01*
X179247033Y-72355190D01*
X179235509Y-72369233D01*
X179233637Y-72369937D01*
X179232091Y-72368669D01*
X179232300Y-72366853D01*
X179260877Y-72324083D01*
X179290809Y-72251822D01*
X179306069Y-72175106D01*
X179306069Y-72096894D01*
X179290809Y-72020178D01*
X179260877Y-71947917D01*
X179232300Y-71905147D01*
X179232169Y-71903151D01*
X179233832Y-71902040D01*
X179235509Y-71902767D01*
G37*
G36*
X174135509Y-71902767D02*
G01*
X174147033Y-71916810D01*
X174165670Y-71932105D01*
X174186934Y-71943470D01*
X174210009Y-71950470D01*
X174234000Y-71952833D01*
X174257991Y-71950470D01*
X174281066Y-71943470D01*
X174302330Y-71932105D01*
X174320967Y-71916810D01*
X174332491Y-71902767D01*
X174334363Y-71902063D01*
X174335909Y-71903331D01*
X174335700Y-71905147D01*
X174307123Y-71947917D01*
X174277191Y-72020178D01*
X174261931Y-72096894D01*
X174261931Y-72175106D01*
X174277191Y-72251822D01*
X174307123Y-72324083D01*
X174335700Y-72366853D01*
X174335831Y-72368849D01*
X174334168Y-72369960D01*
X174332491Y-72369233D01*
X174320967Y-72355190D01*
X174302330Y-72339895D01*
X174281066Y-72328530D01*
X174257991Y-72321530D01*
X174234000Y-72319167D01*
X174210009Y-72321530D01*
X174186934Y-72328530D01*
X174165670Y-72339895D01*
X174147033Y-72355190D01*
X174135509Y-72369233D01*
X174133637Y-72369937D01*
X174132091Y-72368669D01*
X174132300Y-72366853D01*
X174160877Y-72324083D01*
X174190809Y-72251822D01*
X174206069Y-72175106D01*
X174206069Y-72096894D01*
X174190809Y-72020178D01*
X174160877Y-71947917D01*
X174132300Y-71905147D01*
X174132169Y-71903151D01*
X174133832Y-71902040D01*
X174135509Y-71902767D01*
G37*
G36*
X178385509Y-71902767D02*
G01*
X178397033Y-71916810D01*
X178415670Y-71932105D01*
X178436934Y-71943470D01*
X178460009Y-71950470D01*
X178484000Y-71952833D01*
X178507991Y-71950470D01*
X178531066Y-71943470D01*
X178552330Y-71932105D01*
X178570967Y-71916810D01*
X178582491Y-71902767D01*
X178584363Y-71902063D01*
X178585909Y-71903331D01*
X178585700Y-71905147D01*
X178557123Y-71947917D01*
X178527191Y-72020178D01*
X178511931Y-72096894D01*
X178511931Y-72175106D01*
X178527191Y-72251822D01*
X178557123Y-72324083D01*
X178585700Y-72366853D01*
X178585831Y-72368849D01*
X178584168Y-72369960D01*
X178582491Y-72369233D01*
X178570967Y-72355190D01*
X178552330Y-72339895D01*
X178531066Y-72328530D01*
X178507991Y-72321530D01*
X178484000Y-72319167D01*
X178460009Y-72321530D01*
X178436934Y-72328530D01*
X178415670Y-72339895D01*
X178397033Y-72355190D01*
X178385509Y-72369233D01*
X178383637Y-72369937D01*
X178382091Y-72368669D01*
X178382300Y-72366853D01*
X178410877Y-72324083D01*
X178440809Y-72251822D01*
X178456069Y-72175106D01*
X178456069Y-72096894D01*
X178440809Y-72020178D01*
X178410877Y-71947917D01*
X178382300Y-71905147D01*
X178382169Y-71903151D01*
X178383832Y-71902040D01*
X178385509Y-71902767D01*
G37*
G36*
X175835509Y-70552767D02*
G01*
X175847033Y-70566810D01*
X175865670Y-70582105D01*
X175886934Y-70593470D01*
X175910009Y-70600470D01*
X175934000Y-70602833D01*
X175957991Y-70600470D01*
X175981066Y-70593470D01*
X176002330Y-70582105D01*
X176020967Y-70566810D01*
X176032491Y-70552767D01*
X176034363Y-70552063D01*
X176035909Y-70553331D01*
X176035700Y-70555147D01*
X176007123Y-70597917D01*
X175977191Y-70670178D01*
X175961931Y-70746894D01*
X175961931Y-70825106D01*
X175977191Y-70901822D01*
X176007123Y-70974083D01*
X176035700Y-71016853D01*
X176035831Y-71018849D01*
X176034168Y-71019960D01*
X176032491Y-71019233D01*
X176020967Y-71005190D01*
X176002330Y-70989895D01*
X175981066Y-70978530D01*
X175957991Y-70971530D01*
X175934000Y-70969167D01*
X175910009Y-70971530D01*
X175886934Y-70978530D01*
X175865670Y-70989895D01*
X175847033Y-71005190D01*
X175835509Y-71019233D01*
X175833637Y-71019937D01*
X175832091Y-71018669D01*
X175832300Y-71016853D01*
X175860877Y-70974083D01*
X175890809Y-70901822D01*
X175906069Y-70825106D01*
X175906069Y-70746894D01*
X175890809Y-70670178D01*
X175860877Y-70597917D01*
X175832300Y-70555147D01*
X175832169Y-70553151D01*
X175833832Y-70552040D01*
X175835509Y-70552767D01*
G37*
G36*
X176685509Y-70552767D02*
G01*
X176697033Y-70566810D01*
X176715670Y-70582105D01*
X176736934Y-70593470D01*
X176760009Y-70600470D01*
X176784000Y-70602833D01*
X176807991Y-70600470D01*
X176831066Y-70593470D01*
X176852330Y-70582105D01*
X176870967Y-70566810D01*
X176882491Y-70552767D01*
X176884363Y-70552063D01*
X176885909Y-70553331D01*
X176885700Y-70555147D01*
X176857123Y-70597917D01*
X176827191Y-70670178D01*
X176811931Y-70746894D01*
X176811931Y-70825106D01*
X176827191Y-70901822D01*
X176857123Y-70974083D01*
X176885700Y-71016853D01*
X176885831Y-71018849D01*
X176884168Y-71019960D01*
X176882491Y-71019233D01*
X176870967Y-71005190D01*
X176852330Y-70989895D01*
X176831066Y-70978530D01*
X176807991Y-70971530D01*
X176784000Y-70969167D01*
X176760009Y-70971530D01*
X176736934Y-70978530D01*
X176715670Y-70989895D01*
X176697033Y-71005190D01*
X176685509Y-71019233D01*
X176683637Y-71019937D01*
X176682091Y-71018669D01*
X176682300Y-71016853D01*
X176710877Y-70974083D01*
X176740809Y-70901822D01*
X176756069Y-70825106D01*
X176756069Y-70746894D01*
X176740809Y-70670178D01*
X176710877Y-70597917D01*
X176682300Y-70555147D01*
X176682169Y-70553151D01*
X176683832Y-70552040D01*
X176685509Y-70552767D01*
G37*
G36*
X174135509Y-70552767D02*
G01*
X174147033Y-70566810D01*
X174165670Y-70582105D01*
X174186934Y-70593470D01*
X174210009Y-70600470D01*
X174234000Y-70602833D01*
X174257991Y-70600470D01*
X174281066Y-70593470D01*
X174302330Y-70582105D01*
X174320967Y-70566810D01*
X174332491Y-70552767D01*
X174334363Y-70552063D01*
X174335909Y-70553331D01*
X174335700Y-70555147D01*
X174307123Y-70597917D01*
X174277191Y-70670178D01*
X174261931Y-70746894D01*
X174261931Y-70825106D01*
X174277191Y-70901822D01*
X174307123Y-70974083D01*
X174335700Y-71016853D01*
X174335831Y-71018849D01*
X174334168Y-71019960D01*
X174332491Y-71019233D01*
X174320967Y-71005190D01*
X174302330Y-70989895D01*
X174281066Y-70978530D01*
X174257991Y-70971530D01*
X174234000Y-70969167D01*
X174210009Y-70971530D01*
X174186934Y-70978530D01*
X174165670Y-70989895D01*
X174147033Y-71005190D01*
X174135509Y-71019233D01*
X174133637Y-71019937D01*
X174132091Y-71018669D01*
X174132300Y-71016853D01*
X174160877Y-70974083D01*
X174190809Y-70901822D01*
X174206069Y-70825106D01*
X174206069Y-70746894D01*
X174190809Y-70670178D01*
X174160877Y-70597917D01*
X174132300Y-70555147D01*
X174132169Y-70553151D01*
X174133832Y-70552040D01*
X174135509Y-70552767D01*
G37*
G36*
X179235509Y-70552767D02*
G01*
X179247033Y-70566810D01*
X179265670Y-70582105D01*
X179286934Y-70593470D01*
X179310009Y-70600470D01*
X179334000Y-70602833D01*
X179357991Y-70600470D01*
X179381066Y-70593470D01*
X179402330Y-70582105D01*
X179420967Y-70566810D01*
X179432491Y-70552767D01*
X179434363Y-70552063D01*
X179435909Y-70553331D01*
X179435700Y-70555147D01*
X179407123Y-70597917D01*
X179377191Y-70670178D01*
X179361931Y-70746894D01*
X179361931Y-70825106D01*
X179377191Y-70901822D01*
X179407123Y-70974083D01*
X179435700Y-71016853D01*
X179435831Y-71018849D01*
X179434168Y-71019960D01*
X179432491Y-71019233D01*
X179420967Y-71005190D01*
X179402330Y-70989895D01*
X179381066Y-70978530D01*
X179357991Y-70971530D01*
X179334000Y-70969167D01*
X179310009Y-70971530D01*
X179286934Y-70978530D01*
X179265670Y-70989895D01*
X179247033Y-71005190D01*
X179235509Y-71019233D01*
X179233637Y-71019937D01*
X179232091Y-71018669D01*
X179232300Y-71016853D01*
X179260877Y-70974083D01*
X179290809Y-70901822D01*
X179306069Y-70825106D01*
X179306069Y-70746894D01*
X179290809Y-70670178D01*
X179260877Y-70597917D01*
X179232300Y-70555147D01*
X179232169Y-70553151D01*
X179233832Y-70552040D01*
X179235509Y-70552767D01*
G37*
G36*
X174985509Y-70552767D02*
G01*
X174997033Y-70566810D01*
X175015670Y-70582105D01*
X175036934Y-70593470D01*
X175060009Y-70600470D01*
X175084000Y-70602833D01*
X175107991Y-70600470D01*
X175131066Y-70593470D01*
X175152330Y-70582105D01*
X175170967Y-70566810D01*
X175182491Y-70552767D01*
X175184363Y-70552063D01*
X175185909Y-70553331D01*
X175185700Y-70555147D01*
X175157123Y-70597917D01*
X175127191Y-70670178D01*
X175111931Y-70746894D01*
X175111931Y-70825106D01*
X175127191Y-70901822D01*
X175157123Y-70974083D01*
X175185700Y-71016853D01*
X175185831Y-71018849D01*
X175184168Y-71019960D01*
X175182491Y-71019233D01*
X175170967Y-71005190D01*
X175152330Y-70989895D01*
X175131066Y-70978530D01*
X175107991Y-70971530D01*
X175084000Y-70969167D01*
X175060009Y-70971530D01*
X175036934Y-70978530D01*
X175015670Y-70989895D01*
X174997033Y-71005190D01*
X174985509Y-71019233D01*
X174983637Y-71019937D01*
X174982091Y-71018669D01*
X174982300Y-71016853D01*
X175010877Y-70974083D01*
X175040809Y-70901822D01*
X175056069Y-70825106D01*
X175056069Y-70746894D01*
X175040809Y-70670178D01*
X175010877Y-70597917D01*
X174982300Y-70555147D01*
X174982169Y-70553151D01*
X174983832Y-70552040D01*
X174985509Y-70552767D01*
G37*
G36*
X178385509Y-70552767D02*
G01*
X178397033Y-70566810D01*
X178415670Y-70582105D01*
X178436934Y-70593470D01*
X178460009Y-70600470D01*
X178484000Y-70602833D01*
X178507991Y-70600470D01*
X178531066Y-70593470D01*
X178552330Y-70582105D01*
X178570967Y-70566810D01*
X178582491Y-70552767D01*
X178584363Y-70552063D01*
X178585909Y-70553331D01*
X178585700Y-70555147D01*
X178557123Y-70597917D01*
X178527191Y-70670178D01*
X178511931Y-70746894D01*
X178511931Y-70825106D01*
X178527191Y-70901822D01*
X178557123Y-70974083D01*
X178585700Y-71016853D01*
X178585831Y-71018849D01*
X178584168Y-71019960D01*
X178582491Y-71019233D01*
X178570967Y-71005190D01*
X178552330Y-70989895D01*
X178531066Y-70978530D01*
X178507991Y-70971530D01*
X178484000Y-70969167D01*
X178460009Y-70971530D01*
X178436934Y-70978530D01*
X178415670Y-70989895D01*
X178397033Y-71005190D01*
X178385509Y-71019233D01*
X178383637Y-71019937D01*
X178382091Y-71018669D01*
X178382300Y-71016853D01*
X178410877Y-70974083D01*
X178440809Y-70901822D01*
X178456069Y-70825106D01*
X178456069Y-70746894D01*
X178440809Y-70670178D01*
X178410877Y-70597917D01*
X178382300Y-70555147D01*
X178382169Y-70553151D01*
X178383832Y-70552040D01*
X178385509Y-70552767D01*
G37*
G36*
X177535509Y-70552767D02*
G01*
X177547033Y-70566810D01*
X177565670Y-70582105D01*
X177586934Y-70593470D01*
X177610009Y-70600470D01*
X177634000Y-70602833D01*
X177657991Y-70600470D01*
X177681066Y-70593470D01*
X177702330Y-70582105D01*
X177720967Y-70566810D01*
X177732491Y-70552767D01*
X177734363Y-70552063D01*
X177735909Y-70553331D01*
X177735700Y-70555147D01*
X177707123Y-70597917D01*
X177677191Y-70670178D01*
X177661931Y-70746894D01*
X177661931Y-70825106D01*
X177677191Y-70901822D01*
X177707123Y-70974083D01*
X177735700Y-71016853D01*
X177735831Y-71018849D01*
X177734168Y-71019960D01*
X177732491Y-71019233D01*
X177720967Y-71005190D01*
X177702330Y-70989895D01*
X177681066Y-70978530D01*
X177657991Y-70971530D01*
X177634000Y-70969167D01*
X177610009Y-70971530D01*
X177586934Y-70978530D01*
X177565670Y-70989895D01*
X177547033Y-71005190D01*
X177535509Y-71019233D01*
X177533637Y-71019937D01*
X177532091Y-71018669D01*
X177532300Y-71016853D01*
X177560877Y-70974083D01*
X177590809Y-70901822D01*
X177606069Y-70825106D01*
X177606069Y-70746894D01*
X177590809Y-70670178D01*
X177560877Y-70597917D01*
X177532300Y-70555147D01*
X177532169Y-70553151D01*
X177533832Y-70552040D01*
X177535509Y-70552767D01*
G37*
M02*
