G04 #@! TF.GenerationSoftware,KiCad,Pcbnew,(5.1.9)-1*
G04 #@! TF.CreationDate,2021-03-09T14:09:52+01:00*
G04 #@! TF.ProjectId,OpenMacroPad,4f70656e-4d61-4637-926f-5061642e6b69,rev?*
G04 #@! TF.SameCoordinates,Original*
G04 #@! TF.FileFunction,Soldermask,Bot*
G04 #@! TF.FilePolarity,Negative*
%FSLAX46Y46*%
G04 Gerber Fmt 4.6, Leading zero omitted, Abs format (unit mm)*
G04 Created by KiCad (PCBNEW (5.1.9)-1) date 2021-03-09 14:09:52*
%MOMM*%
%LPD*%
G01*
G04 APERTURE LIST*
%ADD10C,0.010000*%
%ADD11C,2.602000*%
%ADD12C,1.802000*%
%ADD13C,4.102000*%
%ADD14C,2.302000*%
%ADD15C,2.102000*%
%ADD16C,0.889400*%
%ADD17C,1.092600*%
%ADD18O,1.002000X1.802000*%
%ADD19O,1.002000X2.502000*%
%ADD20C,0.802000*%
%ADD21C,1.902000*%
%ADD22C,0.100000*%
G04 APERTURE END LIST*
D10*
G36*
X178373192Y-75819110D02*
G01*
X178156172Y-76005285D01*
X178009524Y-76253484D01*
X177956232Y-76537225D01*
X178019282Y-76830024D01*
X178192545Y-77077455D01*
X178470409Y-77248104D01*
X178805865Y-77303915D01*
X179126162Y-77235139D01*
X179175835Y-77209217D01*
X179374060Y-77011339D01*
X179508028Y-76725339D01*
X179544400Y-76429583D01*
X179534812Y-76365443D01*
X179434320Y-76149655D01*
X179255762Y-75932624D01*
X179216626Y-75897552D01*
X178926404Y-75738761D01*
X178637597Y-75721441D01*
X178373192Y-75819110D01*
G37*
X178373192Y-75819110D02*
X178156172Y-76005285D01*
X178009524Y-76253484D01*
X177956232Y-76537225D01*
X178019282Y-76830024D01*
X178192545Y-77077455D01*
X178470409Y-77248104D01*
X178805865Y-77303915D01*
X179126162Y-77235139D01*
X179175835Y-77209217D01*
X179374060Y-77011339D01*
X179508028Y-76725339D01*
X179544400Y-76429583D01*
X179534812Y-76365443D01*
X179434320Y-76149655D01*
X179255762Y-75932624D01*
X179216626Y-75897552D01*
X178926404Y-75738761D01*
X178637597Y-75721441D01*
X178373192Y-75819110D01*
G36*
X178373192Y-75819110D02*
G01*
X178156172Y-76005285D01*
X178009524Y-76253484D01*
X177956232Y-76537225D01*
X178019282Y-76830024D01*
X178192545Y-77077455D01*
X178470409Y-77248104D01*
X178805865Y-77303915D01*
X179126162Y-77235139D01*
X179175835Y-77209217D01*
X179374060Y-77011339D01*
X179508028Y-76725339D01*
X179544400Y-76429583D01*
X179534812Y-76365443D01*
X179434320Y-76149655D01*
X179255762Y-75932624D01*
X179216626Y-75897552D01*
X178926404Y-75738761D01*
X178637597Y-75721441D01*
X178373192Y-75819110D01*
G37*
X178373192Y-75819110D02*
X178156172Y-76005285D01*
X178009524Y-76253484D01*
X177956232Y-76537225D01*
X178019282Y-76830024D01*
X178192545Y-77077455D01*
X178470409Y-77248104D01*
X178805865Y-77303915D01*
X179126162Y-77235139D01*
X179175835Y-77209217D01*
X179374060Y-77011339D01*
X179508028Y-76725339D01*
X179544400Y-76429583D01*
X179534812Y-76365443D01*
X179434320Y-76149655D01*
X179255762Y-75932624D01*
X179216626Y-75897552D01*
X178926404Y-75738761D01*
X178637597Y-75721441D01*
X178373192Y-75819110D01*
D11*
X186182000Y-107442000D03*
D12*
X190754000Y-97790000D03*
X200914000Y-97790000D03*
D13*
X195834000Y-97790000D03*
D14*
X199644000Y-100330000D03*
X193294000Y-102870000D03*
G36*
G01*
X187163000Y-77200000D02*
X187163000Y-75200000D01*
G75*
G02*
X187214000Y-75149000I51000J0D01*
G01*
X189214000Y-75149000D01*
G75*
G02*
X189265000Y-75200000I0J-51000D01*
G01*
X189265000Y-77200000D01*
G75*
G02*
X189214000Y-77251000I-51000J0D01*
G01*
X187214000Y-77251000D01*
G75*
G02*
X187163000Y-77200000I0J51000D01*
G01*
G37*
D15*
X188214000Y-78700000D03*
X188214000Y-81200000D03*
G36*
G01*
X194063000Y-74100000D02*
X194063000Y-72100000D01*
G75*
G02*
X194114000Y-72049000I51000J0D01*
G01*
X197314000Y-72049000D01*
G75*
G02*
X197365000Y-72100000I0J-51000D01*
G01*
X197365000Y-74100000D01*
G75*
G02*
X197314000Y-74151000I-51000J0D01*
G01*
X194114000Y-74151000D01*
G75*
G02*
X194063000Y-74100000I0J51000D01*
G01*
G37*
G36*
G01*
X194063000Y-85300000D02*
X194063000Y-83300000D01*
G75*
G02*
X194114000Y-83249000I51000J0D01*
G01*
X197314000Y-83249000D01*
G75*
G02*
X197365000Y-83300000I0J-51000D01*
G01*
X197365000Y-85300000D01*
G75*
G02*
X197314000Y-85351000I-51000J0D01*
G01*
X194114000Y-85351000D01*
G75*
G02*
X194063000Y-85300000I0J51000D01*
G01*
G37*
X202714000Y-76200000D03*
X202714000Y-81200000D03*
D12*
X190754000Y-135890000D03*
X200914000Y-135890000D03*
D13*
X195834000Y-135890000D03*
D14*
X199644000Y-138430000D03*
X193294000Y-140970000D03*
X174244000Y-140970000D03*
X180594000Y-138430000D03*
D13*
X176784000Y-135890000D03*
D12*
X181864000Y-135890000D03*
X171704000Y-135890000D03*
X152654000Y-135890000D03*
X162814000Y-135890000D03*
D13*
X157734000Y-135890000D03*
D14*
X161544000Y-138430000D03*
X155194000Y-140970000D03*
X193294000Y-121920000D03*
X199644000Y-119380000D03*
D13*
X195834000Y-116840000D03*
D12*
X200914000Y-116840000D03*
X190754000Y-116840000D03*
X171704000Y-116840000D03*
X181864000Y-116840000D03*
D13*
X176784000Y-116840000D03*
D14*
X180594000Y-119380000D03*
X174244000Y-121920000D03*
X155194000Y-121920000D03*
X161544000Y-119380000D03*
D13*
X157734000Y-116840000D03*
D12*
X162814000Y-116840000D03*
X152654000Y-116840000D03*
D14*
X174244000Y-102870000D03*
X180594000Y-100330000D03*
D13*
X176784000Y-97790000D03*
D12*
X181864000Y-97790000D03*
X171704000Y-97790000D03*
X152654000Y-97790000D03*
X162814000Y-97790000D03*
D13*
X157734000Y-97790000D03*
D14*
X161544000Y-100330000D03*
X155194000Y-102870000D03*
D11*
X186182000Y-126238000D03*
X167386000Y-126238000D03*
X167386000Y-107442000D03*
X201930000Y-87630000D03*
X151638000Y-87630000D03*
D16*
X158242000Y-87249000D03*
X158242000Y-88519000D03*
X159512000Y-87249000D03*
X159512000Y-88519000D03*
X160782000Y-87249000D03*
X160782000Y-88519000D03*
D17*
X162052000Y-87884000D03*
X156972000Y-88900000D03*
X156972000Y-86868000D03*
D18*
X172459000Y-67776000D03*
X181109000Y-67776000D03*
D19*
X172459000Y-71156000D03*
X181109000Y-71156000D03*
D20*
X176359000Y-70786000D03*
X173809000Y-70786000D03*
X174659000Y-70786000D03*
X175509000Y-70786000D03*
X179759000Y-70786000D03*
X178059000Y-70786000D03*
X177209000Y-70786000D03*
X178909000Y-70786000D03*
X173809000Y-72136000D03*
X174659000Y-72136000D03*
X175509000Y-72136000D03*
X176359000Y-72136000D03*
X177209000Y-72136000D03*
X178059000Y-72136000D03*
X178909000Y-72136000D03*
X179759000Y-72136000D03*
D21*
X197104000Y-130810000D03*
G36*
G01*
X193613000Y-131710000D02*
X193613000Y-129910000D01*
G75*
G02*
X193664000Y-129859000I51000J0D01*
G01*
X195464000Y-129859000D01*
G75*
G02*
X195515000Y-129910000I0J-51000D01*
G01*
X195515000Y-131710000D01*
G75*
G02*
X195464000Y-131761000I-51000J0D01*
G01*
X193664000Y-131761000D01*
G75*
G02*
X193613000Y-131710000I0J51000D01*
G01*
G37*
X178054000Y-130810000D03*
G36*
G01*
X174563000Y-131710000D02*
X174563000Y-129910000D01*
G75*
G02*
X174614000Y-129859000I51000J0D01*
G01*
X176414000Y-129859000D01*
G75*
G02*
X176465000Y-129910000I0J-51000D01*
G01*
X176465000Y-131710000D01*
G75*
G02*
X176414000Y-131761000I-51000J0D01*
G01*
X174614000Y-131761000D01*
G75*
G02*
X174563000Y-131710000I0J51000D01*
G01*
G37*
X159004000Y-130810000D03*
G36*
G01*
X155513000Y-131710000D02*
X155513000Y-129910000D01*
G75*
G02*
X155564000Y-129859000I51000J0D01*
G01*
X157364000Y-129859000D01*
G75*
G02*
X157415000Y-129910000I0J-51000D01*
G01*
X157415000Y-131710000D01*
G75*
G02*
X157364000Y-131761000I-51000J0D01*
G01*
X155564000Y-131761000D01*
G75*
G02*
X155513000Y-131710000I0J51000D01*
G01*
G37*
X197104000Y-111760000D03*
G36*
G01*
X193613000Y-112660000D02*
X193613000Y-110860000D01*
G75*
G02*
X193664000Y-110809000I51000J0D01*
G01*
X195464000Y-110809000D01*
G75*
G02*
X195515000Y-110860000I0J-51000D01*
G01*
X195515000Y-112660000D01*
G75*
G02*
X195464000Y-112711000I-51000J0D01*
G01*
X193664000Y-112711000D01*
G75*
G02*
X193613000Y-112660000I0J51000D01*
G01*
G37*
X178054000Y-111760000D03*
G36*
G01*
X174563000Y-112660000D02*
X174563000Y-110860000D01*
G75*
G02*
X174614000Y-110809000I51000J0D01*
G01*
X176414000Y-110809000D01*
G75*
G02*
X176465000Y-110860000I0J-51000D01*
G01*
X176465000Y-112660000D01*
G75*
G02*
X176414000Y-112711000I-51000J0D01*
G01*
X174614000Y-112711000D01*
G75*
G02*
X174563000Y-112660000I0J51000D01*
G01*
G37*
X159004000Y-111760000D03*
G36*
G01*
X155513000Y-112660000D02*
X155513000Y-110860000D01*
G75*
G02*
X155564000Y-110809000I51000J0D01*
G01*
X157364000Y-110809000D01*
G75*
G02*
X157415000Y-110860000I0J-51000D01*
G01*
X157415000Y-112660000D01*
G75*
G02*
X157364000Y-112711000I-51000J0D01*
G01*
X155564000Y-112711000D01*
G75*
G02*
X155513000Y-112660000I0J51000D01*
G01*
G37*
X197104000Y-92710000D03*
G36*
G01*
X193613000Y-93610000D02*
X193613000Y-91810000D01*
G75*
G02*
X193664000Y-91759000I51000J0D01*
G01*
X195464000Y-91759000D01*
G75*
G02*
X195515000Y-91810000I0J-51000D01*
G01*
X195515000Y-93610000D01*
G75*
G02*
X195464000Y-93661000I-51000J0D01*
G01*
X193664000Y-93661000D01*
G75*
G02*
X193613000Y-93610000I0J51000D01*
G01*
G37*
X159004000Y-92710000D03*
G36*
G01*
X155513000Y-93610000D02*
X155513000Y-91810000D01*
G75*
G02*
X155564000Y-91759000I51000J0D01*
G01*
X157364000Y-91759000D01*
G75*
G02*
X157415000Y-91810000I0J-51000D01*
G01*
X157415000Y-93610000D01*
G75*
G02*
X157364000Y-93661000I-51000J0D01*
G01*
X155564000Y-93661000D01*
G75*
G02*
X155513000Y-93610000I0J51000D01*
G01*
G37*
X178054000Y-92710000D03*
G36*
G01*
X174563000Y-93610000D02*
X174563000Y-91810000D01*
G75*
G02*
X174614000Y-91759000I51000J0D01*
G01*
X176414000Y-91759000D01*
G75*
G02*
X176465000Y-91810000I0J-51000D01*
G01*
X176465000Y-93610000D01*
G75*
G02*
X176414000Y-93661000I-51000J0D01*
G01*
X174614000Y-93661000D01*
G75*
G02*
X174563000Y-93610000I0J51000D01*
G01*
G37*
G36*
G01*
X166405000Y-80280000D02*
X166405000Y-82280000D01*
G75*
G02*
X166354000Y-82331000I-51000J0D01*
G01*
X164354000Y-82331000D01*
G75*
G02*
X164303000Y-82280000I0J51000D01*
G01*
X164303000Y-80280000D01*
G75*
G02*
X164354000Y-80229000I51000J0D01*
G01*
X166354000Y-80229000D01*
G75*
G02*
X166405000Y-80280000I0J-51000D01*
G01*
G37*
D15*
X165354000Y-78780000D03*
X165354000Y-76280000D03*
G36*
G01*
X159505000Y-83380000D02*
X159505000Y-85380000D01*
G75*
G02*
X159454000Y-85431000I-51000J0D01*
G01*
X156254000Y-85431000D01*
G75*
G02*
X156203000Y-85380000I0J51000D01*
G01*
X156203000Y-83380000D01*
G75*
G02*
X156254000Y-83329000I51000J0D01*
G01*
X159454000Y-83329000D01*
G75*
G02*
X159505000Y-83380000I0J-51000D01*
G01*
G37*
G36*
G01*
X159505000Y-72180000D02*
X159505000Y-74180000D01*
G75*
G02*
X159454000Y-74231000I-51000J0D01*
G01*
X156254000Y-74231000D01*
G75*
G02*
X156203000Y-74180000I0J51000D01*
G01*
X156203000Y-72180000D01*
G75*
G02*
X156254000Y-72129000I51000J0D01*
G01*
X159454000Y-72129000D01*
G75*
G02*
X159505000Y-72180000I0J-51000D01*
G01*
G37*
X150854000Y-81280000D03*
X150854000Y-76280000D03*
D22*
G36*
X175835509Y-71902767D02*
G01*
X175847033Y-71916810D01*
X175865670Y-71932105D01*
X175886934Y-71943470D01*
X175910009Y-71950470D01*
X175934000Y-71952833D01*
X175957991Y-71950470D01*
X175981066Y-71943470D01*
X176002330Y-71932105D01*
X176020967Y-71916810D01*
X176032491Y-71902767D01*
X176034363Y-71902063D01*
X176035909Y-71903331D01*
X176035700Y-71905147D01*
X176007123Y-71947917D01*
X175977191Y-72020178D01*
X175961931Y-72096894D01*
X175961931Y-72175106D01*
X175977191Y-72251822D01*
X176007123Y-72324083D01*
X176035700Y-72366853D01*
X176035831Y-72368849D01*
X176034168Y-72369960D01*
X176032491Y-72369233D01*
X176020967Y-72355190D01*
X176002330Y-72339895D01*
X175981066Y-72328530D01*
X175957991Y-72321530D01*
X175934000Y-72319167D01*
X175910009Y-72321530D01*
X175886934Y-72328530D01*
X175865670Y-72339895D01*
X175847033Y-72355190D01*
X175835509Y-72369233D01*
X175833637Y-72369937D01*
X175832091Y-72368669D01*
X175832300Y-72366853D01*
X175860877Y-72324083D01*
X175890809Y-72251822D01*
X175906069Y-72175106D01*
X175906069Y-72096894D01*
X175890809Y-72020178D01*
X175860877Y-71947917D01*
X175832300Y-71905147D01*
X175832169Y-71903151D01*
X175833832Y-71902040D01*
X175835509Y-71902767D01*
G37*
G36*
X177535509Y-71902767D02*
G01*
X177547033Y-71916810D01*
X177565670Y-71932105D01*
X177586934Y-71943470D01*
X177610009Y-71950470D01*
X177634000Y-71952833D01*
X177657991Y-71950470D01*
X177681066Y-71943470D01*
X177702330Y-71932105D01*
X177720967Y-71916810D01*
X177732491Y-71902767D01*
X177734363Y-71902063D01*
X177735909Y-71903331D01*
X177735700Y-71905147D01*
X177707123Y-71947917D01*
X177677191Y-72020178D01*
X177661931Y-72096894D01*
X177661931Y-72175106D01*
X177677191Y-72251822D01*
X177707123Y-72324083D01*
X177735700Y-72366853D01*
X177735831Y-72368849D01*
X177734168Y-72369960D01*
X177732491Y-72369233D01*
X177720967Y-72355190D01*
X177702330Y-72339895D01*
X177681066Y-72328530D01*
X177657991Y-72321530D01*
X177634000Y-72319167D01*
X177610009Y-72321530D01*
X177586934Y-72328530D01*
X177565670Y-72339895D01*
X177547033Y-72355190D01*
X177535509Y-72369233D01*
X177533637Y-72369937D01*
X177532091Y-72368669D01*
X177532300Y-72366853D01*
X177560877Y-72324083D01*
X177590809Y-72251822D01*
X177606069Y-72175106D01*
X177606069Y-72096894D01*
X177590809Y-72020178D01*
X177560877Y-71947917D01*
X177532300Y-71905147D01*
X177532169Y-71903151D01*
X177533832Y-71902040D01*
X177535509Y-71902767D01*
G37*
G36*
X178385509Y-71902767D02*
G01*
X178397033Y-71916810D01*
X178415670Y-71932105D01*
X178436934Y-71943470D01*
X178460009Y-71950470D01*
X178484000Y-71952833D01*
X178507991Y-71950470D01*
X178531066Y-71943470D01*
X178552330Y-71932105D01*
X178570967Y-71916810D01*
X178582491Y-71902767D01*
X178584363Y-71902063D01*
X178585909Y-71903331D01*
X178585700Y-71905147D01*
X178557123Y-71947917D01*
X178527191Y-72020178D01*
X178511931Y-72096894D01*
X178511931Y-72175106D01*
X178527191Y-72251822D01*
X178557123Y-72324083D01*
X178585700Y-72366853D01*
X178585831Y-72368849D01*
X178584168Y-72369960D01*
X178582491Y-72369233D01*
X178570967Y-72355190D01*
X178552330Y-72339895D01*
X178531066Y-72328530D01*
X178507991Y-72321530D01*
X178484000Y-72319167D01*
X178460009Y-72321530D01*
X178436934Y-72328530D01*
X178415670Y-72339895D01*
X178397033Y-72355190D01*
X178385509Y-72369233D01*
X178383637Y-72369937D01*
X178382091Y-72368669D01*
X178382300Y-72366853D01*
X178410877Y-72324083D01*
X178440809Y-72251822D01*
X178456069Y-72175106D01*
X178456069Y-72096894D01*
X178440809Y-72020178D01*
X178410877Y-71947917D01*
X178382300Y-71905147D01*
X178382169Y-71903151D01*
X178383832Y-71902040D01*
X178385509Y-71902767D01*
G37*
G36*
X174985509Y-71902767D02*
G01*
X174997033Y-71916810D01*
X175015670Y-71932105D01*
X175036934Y-71943470D01*
X175060009Y-71950470D01*
X175084000Y-71952833D01*
X175107991Y-71950470D01*
X175131066Y-71943470D01*
X175152330Y-71932105D01*
X175170967Y-71916810D01*
X175182491Y-71902767D01*
X175184363Y-71902063D01*
X175185909Y-71903331D01*
X175185700Y-71905147D01*
X175157123Y-71947917D01*
X175127191Y-72020178D01*
X175111931Y-72096894D01*
X175111931Y-72175106D01*
X175127191Y-72251822D01*
X175157123Y-72324083D01*
X175185700Y-72366853D01*
X175185831Y-72368849D01*
X175184168Y-72369960D01*
X175182491Y-72369233D01*
X175170967Y-72355190D01*
X175152330Y-72339895D01*
X175131066Y-72328530D01*
X175107991Y-72321530D01*
X175084000Y-72319167D01*
X175060009Y-72321530D01*
X175036934Y-72328530D01*
X175015670Y-72339895D01*
X174997033Y-72355190D01*
X174985509Y-72369233D01*
X174983637Y-72369937D01*
X174982091Y-72368669D01*
X174982300Y-72366853D01*
X175010877Y-72324083D01*
X175040809Y-72251822D01*
X175056069Y-72175106D01*
X175056069Y-72096894D01*
X175040809Y-72020178D01*
X175010877Y-71947917D01*
X174982300Y-71905147D01*
X174982169Y-71903151D01*
X174983832Y-71902040D01*
X174985509Y-71902767D01*
G37*
G36*
X174135509Y-71902767D02*
G01*
X174147033Y-71916810D01*
X174165670Y-71932105D01*
X174186934Y-71943470D01*
X174210009Y-71950470D01*
X174234000Y-71952833D01*
X174257991Y-71950470D01*
X174281066Y-71943470D01*
X174302330Y-71932105D01*
X174320967Y-71916810D01*
X174332491Y-71902767D01*
X174334363Y-71902063D01*
X174335909Y-71903331D01*
X174335700Y-71905147D01*
X174307123Y-71947917D01*
X174277191Y-72020178D01*
X174261931Y-72096894D01*
X174261931Y-72175106D01*
X174277191Y-72251822D01*
X174307123Y-72324083D01*
X174335700Y-72366853D01*
X174335831Y-72368849D01*
X174334168Y-72369960D01*
X174332491Y-72369233D01*
X174320967Y-72355190D01*
X174302330Y-72339895D01*
X174281066Y-72328530D01*
X174257991Y-72321530D01*
X174234000Y-72319167D01*
X174210009Y-72321530D01*
X174186934Y-72328530D01*
X174165670Y-72339895D01*
X174147033Y-72355190D01*
X174135509Y-72369233D01*
X174133637Y-72369937D01*
X174132091Y-72368669D01*
X174132300Y-72366853D01*
X174160877Y-72324083D01*
X174190809Y-72251822D01*
X174206069Y-72175106D01*
X174206069Y-72096894D01*
X174190809Y-72020178D01*
X174160877Y-71947917D01*
X174132300Y-71905147D01*
X174132169Y-71903151D01*
X174133832Y-71902040D01*
X174135509Y-71902767D01*
G37*
G36*
X179235509Y-71902767D02*
G01*
X179247033Y-71916810D01*
X179265670Y-71932105D01*
X179286934Y-71943470D01*
X179310009Y-71950470D01*
X179334000Y-71952833D01*
X179357991Y-71950470D01*
X179381066Y-71943470D01*
X179402330Y-71932105D01*
X179420967Y-71916810D01*
X179432491Y-71902767D01*
X179434363Y-71902063D01*
X179435909Y-71903331D01*
X179435700Y-71905147D01*
X179407123Y-71947917D01*
X179377191Y-72020178D01*
X179361931Y-72096894D01*
X179361931Y-72175106D01*
X179377191Y-72251822D01*
X179407123Y-72324083D01*
X179435700Y-72366853D01*
X179435831Y-72368849D01*
X179434168Y-72369960D01*
X179432491Y-72369233D01*
X179420967Y-72355190D01*
X179402330Y-72339895D01*
X179381066Y-72328530D01*
X179357991Y-72321530D01*
X179334000Y-72319167D01*
X179310009Y-72321530D01*
X179286934Y-72328530D01*
X179265670Y-72339895D01*
X179247033Y-72355190D01*
X179235509Y-72369233D01*
X179233637Y-72369937D01*
X179232091Y-72368669D01*
X179232300Y-72366853D01*
X179260877Y-72324083D01*
X179290809Y-72251822D01*
X179306069Y-72175106D01*
X179306069Y-72096894D01*
X179290809Y-72020178D01*
X179260877Y-71947917D01*
X179232300Y-71905147D01*
X179232169Y-71903151D01*
X179233832Y-71902040D01*
X179235509Y-71902767D01*
G37*
G36*
X176685509Y-71902767D02*
G01*
X176697033Y-71916810D01*
X176715670Y-71932105D01*
X176736934Y-71943470D01*
X176760009Y-71950470D01*
X176784000Y-71952833D01*
X176807991Y-71950470D01*
X176831066Y-71943470D01*
X176852330Y-71932105D01*
X176870967Y-71916810D01*
X176882491Y-71902767D01*
X176884363Y-71902063D01*
X176885909Y-71903331D01*
X176885700Y-71905147D01*
X176857123Y-71947917D01*
X176827191Y-72020178D01*
X176811931Y-72096894D01*
X176811931Y-72175106D01*
X176827191Y-72251822D01*
X176857123Y-72324083D01*
X176885700Y-72366853D01*
X176885831Y-72368849D01*
X176884168Y-72369960D01*
X176882491Y-72369233D01*
X176870967Y-72355190D01*
X176852330Y-72339895D01*
X176831066Y-72328530D01*
X176807991Y-72321530D01*
X176784000Y-72319167D01*
X176760009Y-72321530D01*
X176736934Y-72328530D01*
X176715670Y-72339895D01*
X176697033Y-72355190D01*
X176685509Y-72369233D01*
X176683637Y-72369937D01*
X176682091Y-72368669D01*
X176682300Y-72366853D01*
X176710877Y-72324083D01*
X176740809Y-72251822D01*
X176756069Y-72175106D01*
X176756069Y-72096894D01*
X176740809Y-72020178D01*
X176710877Y-71947917D01*
X176682300Y-71905147D01*
X176682169Y-71903151D01*
X176683832Y-71902040D01*
X176685509Y-71902767D01*
G37*
G36*
X178385509Y-70552767D02*
G01*
X178397033Y-70566810D01*
X178415670Y-70582105D01*
X178436934Y-70593470D01*
X178460009Y-70600470D01*
X178484000Y-70602833D01*
X178507991Y-70600470D01*
X178531066Y-70593470D01*
X178552330Y-70582105D01*
X178570967Y-70566810D01*
X178582491Y-70552767D01*
X178584363Y-70552063D01*
X178585909Y-70553331D01*
X178585700Y-70555147D01*
X178557123Y-70597917D01*
X178527191Y-70670178D01*
X178511931Y-70746894D01*
X178511931Y-70825106D01*
X178527191Y-70901822D01*
X178557123Y-70974083D01*
X178585700Y-71016853D01*
X178585831Y-71018849D01*
X178584168Y-71019960D01*
X178582491Y-71019233D01*
X178570967Y-71005190D01*
X178552330Y-70989895D01*
X178531066Y-70978530D01*
X178507991Y-70971530D01*
X178484000Y-70969167D01*
X178460009Y-70971530D01*
X178436934Y-70978530D01*
X178415670Y-70989895D01*
X178397033Y-71005190D01*
X178385509Y-71019233D01*
X178383637Y-71019937D01*
X178382091Y-71018669D01*
X178382300Y-71016853D01*
X178410877Y-70974083D01*
X178440809Y-70901822D01*
X178456069Y-70825106D01*
X178456069Y-70746894D01*
X178440809Y-70670178D01*
X178410877Y-70597917D01*
X178382300Y-70555147D01*
X178382169Y-70553151D01*
X178383832Y-70552040D01*
X178385509Y-70552767D01*
G37*
G36*
X176685509Y-70552767D02*
G01*
X176697033Y-70566810D01*
X176715670Y-70582105D01*
X176736934Y-70593470D01*
X176760009Y-70600470D01*
X176784000Y-70602833D01*
X176807991Y-70600470D01*
X176831066Y-70593470D01*
X176852330Y-70582105D01*
X176870967Y-70566810D01*
X176882491Y-70552767D01*
X176884363Y-70552063D01*
X176885909Y-70553331D01*
X176885700Y-70555147D01*
X176857123Y-70597917D01*
X176827191Y-70670178D01*
X176811931Y-70746894D01*
X176811931Y-70825106D01*
X176827191Y-70901822D01*
X176857123Y-70974083D01*
X176885700Y-71016853D01*
X176885831Y-71018849D01*
X176884168Y-71019960D01*
X176882491Y-71019233D01*
X176870967Y-71005190D01*
X176852330Y-70989895D01*
X176831066Y-70978530D01*
X176807991Y-70971530D01*
X176784000Y-70969167D01*
X176760009Y-70971530D01*
X176736934Y-70978530D01*
X176715670Y-70989895D01*
X176697033Y-71005190D01*
X176685509Y-71019233D01*
X176683637Y-71019937D01*
X176682091Y-71018669D01*
X176682300Y-71016853D01*
X176710877Y-70974083D01*
X176740809Y-70901822D01*
X176756069Y-70825106D01*
X176756069Y-70746894D01*
X176740809Y-70670178D01*
X176710877Y-70597917D01*
X176682300Y-70555147D01*
X176682169Y-70553151D01*
X176683832Y-70552040D01*
X176685509Y-70552767D01*
G37*
G36*
X174135509Y-70552767D02*
G01*
X174147033Y-70566810D01*
X174165670Y-70582105D01*
X174186934Y-70593470D01*
X174210009Y-70600470D01*
X174234000Y-70602833D01*
X174257991Y-70600470D01*
X174281066Y-70593470D01*
X174302330Y-70582105D01*
X174320967Y-70566810D01*
X174332491Y-70552767D01*
X174334363Y-70552063D01*
X174335909Y-70553331D01*
X174335700Y-70555147D01*
X174307123Y-70597917D01*
X174277191Y-70670178D01*
X174261931Y-70746894D01*
X174261931Y-70825106D01*
X174277191Y-70901822D01*
X174307123Y-70974083D01*
X174335700Y-71016853D01*
X174335831Y-71018849D01*
X174334168Y-71019960D01*
X174332491Y-71019233D01*
X174320967Y-71005190D01*
X174302330Y-70989895D01*
X174281066Y-70978530D01*
X174257991Y-70971530D01*
X174234000Y-70969167D01*
X174210009Y-70971530D01*
X174186934Y-70978530D01*
X174165670Y-70989895D01*
X174147033Y-71005190D01*
X174135509Y-71019233D01*
X174133637Y-71019937D01*
X174132091Y-71018669D01*
X174132300Y-71016853D01*
X174160877Y-70974083D01*
X174190809Y-70901822D01*
X174206069Y-70825106D01*
X174206069Y-70746894D01*
X174190809Y-70670178D01*
X174160877Y-70597917D01*
X174132300Y-70555147D01*
X174132169Y-70553151D01*
X174133832Y-70552040D01*
X174135509Y-70552767D01*
G37*
G36*
X174985509Y-70552767D02*
G01*
X174997033Y-70566810D01*
X175015670Y-70582105D01*
X175036934Y-70593470D01*
X175060009Y-70600470D01*
X175084000Y-70602833D01*
X175107991Y-70600470D01*
X175131066Y-70593470D01*
X175152330Y-70582105D01*
X175170967Y-70566810D01*
X175182491Y-70552767D01*
X175184363Y-70552063D01*
X175185909Y-70553331D01*
X175185700Y-70555147D01*
X175157123Y-70597917D01*
X175127191Y-70670178D01*
X175111931Y-70746894D01*
X175111931Y-70825106D01*
X175127191Y-70901822D01*
X175157123Y-70974083D01*
X175185700Y-71016853D01*
X175185831Y-71018849D01*
X175184168Y-71019960D01*
X175182491Y-71019233D01*
X175170967Y-71005190D01*
X175152330Y-70989895D01*
X175131066Y-70978530D01*
X175107991Y-70971530D01*
X175084000Y-70969167D01*
X175060009Y-70971530D01*
X175036934Y-70978530D01*
X175015670Y-70989895D01*
X174997033Y-71005190D01*
X174985509Y-71019233D01*
X174983637Y-71019937D01*
X174982091Y-71018669D01*
X174982300Y-71016853D01*
X175010877Y-70974083D01*
X175040809Y-70901822D01*
X175056069Y-70825106D01*
X175056069Y-70746894D01*
X175040809Y-70670178D01*
X175010877Y-70597917D01*
X174982300Y-70555147D01*
X174982169Y-70553151D01*
X174983832Y-70552040D01*
X174985509Y-70552767D01*
G37*
G36*
X179235509Y-70552767D02*
G01*
X179247033Y-70566810D01*
X179265670Y-70582105D01*
X179286934Y-70593470D01*
X179310009Y-70600470D01*
X179334000Y-70602833D01*
X179357991Y-70600470D01*
X179381066Y-70593470D01*
X179402330Y-70582105D01*
X179420967Y-70566810D01*
X179432491Y-70552767D01*
X179434363Y-70552063D01*
X179435909Y-70553331D01*
X179435700Y-70555147D01*
X179407123Y-70597917D01*
X179377191Y-70670178D01*
X179361931Y-70746894D01*
X179361931Y-70825106D01*
X179377191Y-70901822D01*
X179407123Y-70974083D01*
X179435700Y-71016853D01*
X179435831Y-71018849D01*
X179434168Y-71019960D01*
X179432491Y-71019233D01*
X179420967Y-71005190D01*
X179402330Y-70989895D01*
X179381066Y-70978530D01*
X179357991Y-70971530D01*
X179334000Y-70969167D01*
X179310009Y-70971530D01*
X179286934Y-70978530D01*
X179265670Y-70989895D01*
X179247033Y-71005190D01*
X179235509Y-71019233D01*
X179233637Y-71019937D01*
X179232091Y-71018669D01*
X179232300Y-71016853D01*
X179260877Y-70974083D01*
X179290809Y-70901822D01*
X179306069Y-70825106D01*
X179306069Y-70746894D01*
X179290809Y-70670178D01*
X179260877Y-70597917D01*
X179232300Y-70555147D01*
X179232169Y-70553151D01*
X179233832Y-70552040D01*
X179235509Y-70552767D01*
G37*
G36*
X177535509Y-70552767D02*
G01*
X177547033Y-70566810D01*
X177565670Y-70582105D01*
X177586934Y-70593470D01*
X177610009Y-70600470D01*
X177634000Y-70602833D01*
X177657991Y-70600470D01*
X177681066Y-70593470D01*
X177702330Y-70582105D01*
X177720967Y-70566810D01*
X177732491Y-70552767D01*
X177734363Y-70552063D01*
X177735909Y-70553331D01*
X177735700Y-70555147D01*
X177707123Y-70597917D01*
X177677191Y-70670178D01*
X177661931Y-70746894D01*
X177661931Y-70825106D01*
X177677191Y-70901822D01*
X177707123Y-70974083D01*
X177735700Y-71016853D01*
X177735831Y-71018849D01*
X177734168Y-71019960D01*
X177732491Y-71019233D01*
X177720967Y-71005190D01*
X177702330Y-70989895D01*
X177681066Y-70978530D01*
X177657991Y-70971530D01*
X177634000Y-70969167D01*
X177610009Y-70971530D01*
X177586934Y-70978530D01*
X177565670Y-70989895D01*
X177547033Y-71005190D01*
X177535509Y-71019233D01*
X177533637Y-71019937D01*
X177532091Y-71018669D01*
X177532300Y-71016853D01*
X177560877Y-70974083D01*
X177590809Y-70901822D01*
X177606069Y-70825106D01*
X177606069Y-70746894D01*
X177590809Y-70670178D01*
X177560877Y-70597917D01*
X177532300Y-70555147D01*
X177532169Y-70553151D01*
X177533832Y-70552040D01*
X177535509Y-70552767D01*
G37*
G36*
X175835509Y-70552767D02*
G01*
X175847033Y-70566810D01*
X175865670Y-70582105D01*
X175886934Y-70593470D01*
X175910009Y-70600470D01*
X175934000Y-70602833D01*
X175957991Y-70600470D01*
X175981066Y-70593470D01*
X176002330Y-70582105D01*
X176020967Y-70566810D01*
X176032491Y-70552767D01*
X176034363Y-70552063D01*
X176035909Y-70553331D01*
X176035700Y-70555147D01*
X176007123Y-70597917D01*
X175977191Y-70670178D01*
X175961931Y-70746894D01*
X175961931Y-70825106D01*
X175977191Y-70901822D01*
X176007123Y-70974083D01*
X176035700Y-71016853D01*
X176035831Y-71018849D01*
X176034168Y-71019960D01*
X176032491Y-71019233D01*
X176020967Y-71005190D01*
X176002330Y-70989895D01*
X175981066Y-70978530D01*
X175957991Y-70971530D01*
X175934000Y-70969167D01*
X175910009Y-70971530D01*
X175886934Y-70978530D01*
X175865670Y-70989895D01*
X175847033Y-71005190D01*
X175835509Y-71019233D01*
X175833637Y-71019937D01*
X175832091Y-71018669D01*
X175832300Y-71016853D01*
X175860877Y-70974083D01*
X175890809Y-70901822D01*
X175906069Y-70825106D01*
X175906069Y-70746894D01*
X175890809Y-70670178D01*
X175860877Y-70597917D01*
X175832300Y-70555147D01*
X175832169Y-70553151D01*
X175833832Y-70552040D01*
X175835509Y-70552767D01*
G37*
M02*
